<?xml version="1.0" encoding="utf-8"?>
<!-- Generator: Adobe Illustrator 21.1.0, SVG Export Plug-In . SVG Version: 6.00 Build 0)  -->
<svg version="1.1" id="Layer_1" xmlns="http://www.w3.org/2000/svg" xmlns:xlink="http://www.w3.org/1999/xlink" x="0px" y="0px"
	 viewBox="0 0 225.9 234.4" style="enable-background:new 0 0 225.9 234.4;" xml:space="preserve">
<style type="text/css">
	.st0{fill:#3B5B93;}
</style>
<path class="st0" d="M150.6,55.3c0,0-22.3,91.9-22.3,116.4s27.5,22.2,34.6,21.2c9.6-1.4,33.9-17.8,33.9-17.8l-14.7-5.5l43.8-11.5
	l-12.8,47.4c0,0-1.4-15.1-4.3-18c0,0-26.6,44.5-71.1,36.6c0,0-18.7-6.3-30.9,0.9s-10.9,12.5-12.2,7.2s54.9-232,54.9-232
	s10.9,0.7,8.9,10.6s-5.6,10.9-3.6,14.2s30.1,14.9,34.4,14.9c4.3,0,8.9-3.6,9.3-0.3c0.3,3.3,1.3,18.5-2.6,20.5c-4,2-4.3-2-7.9-2
	C184.1,58.1,159.3,50.8,150.6,55.3z"/>
<path class="st0" d="M128.7,50.4c0,0-22.8,91.4-34.3,112.7s-35.9,5.6-42,1.2c-8.2-6-23-32.5-23-32.5l16.2,2.5l-35.1-32L0,150.1
	c0,0,8.5-12.4,12.5-13.5c0,0,3.6,52.2,48.5,67.6c0,0,20.3,3.8,28.1,16.3c7.9,12.4,4.2,16.4,7.9,12.4C100.7,229,155.8,3,155.8,3
	s-11.7-7.9-14.5,1.8s1.3,15.3-2.1,17.2c-3.4,1.9-34.9-2.1-38.8-4.2s-6.5-7.6-8.4-4.9c-1.9,2.7-10,15.5-7.2,19.2s4.9,0.4,8.3,2.2
	C96.3,36.1,122.7,42.1,128.7,50.4z"/>
</svg>
