<?xml version="1.0" encoding="utf-8"?>
<!-- Generator: Adobe Illustrator 21.1.0, SVG Export Plug-In . SVG Version: 6.00 Build 0)  -->
<svg version="1.1" id="Layer_1" xmlns="http://www.w3.org/2000/svg" xmlns:xlink="http://www.w3.org/1999/xlink" x="0px" y="0px"
	 viewBox="0 0 100 88.8" style="enable-background:new 0 0 100 88.8;" xml:space="preserve">
<style type="text/css">
	.st0{display:none;}
	.st1{fill:#7F4641;}
	.st2{fill:#A55D55;}
	.st3{fill:#D68072;}
	.st4{fill:#ED9E8E;}
	.st5{fill:#9E355D;}
</style>
<g id="Layer_1_1_" class="st0">
</g>
<path class="st1" d="M53.4,81.2l10.3,0.2c0.9-3-13.5-20.1-0.6-26.8c2.6-1.3,7.3,0,7.3,0l1.1-8.1l-5.9-5.7l-15,2.3l-7.1,18.3L48.9,78
	L53.4,81.2z"/>
<path class="st2" d="M100,72.1c0,0-1.8,3.6-1.8,4.7s-0.4,2.6-0.9,3.3s-3.4,3.4-4.9,3.4s-1.8,0.8-3.9,0.7s-3-1.5-5-1.5
	s-3.9-0.5-4.9-2.3c-0.9-1.9-2.7-4.1-3.5-4.5c-0.7-0.4-2.1-0.8-2.2-1.4s-3.4-0.9-3.4-2.2s-1-3.1-1.2-5c-0.2-2,2.2-6.3,1.8-7.6
	c-0.5-1.3-3.2,1.4-3.4,0s-1.9-5.6-1.3-6.3s3.1-1.3,3.1-1.3L65.3,50c0,0-2.3-0.1-2.7-0.7s2.9-3.5,2.1-3.6c-0.7-0.1-1.6,1-3.5,0.9
	s-2.7-0.9-2.7-0.9s-1.4,0.3-1.4,1.2s-1,2.5-1.9,2.7c-0.8,0.2-2.3-1.9-2.3-0.4s0.8,4.2,0.6,4.8s-0.1,2.6-1.3,2.9s-1.4,1.2-1.7,0.2
	s0.8-2.1,0-2.1s-1.8,4.1-1.7,4.5s1.9,0.2,1.7,1.4c-0.1,1.2,0.1,7.6,0.5,8.3s2.1,2,3.2,3.7c1,1.8,2.2,4.2,1.9,5.1
	c-0.4,0.9-0.7,3.3-2.8,3.3S49,81,47.5,81.5s-3.3-0.7-5.5,0.1c-2.2,0.8-13.5,1.8-13.5,1.8s0.3,2.9-2.8,3s-2.9,2.8-6,2.6
	c-3.1-0.2-5.5-0.2-9-3.9c-3.5-3.7-6.9-0.9-7.3-4.3s1.9-9.3,1.7-11.1C5,67.6,32.4,36.8,32.4,36.8L64,37.2c0,0,14.6,7.1,17.1,7.9
	s7.5,6.1,7.5,8.4s3.6,0.8,6.6,4c3.1,3.2,0,5.7,1.9,8.4C99,68.6,99.7,68.1,100,72.1z"/>
<path class="st2" d="M34.7,29.4c0,0-5.7,1.6-5.1,5.3s0.1,3.6,3.6,4.6c3.6,0.9,5.4-1.3,7.3-0.2c1.9,1,2.7,3.1,5.1,2.4
	s3.8-4.2,5.9-2.8s2.2,2.9,5,2.9c2.9,0,1.1-1.2,4.9-1.6c3.8-0.4,4.4,0.5,5.6-1.3s0.3-0.5-1.2-4.7s0.7-2.7-1.5-4.2s0.1-1.8-2.5-2.6
	s-2.1-3-4.8-2.6s-6.8,0-10.6,0s-8.1,1-8.7,3.1S34.7,29.4,34.7,29.4z"/>
<path class="st3" d="M63,33.3c0,0-4.1,0.8-4.1,2.1c0,1.4,3.1,2.6,3.7,4.8c0.6,2.1,1.8,0,3,0.5c1.2,0.5,0.7-1.2,1.4-0.5
	S66.4,44,68.8,44s2-0.9,3-0.9c1.1,0.1,1.3,1,2.1,0.1c0.8-1,0.4-2.6,1.8-1.6s1.7,1.5,3.2,1.2s1.3-0.8,1.8-1.2s2.9-0.2,1.8-1.6
	c-1.2-1.4-1.3-1.9-2.2-2.4c-0.9-0.5-0.8-2.9-2.2-2.9C76.7,34.7,63,33.3,63,33.3z"/>
<path class="st4" d="M36.7,70.8c0,0,3.2-3.3,3.2-5.2c0.1-1.9-2.3-4.7-5.8-4.6c-3.5,0.2-5.8,6.8-5.8,6.8l2.2,5L36.7,70.8z"/>
<path class="st3" d="M48.1,22.9c0,0,1.7,2.7-2.5,4.2c-4.2,1.5-5.2,1-5.1,1.9c0.1,0.9,1.9,3.4,1.9,3.4s-1.2,2.7-4.2,2.2
	s-7.1-2.3-6.6-4.9c0.5-2.6,1.4-2.5,0.5-4c-0.9-1.5-5.5-2.4-4.6-2.9s1.5,0.6,1.5-0.4s-0.9-1.9-0.2-1.9s1.4,0.9,1.5,0s0.6-1.7,0.6-1.4
	s0,1,0.3,0.8s0.2-0.7,0.6-0.8c0.4-0.1,0.8,1,1.3,0.6s0.3-1.6,0.8-1.6s1,1,1.7,0.7c0.8-0.4,0.6-1,1.1-0.6c0.6,0.4,0.2,1.3,0.9,1.1
	c0.7-0.2,1.2-1.1,1.7-0.9s-0.7,0.6,0.2,0.7c0.8,0.1,1.6-0.7,2.1-0.3c0.4,0.4-0.2,1.1,0.4,1.1c0.6,0,0.3-0.5,0.8-0.4
	s-0.4,0.8,0.4,0.9c0.8,0.1,0.4-0.4,1.1-0.2s0.1,0.4,0.6,0.7c0.6,0.2,0.8-0.6,1.2-0.1s-0.3,0.7,0.4,1s0.6-0.1,1,0.1
	S48.1,22.9,48.1,22.9z"/>
<path class="st4" d="M34.8,63.9c0,0,6.5-15.5,5-14.8s-2.3,5.8-2.4,3.4c-0.1-2.4,4.7-15.3,3.1-13.5c-1.5,1.8-2.6,5.8-2.7,4.7
	s2.3-9.9,0.5-9.2s-2.1,3.9-2.5,2.3S34,31.7,34,33.6c0,1.9,1,7.1-0.7,5.6s1-13.7-2.3-12.6s-4,4.7-5.6,4c-1.6-0.7,1.4-1.8,0-4.1
	s-2.2-0.7-2.3-2.9c-0.1-2.2,1.1-3.3,0-3.7c-1.1-0.3-0.2-4.2-1.1-4.2s-0.4-2.6-1.5-2.2c-1.1,0.5-2.7,0.9-2.4,2.7
	c0.2,1.8,1.3,4.9-0.1,4.2s-2.9-3.1-2.7-1s-0.6,1.8,0,3c0.6,1.1,0-0.9,0,1.3s-0.6,3.5,0,4.5s2,4,0.8,4s-3.1-1.3-2.7,0
	c0.3,1.3,6.4,6,5.3,6.4S14,34.8,14,37.2c0,2.4,6.8,10,4,7.6s-6.7-6.4-5.2-2.9s9.7,12.1,7.3,10.4s-7.3-7.7-6.4-5.3
	c0.9,2.4,7.9,15.7,7.9,15.7l6,4L34.8,63.9z"/>
<path class="st3" d="M5.9,70.2c0-0.1-0.1-0.3-0.1-0.4c-0.3-1-1.3-4.6-0.5-6.7c0.9-2.5,2.1-2,2.2-4.3s-0.3-3.5,0.7-4.9
	s2.2-1.6,3.8-1.5c1.7,0.1,1.5,0.6,3,0.5s2.7-1,3.1-1s0.9-0.4,1.8,0.5s0.2,2.5,0,4.3s0.3,2-0.9,3.1c-1.2,1.2-3,1.5-3.4,2
	c-0.5,0.5,0.2,0.1-0.9,1.1c-1,1-1.8,0.8-2.8,1.6c-1,0.9,0.2,1.1-1,2.3c-1.2,1.2-0.3,0.9-1.5,2.1s-2.6,1.7-3,1.7
	C6.1,70.8,6,70.4,5.9,70.2z"/>
<path class="st4" d="M11.8,60.3c-0.7,1.3-2.2,2-3.6,1.4c-0.5-0.2-0.9-0.6-1-1.2c-0.1-1.7,0.2-2.9-0.7-2.9c-0.9-0.1-2.4,0.8-1.8,0
	s1.9-0.6,0.6-0.8S3,55.4,3.8,55.2s2.6,0.7,2.7,0.4s-0.2-1.8,0.2-1.7C7,53.9,7,55.7,7.6,56s4.9,0.1,4.9,2
	C12.5,58.8,12.2,59.6,11.8,60.3z"/>
<path class="st4" d="M11.2,55c0.6-0.6,0.6-1.6,0-2.2c-0.7-0.7-1.8-1.9-1.6-2.4c0.2-0.8,2.3,0.6,2,0c-0.2-0.6-2.2-1.4-2.1-1.8
	c0.2-0.4,1.8-2,0.8-1.7c-1.1,0.3-0.9,2-2.1,1.9C7,48.6,5,48,5.3,48.5s2.5,0.3,2.4,0.9c-0.1,0.6-2.3,2.9-1.9,3.1
	c0.4,0.2,2.4-2.6,2.4-1.7c-0.1,0.9-1.1,4,0.1,4.6C9.1,55.9,10.4,55.8,11.2,55z"/>
<path class="st4" d="M16.1,52.4c0,1.5-2,2.1-2.8,0.8c-0.2-0.4-0.4-0.9-0.2-1.4c0.6-2.1,1.7-1.1,1.4-2.4S12,49,12.7,48.5
	s1.9-0.1,2-0.5s-1.9-0.9-1.1-0.9s2.5,1.9,2.4,1.2c-0.1-0.7,1.7-2.2,1.8-1.7c0.1,0.5-2,2.7-1.6,2.8c0.3,0.1,2.1-1,1.6-0.3
	s-1.6-0.1-1.7,1C16.1,50.6,16.1,51.5,16.1,52.4z"/>
<path class="st4" d="M7.7,66.5c0,0-1.5,1.2-3.1-0.9c-1.7-2.1-1.4-4.1-2.1-4s-1.9,1-1.6,0.2s2.9-1.2,1.9-1.2s-2.8-0.8-2-1.1
	s3.9,1.3,3.3,0.3s-1.3-3.2-0.6-2.9s1.3,4.4,1.8,3.3c0.5-1.1,1.8-2.3,1.5-1.3s-0.9,1.5-0.9,1.9c0,0.3,3.5,0.9,3.3,3.1
	C9,66.1,7.7,66.5,7.7,66.5z"/>
<path class="st3" d="M23.8,66.9c0,0-7.6-12.7-5.4-12s5.4,9.3,5.1,6s-2.3-12.1-1-10s2.7,10.8,2.7,4.4s-1-14.9,0-12.6
	s1.7,13.6,1.7,8.2s-0.4-16.7,0.6-15.2s1.6,14.1,1.6,9.6s0.5-8.8,1.2-6.8s-0.6,19.8,1,17.3c1.6-2.5,1.1-15,2.1-11.9s0.3,19,1.2,15.2
	c0.9-3.9-0.4-17.5,0.7-14.6c1.1,2.9,0.4,17.9,0.4,17.9s-4,9.7-6.2,10.1S23.8,66.9,23.8,66.9z"/>
<path class="st4" d="M28.9,82.4c0,0,0.4-1.1,0-2.2c-0.4-1.2-1.6-5.8-1.6-6.3s3.2-5.5,8.9-4.1s5.8,5.8,5.8,7.5s0.8,3.3-0.7,4.9
	C39.8,83.7,34.8,86.4,28.9,82.4z"/>
<path class="st4" d="M44.1,22c0,0-1-5.1-0.4-6.2s2-0.2,2-1.4s0.2-1.9,0.4-1.9s1.5,0.4,1.5-0.6c0.1-1,0.6-3,0.3-3.5s-0.3-1.1-0.3-2
	s-0.4-3,0.8-4.5s2.5-1.1,2.8-1.2s1.1,0,2,0s2.1,1.9,1.7,2.8c-0.4,0.9-1.5,1.7-1.5,1.7s1.9-1.9,1.9,0s-1.8,5.4-0.9,6.6
	s0.4,2.9,0.4,2.9s1,0.8,2,0.7s0.5-1,1-0.1c0.6,0.9-0.6,1.5,0.7,1.5c1.3,0.1,1.6,1.2,1.7,2.2c0.1,1,1.2-0.1,1.2,1.9s0.1,9.7-0.3,9.7
	s-1.9-1.3-1.9,0s0.6-0.1,0.6,2s1.1,2.3-0.8,2.6c-1.9,0.3-1.3-1.5-3.8-1.2s-0.9,1.7-3.4,1.6c-2.5-0.1-1.6-2.8-3.1-3s1.2-4.1-0.3-5.5
	s-3.8-0.1-4.3-1.5C43.6,24.5,44.1,22,44.1,22z"/>
<path class="st5" d="M53.3-153.4c0,0,10.9-4.3,5.9-5.2S46.8-158,48.6-156S53.3-153.4,53.3-153.4z"/>
<path class="st3" d="M55,33.3c0,0-0.1-2.4,0.7-2.4s1.4-0.9,1.4-0.9s-1.5,0.9-1.5,0s0.7-2.9,1.5-2.9c0.7,0,1.7-0.9,0.7-0.7
	c-1,0.1-1,0.5-0.7-0.7c0.2-1.2,0.9,0.4,1.5-0.6s0.3-0.5,0-1s-0.1-0.6-1.1-0.9c-0.9-0.3-0.7-0.7-0.6-1.9c0.1-1.1,1.3-0.9,1.6-1.7
	c0.3-0.8,1-1.8,0.4-1.2c-0.6,0.6-0.4,1.1-1.9,1.1c-1.4-0.1-2.2-1.8-1.3-1.8s2,0.6,1.6,0s-1.4-1.1-1.9-0.6c-0.4,0.5-1.3,0.6-1.7,0.6
	s3.5-3,1.9-2.2c-1.6,0.7-3.2,2.6-3.6,1.8c-0.4-0.7,0.9-1.9,1.3-2.9s0.6-2.1,0.2-2.2c-0.4-0.1-0.1-0.8-0.3-2.1
	c-0.2-1.2,0.7,1.4-0.6,1.4S49,8.6,49.1,10s3.7,1.3,3.5,2.6s0.8,1.3-0.3,1.9c-1.1,0.6-1.8,0.8-1.9,1.9c0,1.1,0.6,1.1-0.3,1.1
	s-0.4,0.8,0,0.9s1,1.2,0.3,1.7c-0.6,0.5-2.1,0.2-1.9,1.1s0.4,0.7,1.1,1s-0.2,1.7,0.5,2.1s0.6-0.2,0.7,0.4c0.1,0.6,0.3-0.4,1.2-0.4
	s1.1-0.6,1.1,0.4s1.6,2.2,0,2.8s-3.2,1.4-2.3,1.6c0.9,0.1,0.7-0.2,1.8,0s1.2,1.7,1.5,1.8s0.3-1,0.3-1.4s-1.2,0.6-0.6-0.7
	s1.4-1,1-1.7s-1-2-0.5-2s1.3,1.4,1.3,0.4s0.2-1-0.6-1c-0.9,0-0.5-0.7-1.2-0.8S52.7,23,51.7,23s0.2-0.8,0-1.6
	c-0.2-0.8-0.5-2.1,0.3-2.3c0.8-0.2,1.3,0.9,0.8-0.2s0.2-0.3,0.6-0.8c0.4-0.6,1.4,0.4,1,1s-0.4,0.7,0.2,0.7s1.3-0.9,1.2,0.2
	s-0.6,0.5-0.2,1.4c0.4,0.9,0.6,1.9,0.4,2.1s1.1,1,1.1,1s-1.2,1-1.3,1.8s0.2,1.4-0.2,2s-1.4,2.1-1.4,3.4c0,1.4-0.9,1.8,0,2.1
	C55.2,34.3,55,33.3,55,33.3z"/>
<path class="st4" d="M77.3,32.3c-0.4-0.1-0.7-0.2-1.1-0.2c-0.3,0-0.7-0.2-0.9-0.8c-0.5-1-0.3-1.8-1.8-1.8s-1.4,0.7-2.3,0.6
	s-1.2-0.9-2-0.6c-0.7,0.3-0.4,0.9-1.6,0.9s-1.2-0.8-3.1-0.6c-2,0.2-2,1.8-3,2.8c-1,0.9-1.7,2.1-1,2.1s0.8-0.4,1.4,0.3
	s0.7,1.5,1.4,1.9c0.7,0.4,1.5-1.1,2.5-1s2.1,1,2.6,1c0.5,0.1,1.7,3.6,3.5,2.5c1.8-1.2,1.4,1.5,3.3,0.2c2-1.3,3.9-1.9,2.8-2.8
	c-1.2-0.9,1.7-4.3,0.7-4.3C78.2,32.5,77.7,32.4,77.3,32.3z"/>
<path class="st4" d="M83.3,54.3c0,0,2.7-3,0.5-3c-2.2-0.1-2.7,0-2.7,0s2-1.5,0.6-2.2s-3.1,0.5-3.1,0.5s0.2-0.4-1.8-0.4s-3,1.4-3,2.4
	s0.9,1.1,0.9,1.1s-1-0.4-0.9,0.7c0.1,1.1,0.4,2.6,1,2.6s0.9-0.5,0.9-0.5s-1.1,0.7,0.6,0.7s3.9-0.1,4.1-1.2c0.1-1.2,0.1-1.2,0.1-1.2
	S81.9,55.2,83.3,54.3z"/>
</svg>
