<?xml version="1.0" encoding="utf-8"?>
<!-- Generator: Adobe Illustrator 21.1.0, SVG Export Plug-In . SVG Version: 6.00 Build 0)  -->
<svg version="1.1" id="Layer_1" xmlns="http://www.w3.org/2000/svg" xmlns:xlink="http://www.w3.org/1999/xlink" x="0px" y="0px"
	 viewBox="0 0 81.9 100" style="enable-background:new 0 0 81.9 100;" xml:space="preserve">
<style type="text/css">
	.st0{fill:#A55D55;}
	.st1{fill:#D68072;}
	.st2{fill:#7C4541;}
	.st3{fill:#ED9E8E;}
	.st4{fill:#ADEA8C;}
	.st5{opacity:0.56;fill:#80AF66;enable-background:new    ;}
</style>
<g>
	<path class="st0" d="M13.7,40.8c0.1,0,0.2,0.1,0.2,0.1l0,0C13.9,40.9,13.8,40.9,13.7,40.8z"/>
	<path class="st0" d="M3.6,30.9C3.6,30.8,3.6,30.8,3.6,30.9C3.6,30.8,3.6,30.8,3.6,30.9z"/>
	<path class="st0" d="M14.4,40.8c-0.1,0-0.3,0-0.4,0.1c0.2,0.1,0.3,0.1,0.5,0.2C14.6,41,14.6,40.8,14.4,40.8z"/>
	<path class="st0" d="M12.2,40.2c0.4,0.2,0.9,0.4,1.5,0.6C12.6,40.4,11.6,39.9,12.2,40.2z"/>
	<path class="st0" d="M14.9,41.3c-0.1-0.1-0.3-0.1-0.5-0.2l0,0C14.6,41.2,14.8,41.3,14.9,41.3z"/>
	<path class="st0" d="M23.7,68c0-0.6-2.5-9.8-2.5-11.4c0-1.6,1.8-4.4,0.7-4c-1.1,0.4-2.3,0.9-2.3,0.4s7.7-2.1,5-2.8
		c-2.7-0.6-5.5,3-5.3,1.2s5.6-6.5,3.6-5.5s-3.2,4.1-3,2.5c0.3-1.6,3.2-3.5,2.4-3.7c-0.8-0.1-2.8,0.5-2.8,0s0.2-2.4,0.2-2.4
		s4.9-3,3.4-2.5s-4.2,2.4-4.3,2.1c-0.1-0.3,2.1-2.3,1.9-3.4c-0.3-1-1.9-0.7-1.3-1.1c0.6-0.5,6-3.1,3.7-2.7c-2.3,0.4-3.9,1.3-3.9,1.3
		s1.3-2.9,1.7-2.8c0.4,0.1,3.2-1.4,2.6-2c-0.5-0.5,2.8-0.2,2.2-0.8c-0.6-0.6-2.6-0.3-2.6-0.3l0.5-2.1l-1.4,2c0,0-1.3-4.8-1.8-3.3
		s1.2,3.7,0.9,3.7c-0.3,0-1.3,1.4-1.3,1.8c0,0.4-3.2-2.6-2.7-1.7s2,2.4,1.5,2.8c-0.5,0.4-2.1-3-3.8-3c0,0,2.3,1,1.8,2.4
		c-0.5,1.4-1.2-0.7-1,0.9c0.1,1.5-0.2,1.7-0.1,2.8s1,3,0.5,3s-3.3-1.5-3.3-1.5s3.5,3.2,3.4,3.6c0,0.1-0.6,0-1.2-0.3
		c0.9,0.4,1.5,0.9,1.1,1.6c-0.4,0.8-1.9,0.3-3.2,0c0.7-0.7,1.4-1.4,1.6-1.8c-0.3,0.1-0.5,0-0.6,0c-0.5,0.3-1.1,1.1-1.7,1.9
		c-0.7-0.1-1.3-0.1-1.3,0.5c0,0.3,0.2,0.4,0.4,0.6c-0.6,0.7-1.1,1.2-1.2,0.8C9.9,43.9,9.5,43.7,10,43s2.4-2.4,1.5-2.3
		c-0.9,0.1-1.6,2-1.7,1.5c-0.1-0.4-0.8-0.7-0.6-1.3c0.1-0.2,0.2-0.4,0.6-0.7c1.4-1.1,3-2.1,2.9-3.2c-0.1-1.2,3.1-3.4,1.2-3
		c-1.8,0.4-3.7,2.5-3.5,1.3s0-2.4,0.8-3s2.1-1.1,2.2-1.9c0-0.8,2.8-1.3,1.7-1.7C14,28.3,12,29.5,12,29.5s0.3-2,0.1-1.8
		c-0.2,0.3-0.6,2.3-0.9,1.9c-0.3-0.3-2.1-2.9-2.7-2s1.7,1.8,1.6,2.9c0,1.1,1,2.3-0.3,2.2c-1.3,0-2.4-0.7-2.2-0.4
		c0.2,0.3,1.6,0.2,1.9,1.1C9,33.2,8,33,7.4,32.6c-0.8-0.6-0.8-1.7-0.8-1.7L6.3,32l-0.1,1.8c0,0-1.2-1.6-1.8-2.2
		C4,31.2,3.8,31,3.7,30.9c0.2,0.3,0.9,1.2,1.2,2.1c0.3,1,1,2,1,2v0.5c0,0-1.1-0.1-1.1,0.5c0,0.7-1.2,0.1-1.3,0.3c-0.1,0.3,2,1,2,2
		s-0.3,4.2-0.3,4.2s-0.2,0-0.8-1.4c-0.6-1.5-2.7-3-2.7-2.6s3,4.5,3.4,4.6c0.4,0,0.4,4.4-0.1,4.1c-0.5-0.3-1,0.3-1.2-0.6
		c-0.2-0.9-1-0.6-0.8-0.2c0.2,0.5,1.5,1.5,1.9,1.5s0.2,2.6,0.2,2.6s-1.9-2.8-3.7-2.1S0.6,50.6,1.6,51s1.5,0.4,1.5,0.6
		c0,0.1-1.3,0.7-0.9,1.4s0.8,0.8,1.2,1.8s2.8,1,2.8,1s-2.3,0.7-1.4,0.7s2-0.6,2-0.1s1.7,2.9,3.3,3.7c1.7,0.8,1.7,0.8,1.7,0.8
		s-3.2-0.1-3.6,1c-0.4,1.1,0.5,2,1.6,1.8s1.3,1.4,2.7,1.4s3.1-0.1,3.1-0.1s-0.6,1,0,1s5.6,3.9,7,3.9s1.3,0.2,1.3,0.2l2.9,3.4
		l0.5-1.5C27.3,71.6,23.7,68.6,23.7,68z M18.1,52c0,0,0.7,1-0.4,1c-0.7,0-0.9-1.1-1-1.8C17.7,51.5,18.1,52,18.1,52z M16.7,46
		c-0.4,2.5-1.5,1.7-1.5,2.5s-3.4,1.1-2.9,1.5c0.3,0.2-0.1,0.7-0.5,1.1c-0.2-0.6-0.3-1.3-0.2-1.9c0.3-1.4,1.9-1.8,1.7-2.1
		c-0.2-0.2-1.8,1.5-1.6,0.4s1.1-3.1,0.1-3.2c-0.2,0-0.2-0.2,0-0.5C13.5,44.5,17,44.2,16.7,46z M10.2,33.4L10.2,33.4L10.2,33.4z
		 M8.7,33.8c0.4-0.2,0.7-0.3,0.9-0.4c0,0.1,0,0.2,0,0.3c0,0.5,0,1.4,0.1,2.3C9.1,35.2,8.1,34.1,8.7,33.8z M6.1,38.8
		c0.5-1.1,2.2-2.4,1.8-3.1c-0.3-0.6,1.1,0.8,1.9,1.2c0,1.4,0,2.6-0.4,2.9c-0.5,0.4-2.8,1.6-3.4,2.3C5.9,40.5,5.9,39.2,6.1,38.8z
		 M5.9,42.5L5.9,42.5c0.9,0.1,0.5,1,0,1.8C6,43.7,6,43.1,5.9,42.5z M6.4,50.7c-0.5,0.8-0.7,0.7-0.7,0.7l0.5-3.3c0,0,0-0.3-0.1-0.8
		c0.7-1.2,1.6-2.6,1.6-0.9c0,1.4-0.2,2.3-0.1,2.8H7.5C7.3,49,7,48.9,6.7,49C6,49.4,6.9,50,6.4,50.7z M10.8,59.9
		c-1.7-1.1-3.5-2.3-3.5-3.1s3-2.5,1.8-2.1S7,56.2,7,55.5s1.7-3,0.6-3.3c-0.7-0.2,0.7-0.5,1.7-0.8c0.1,0,0.1,0.1,0.2,0.1
		C10,51.8,11,52.1,11,53s0,1.4,0,1.4s-1,0.1-1,0.6s-2.3,0.6-1.2,1.4c1.1,0.8,2.2,1.3,3.2,2.3c1.1,1,1.3,2.4,1.3,2.4
		S12.5,61,10.8,59.9z M13.7,59c0,0-1.1-0.9-1.3-1.4s0.4-1.7,0.7-1.9s1,2.1,1,2.1L13.7,59z M13.4,54c0-0.8-0.2-0.4-0.5-0.8
		c-0.1-0.2-0.5-0.8-0.9-1.6c1-0.3,2.5-0.8,3.6-0.7c0.1,0,0.1,0,0.2,0l-0.5,5.7c-0.3,0.1-0.5,0.3-0.7,0.5
		C13.9,57.9,13.4,54.8,13.4,54z M16.2,60.8c0,0,1.8-2.5,1.8-3.2s0.2-1.1-0.6-1.3c-0.3,0-0.6,0-1,0l0.2-0.1v-3.4c0,0,0.7,1.1,1.8,1.1
		c1.1,0-1.2,0.3-0.8,1.6c0.3,0.8,1.2,0.3,1.8-0.2c-0.4,0.4-0.8,1.1-0.8,2.2c0,0.8,0.3,2.3,0.6,3.8c-1.1,0.4-2.4,1.5-2.4,1.5
		L16.2,60.8z M20.6,65.7l-2-2c0,0,0.6-0.4,1.1-0.9C20.1,64,20.4,65.1,20.6,65.7z M17.3,65.4l0.8-0.9l4.6,4.4
		C22.7,68.9,18.8,67.6,17.3,65.4z M22,67.2c-0.3-0.8-1.2-2.8-1.8-4.8c0.3-0.4,0.5-0.8,0.1-1c-0.1-0.1-0.3-0.1-0.4-0.1
		c-0.4-1.5-0.6-2.8-0.4-3.7c0.6-2.5,1-2,1-2s0,0.1,0.1,1.3c0.1,1.5,2.6,11.4,2.6,11.4L22,67.2z"/>
</g>
<path class="st0" d="M61.7,43.3c0,0,2.6-3.5,8-2.5c5.3,1,6.7,1.2,7.5-0.4c0.8-1.6,0.6-3.7,0.6-3.7s2,4.9,0.9,6.6s-9.6,3.6-12.7,7.1
	c-3.2,3.5-5.6,5.2-5.6,5.2L61.7,43.3z"/>
<path class="st1" d="M60.3,21.8c0,0,2.6,4,1.3,6.2c-1.3,2.3-2.3,4.6-2.3,4.6s2.2,0,2.2,2s1,10.2,1,10.2l-6.9-1.6l-2.6-9
	c0,0-0.2-7,0-7.3C53.2,26.5,60.3,21.8,60.3,21.8z"/>
<path class="st0" d="M60.8,44.5c0,0,0.9-7.9-0.4-11.9S59,28.5,59,28.5s-2.5,4.6-2.3,9.4C56.9,42.8,60.8,44.5,60.8,44.5z"/>
<path class="st0" d="M30.7,38.8c0,0-2.9-2.9-3.8-2.9s-2.2-2.5-2.2-2.5s9.7,4.9,10.5,4.1c0.8-0.8,2.3-2.3,1.8-3.4
	c-0.5-1.1-6.3-3.9-6.9-5.2c-0.7-1.3-2.9-3.3-3.9-3.3c-0.9,0,3.4-0.3,5.8-0.4c2.3-0.1,7.8,1.7,8.7,3s0.8,1.5,0.8,0.4
	c-0.1-1.1-2-3-2-4.4s2-6.6,2-9.5s1.2-11.5,1.9-12.2C44,1.7,43.5,1.7,44,3s6,13.4,6.2,16.4c0.3,3,0.3,3.3,0.3,3.3s0.8-3.1,6-3.9
	s11-7.9,11.1-7.5s1,2-1.3,4.9c-2.3,2.9-4.2,7.8-8.7,11.3s-7.1,6.8-7.1,6.8l-1.2,7.2L30.7,38.8z"/>
<path class="st1" d="M58.2,43c0,0,0.6-6.3-0.6-8.8c-1.2-2.5-6.3-9.4-7.7-10.7c-1.4-1.3-2-3.1-2-3.1s-5.2,10.7-2.8,18
	c0,0-0.1-2.4-3.1-5.5s-5.3-5.7-6.8-6c-1.5-0.4-1.2-0.4-1.2-0.4s1.1,1,1.5,4.3s1.9,6.9,2.3,7.6c0.4,0.7,6.4,4.8,6.4,4.8L58.2,43z"/>
<path class="st0" d="M57.7,41.7c0,0,0.4-4.4-2.6-9C52.2,28,48,21.3,48,22.3c0.1,1,9.2,14.4,8.7,16.3S49,24.1,48.9,25.3
	c-0.1,1.2,8.5,17.8,6.3,15.5s-6.8-15.5-7.1-14c-0.4,1.5,8.2,20.1,4.9,15.4s-5.4-14.8-5.7-13.1C47,30.8,52,40.3,49.9,40
	c-2.1-0.4-5-1.7-6-2.9S35,26,35.4,27.6c0.3,1.6,7,6.5,8,10.1s-6.7-8.9-6.4-7.4s5.6,9.9,5.6,9.9l13.2,6.1L57.7,41.7z"/>
<path class="st2" d="M68,63.3c0,0,0.5-7.3,0-8.1c-0.5-0.8,0.9,0.6,0.9,3.3s-1,4.8,0,2.7S72,48,72,45.7s-0.3-6.8,0-5.6s0.4,3.2,0,9.7
	s1.3-10.8,2-10.6c0.6,0.3-3.9,22-3.9,24.5c0,2.5,4.3-21.6,5.7-22.8c1.4-1.2-4.9,21.3-4.9,24.2c0,2.9,6-21.7,6-20.6
	c0,1.1-4.6,17.3-5.1,20.8c-0.5,3.5,2.1-6.2,2.8-9.2s2.1-7.4,2.8-7.5c0.8-0.1-0.8,1.6-0.9,2.9c-0.1,1.3-3,9.1-3,13.8S71,80.2,71,80.2
	l-2.1-4.8L68,63.3z"/>
<path class="st3" d="M77.2,86.7c-0.6-0.7-1.7-0.5-1.7-1.6s0.3-1.6,0-2.4s-0.4-0.8-0.7-1.6c-0.2-0.9-1.8-1.6-2.4-1.6
	s-0.6-0.3-0.6-0.7c0-0.4-0.1-0.2-0.8-0.5c-0.7-0.2,0.3-1.3,0-2.7c-0.3-1.4,0.1-1.4,0.5-2.8s-0.8-4.7-0.5-4.9c0.3-0.2,0.6-1.5,0-1.8
	s-2.4-1-3.5-1s-1.8,0.4-2-0.4c-0.2-0.8,0.7-0.9,0.7-1.7s-1.3-0.8-2.7-1c-1.4-0.2-1.1-1.6-1.3-2.5c-0.1-0.9,0.5-0.3,1.4-1.2
	s-0.3-2-0.3-3s0.8-0.7,1.2-2c0.5-1.4,0.2-1.2,0.3-2.3c0.1-1.1-0.7-0.6-0.7-1.3c-0.1-0.7,0.2-0.6,1.1-0.6s1.6-1.5,2.2-2.1
	c0.5-0.6-0.4-0.9-0.4-1.7s-0.3-0.6-0.9-1s-1.2-0.3-1.4-0.8c-0.3-0.5-2-1-3.3-1s-1.7-0.9-3.1-1.2c-1.4-0.3-3.5-0.9-4.3-0.9
	s-2.1-0.1-2.5-0.8s-1.5-0.9-2.7-1s0-1-0.6-1.3s-0.4-1.3-1.5-1.6s-5.6,1.8-6.6,1.7s-1.3-1.1-2.3-1.8s-1.2-1.6-1.7-2s-0.9-0.3-1.2-0.3
	s-0.7,0-0.4,1.3s-1,1.4-1.3,1.9s-2.4,0.9-3.6,1.1c-1.2,0.2-1.1,0.8-1.2,2s-1.1,0.9-1.7,1.4s-0.5,1.4-0.6,2c-0.2,0.7,0.1,1.6,0.4,2.5
	s0.2,1.1,0.3,2s1.9,1.6,2.2,1.8s-0.3,1-0.8,2.4s-1.4,2.5-0.5,2.4s1.4,1,1.3,1.4s0.2,1.5,0.5,1.7s-1.3,1.5-1.2,2
	c0.1,0.5,1.3,0.3,1.7,1.2c0.5,0.9-1.7,1.7-1.6,3.2c0.1,1.5-0.3,1.8-1.5,3.8s0,0.4,0,0.6s-0.5,0.6-0.6,1.4c-0.2,0.8,0.5,0.5,0,0.8
	s0,1,0,2.5s-0.5,0.2-1.4-0.2c-1-0.3-3.3-0.6-4.6-0.6c-1.3,0-0.3,0.9-0.8,1.5s-0.6,1.5-0.6,2.7S18,77.9,18,78.7
	c0,0.8,1.2,0.8,1.8,1.8s0,0-1.2,0.1s-0.1,5.1-0.1,6.1s-1.7,2.4-1.7,3.9s1.1,1.8,2.7,1.8c0.8,0,1.3,0.7,1.7,1.3
	c0.4,0.6,0.5,1.4,0.9,1.8c0.2,0.3,0.5,0.5,1,0.6C24,96.3,25,96,26,95.9c0.9-0.1,2.1-0.3,3.1-0.1c0.4,0.1,0.6,0.3,0.6,0.7
	c0,0.3,0.2,0.3,0.4,0.3c0.9,0,1.2,0.6,3,0.8c1.8,0.3,3-0.5,4-1.2c1.1-0.7,0.8,0,3.1,1.1s2.2-1.1,2.4,0.2s1.1,1.4,2.2,2
	c1.1,0.6,5-0.7,6.6-0.7c1.5,0,0.4-1.3,1.6-1.3s1.8,0,3.7,0.2s6.1,0,7.2,0s0.2-0.5,1-1.8c0.8-1.2,0.7-0.1,2-1
	c1.4-0.9,1.6,0.3,3.6,0.3s1.6-0.8,3.1-1.1c1.6-0.3,0.4-0.1,1.3-1.1s0.6-0.6,1.3-0.8c0.7-0.2,0.6-1,0.7-2.3c0.1-1.2,0.3-0.3,0.7-1.4
	S77.8,87.4,77.2,86.7z M51.1,63.6c-0.1,0.5-1.4,0.9-1.2,1.7c0.2,0.8-0.9,0.2-0.9,1.7s-0.7,2.2-0.7,3.2c0,0.9-1.3,2.4-1.9,2.3
	s0.1-0.5,0.1-0.5s0.8-0.3-0.8-0.4c-1.5-0.1-3.9-1-5-1.8S38.8,69,38.8,69s1.9-3,0.8-3.4c-1.1-0.4-0.7-0.6-0.8-1s1-1.5,0.4-2.9
	c-0.5-1.4-0.6-0.6-1-1.3s-1-0.6,0-1s1.5-0.8,1.8-0.8s0.3,0.6,0.3,0s-0.4-0.6,0.1-1.1c0.4-0.5,1-1.8,0.3-2.1s-1.2-0.3-1-1.1
	s-0.4-3.1,0.3-3.6s2.9-0.5,3.8-0.5c0.9,0,1.9,0.2,2.5,0.2c0.5,0,3.8,4.6,4.1,4.6s0.7-0.5,0.7-0.2s-0.1,0.9-0.9,1.1
	c-0.8,0.3-1.4,0.3-1.4,0.9s-0.6,0.5-0.6,1.1s0.3,1.3,0,1.8s-0.7,0.6-0.3,1.1s1.9,1.2,1.9,1.9c0.1,0.7,0.2,1.2,0.7,0.9
	C51,63.3,51.2,63.1,51.1,63.6z"/>
<path class="st1" d="M32.6,57.6c0,0-2.3,0.1-2,0.8s2.7,0.5,2.7,0.7s0.6,0.7-0.9,0.7S29.6,60,30.6,60s2.9,0.8,3.3,0s-2.4-1.7-1.8-1.8
	c0.6-0.1,2.1,0.3,1.7-0.1C33.4,57.7,32.6,57.6,32.6,57.6z"/>
<path class="st1" d="M32.1,56.2c0,0-0.5,0-0.4,0.1s0.6,0.2-0.2,0.2c-0.8,0.1-0.4-0.3-0.9-0.3s-1.7-0.2-1.3-0.4s1.7,0.1,2-0.2
	s0.6-0.6,0.7-0.5c0.1,0.1,0.5,0.7,0.6,0.7C33,55.9,32.9,56.3,32.1,56.2z"/>
<path class="st1" d="M35.6,42.5c0,0-0.3-0.2-1,0c-0.6,0.2-1.4,0.3-2.1,0c-0.7-0.3-0.2-0.3,0.5-0.7s0.7-0.5,0.2-0.6
	c-0.4-0.1-0.1,0,1-0.1s1.6-0.5,0.9-0.5c-0.8,0-2-0.2-0.8-0.3c1.1,0,3.1-0.5,2.3-0.5s-2.6-0.4-1.5-0.4c1.2,0,2.2-1.3,1.7-1.2
	c-0.5,0-1.9,1.4-3.5,1.4c-1.6,0-1.6-0.5-1.3-0.6c0.3-0.1-0.9,0.8-1.5,0.5s0.8-0.7,1.8-1.1c1-0.4,2.5-0.7,2.4-0.4
	c-0.1,0.4-1.8,0.2-1.4,0.5s3.1-1.3,2.9-0.8s2.5-0.7,2.6-0.3c0,0.4-1.3,0-0.8,0.5s2.9,0.1,1.8,0.4c-1.1,0.3-3.1,0-1.9,0.4
	s2.9-0.3,2.3,0.1s-2,0.4-1.3,0.9c0.7,0.4,3.7,0,3.5,0.3c-0.1,0.3-1.6,0.1-1.4,0.4c0.3,0.3,1.4-0.2,1.1,0.2c-0.4,0.4-0.9,0-1.3,0.4
	s1.1,0,0.7,0.4s-1.4,0-1.4,0.5c0.1,0.6,1.6,0.2,1,0.6s-1.5,0.4-1.2,0.6c0.3,0.2,1.3,0.3,0.6,0.5s-0.8,1.4-2.3,1.1
	c-1.5-0.4,0.2-0.1-0.4-0.6c-0.6-0.4-2.3-0.3-1.8-0.5c0.5-0.1,2.1-0.4,1.5-0.5c-0.6,0-2.1,0.5-1.6,0.1C36.1,42.7,35.6,42.5,35.6,42.5
	z"/>
<path class="st1" d="M46,48.6c0,0,9-1.5,5.1-1.1S44.9,48.5,46,48.6z"/>
<path class="st1" d="M56.1,45.2c0,0-1.2,0.9-1.6,0.8c-0.4-0.1-2.6-0.9-3-0.6s2.7,1.9,2.4,1.5s-1.2-1-0.8-0.9s2.1,1.2,2.5,0.4
	C56.2,45.6,56.5,45.2,56.1,45.2z"/>
<path class="st1" d="M55.5,43.2c0,0,2.7-0.8,2.7-1.1s-0.1-0.8-0.5-0.5C57.2,41.9,54.1,43.5,55.5,43.2z"/>
<path class="st1" d="M53.5,49c0,0,1.3-0.4,1.4-0.8c0.1-0.4,2.7-0.1,4.7-0.5s6.5-0.9,6.3-0.3c-0.2,0.6-0.8,0.4-0.9,0.7
	s-0.4,0.4-0.4,0s0.5-0.5,0-0.6s-4.8,0.9-6.7,1c-2,0-2.1-0.3-2.8,0.2s-0.8,1-0.9,0.8s-2.2,0.2-1.5-0.1C53.5,49,53.5,49,53.5,49z"/>
<path class="st1" d="M56.6,49.8c0.2,0.2,0.5,0.1,0.5-0.2c0-0.1-0.1-0.2-0.1-0.2c-0.3,0,1.7-0.3,1.5,0c-0.3,0.3-0.8,0.5-0.7,0.6
	s1.8-1.1,2.1-0.9c0.3,0.3-0.9,0.5,0,0.6c0.9,0,2.6-1.6,2.7-1.1s-0.6,0.9,0.1,0.8c0.7,0,1.2,0.1,0.9,0.2c-0.2,0.2-1.6,0-1.5,0.3
	c0.2,0.3,2.3-0.2,1.8,0.2s-1.2,0.5-0.8,0.5s1.6-0.4,1.2-0.2c-0.4,0.3-4.6,2.7-4.2,2s2.1-1.2,1.4-1.1c-0.7,0.1-1.8,0.8-1.7,0.4
	c0.1-0.4,1.5-0.5,0.6-0.5s-1.4,0.4-1.6,0.2c-0.2-0.2,1.2-0.4,0.7-0.5c-0.6-0.1-3.2,0.7-3.1,1.3s2.7,0.1,1.8,0.3
	c-0.9,0.3-2.1-0.5-1.7,0.2c0.5,0.7,4,0.1,3.2,0.4c-0.8,0.3-3-0.3-3.1,0.4c-0.1,0.6,2.4,0.8,3,0.6s1.1-0.4,1.6-0.4s0.5-0.6,1.1-0.6
	s0.5,0-0.1,0.3s-0.3,0.9-1.2,0.9s-3.2-0.2-3.3,0.2s2.8,0.2,2.1,0.4s-2.1,0.1-2.6,0.3c-0.5,0.3-5.6,0.5-4.6,0.2s3-0.3,2.4-0.5
	c-0.5-0.2-3.8-0.2-2.8-0.5s4-0.1,3.3-0.2c-0.6,0-4.2-0.4-3.3-0.5s2-0.4,1.6-0.4c-0.5,0-1.7,0-1.1-0.2c0.6-0.2,2-0.3,1.5-0.4
	C54,52.6,51,52.5,52,52.3s2-0.4,1.6-0.6c-0.4-0.2-4.9-0.3-3.3-0.5c1.5-0.2,5.6-0.4,5.1-0.4s-2.3-0.2-1.7-0.3s3.1-0.2,2.5-0.3
	C55.6,50.1,56.3,49.5,56.6,49.8L56.6,49.8z"/>
<g>
	<path class="st1" d="M49.9,61.8c0.1,0.1,0.5,0.1,0.9,0.2C50.2,61.9,49.8,61.7,49.9,61.8z"/>
	<path class="st1" d="M50.9,62L50.9,62C50.8,62,50.9,62,50.9,62z"/>
	<path class="st1" d="M60,66.8c-0.1,0.2-0.1,0.3,0,0.5c0.4,0.8,1.9,0.1,2.7,0s-2.8,1-3.8,1.7s2.5-0.5,3.5-0.5
		c1.1,0.1-1.7,0.7-2.4,1.3s1.7,0.1,2.3,0.1s-6.1,1.6-7,1.2c-1-0.4,1.8-0.4,3.3-1S56,70.3,55,69.9c-1-0.5,3.9-1.2,4.1-1.9
		c0.2-0.7-1.4,0-2-0.2s1.4-0.4,1.4-0.7s-4.1,0.3-5.4,0c-1.3-0.3,3.3-0.4,4.6-0.8s-2.7-0.6-3.4-0.7c-0.7-0.2,1.9-0.2,2.2-0.5
		s-2.3-0.1-3-0.2c-0.6-0.2,1.7-0.2,3-0.4c1.3-0.2-4.1,0.1-4.5-0.3c-0.3-0.3,3.7-0.5,4.5-0.5c0.1,0,0.2,0,0.3-0.1
		c0.2-0.2-0.1-0.5-1.2-0.3c-1.3,0.2,2.2-1.3,1.8-0.6c-0.4,0.6,0.4,0.9,1,0.9s-0.9,0.2-1.6,0.5c-0.8,0.3,1.1,0.3,0.5,0.7
		c-0.6,0.4,1.3,0,2.2,0.1s-0.6,0.5-1.9,0.6c-1.3,0.1,1.6,0.7,2.7,0.8c0.6,0,0.3,0.2-0.1,0.4c1.2-0.2,3.8-0.1,3.5-0.5
		c-0.4-0.5-3.4,0-3.8-0.3c-0.4-0.3,2-0.8,2.6-1.2c0.6-0.4-1.9,0.2-2.3,0.1c-0.4-0.1,1-0.4,1.8-0.5s-3.5,0.2-3.7-0.2
		c-0.2-0.4,2.8-1,3.4-1.3c0.5-0.3-3.1,0.5-3.7,0.4c-0.6-0.1,2.3-1.5,4-3.4s-2.2,1.4-3.1,1.9c-0.9,0.5,2.7-2.1,3-2.6
		s-5.6,3.6-6.4,3.7c-0.8,0.2,1.2-0.9,1.5-1.3c0.4-0.4-1.7,0.1-2.1-0.1c-0.4-0.1,1.5-0.4,2.4-0.9c0.8-0.4-4.1,1.1-5.3,1.6
		C51.8,62,51.3,62,50.9,62c0.3,0,0.7,0.1,1,0.2c0.7,0.2,2.4-0.5,3.3-0.5s-2,1-2.1,1.4s1.9-0.4,2.1-0.3c0.2,0.2-1.6,0.4-2.8,0.6
		c-0.6,0.1-1,0.8-1.2,1.5C51,65.4,51.4,66,51.9,66c0.6,0,1.4,0.1,1.8,0.3c0.9,0.4-3.1,0.3-3.7,0.4c-0.6,0.1,1.7,0.7,0.2,0.9
		c-1.5,0.3,3.9,0.1,5.2,0.3c1.2,0.2-2.4,0.1-3.1,0.4c-0.8,0.3,3.4,0.1,4.4,0.3c1,0.2-4.4,0.4-5.6,0.9s2,0.1,2.8,0.6
		s-1.6,0.2-2.8,0.3c-1.2,0.1,1.8,0.2,2.7,0.5s-1.4,0.2-2.5,0.3c-1.1,0.1,1.5,0.3,2.9,0.4s-2.1,0.2-3.2,0.6c-1.3,0.4,3.8-0.2,3,0.3
		s1.8-0.3,3.9-0.5c2.1-0.2-1.1,1.1-1.9,2c-0.8,0.9,4.9-1.1,6.4-2.6s-2.9,0.9-3.6,1c-0.7,0.1,5.2-2.8,5.5-3.3s-1.7,0.2-1.7-0.4
		s1.3-0.3,1.5-0.7s-0.9-0.1-1.2-0.3c-0.3-0.3,1.5-0.2,1.9-0.9C65.2,66.2,60.7,67.2,60,66.8z"/>
</g>
<g>
	<path class="st1" d="M23.4,86.7c0,0.1-0.1,0.1-0.1,0.2C23.4,86.8,23.4,86.9,23.4,86.7z"/>
	<path class="st1" d="M19.9,92.5C19.9,92.6,20,92.6,19.9,92.5C20,92.6,19.9,92.6,19.9,92.5z"/>
	<path class="st1" d="M42.1,44.5c-1.2,0-1.3,0.2-2.1,0.2s-1.3,0.6-2.3,1s-2.6,0-2.6,0s-3.7-0.1-4.1,0s-0.1,0.2-0.8,0.5
		c-0.7,0.3-0.1,0.4,0,0.9s1.1,0.2,1.9,0.2c0.7,0,0.1,0-0.1-0.4c-0.2-0.4,1.2-0.1,2.4-0.1s0.5,0.2,0.9,0.4c0.3,0.2,0.4-0.1,0.1-0.7
		c-0.3-0.6,0.4,0,1.5,0s1.2,0.9,1.7,1.4c0.5,0.4-0.2,0.2-1,0.1c-0.9,0-0.5-0.3-1.2-0.3s-0.7,0.1-1.3,0.1c-0.6,0.1-0.9,0.1-1.4,0.3
		s-1.4,0.5-1.4,0.7c0,0.3,0.7-0.1,1.7-0.4c1.1-0.4,2.1-0.4,2.4,0.2c0.3,0.6-0.1,0.2,0.8,0.1c0.9,0,0.4-0.1,1-0.1s0.8,1.1,1.1,1.3
		s-0.3,0.3-0.8,0.5c-0.4,0.2-0.5-0.3-0.8-0.6S37,50,36.9,50.1c-0.1,0.2-0.2,0-0.6,0c-0.4,0,0,0.1,0.4,0.6s0.2,0.3,0.2,1
		c0.1,0.8,0,0,0.8-0.2s0.3,0.2,0.9,0.3c0.6,0.2-0.5,0.3-1.1,0.9c-0.6,0.7,0.2,0.5,0.9,0.5c0.8,0-1.9,0.6-1.9,0.6s-0.5,1.3-1.1,1.3
		c-0.7,0-0.8,0.4-0.8,0.8s-0.1,0.5-0.4,0.9c-0.3,0.4,2.7,1.4,2.3,2c-0.3,0.6-0.4,0.1-0.4,0.8c0,0.6,0,0.6,0.5,0.8s0,0.7-0.4,1.5
		s-0.5,0.9-0.5,1.1c0,0.2-1,0.4-2.5,0.8c-1.5,0.4,2.3,0.3,2.3,0.5c-0.1,0.2-1.4,0.6-2.1,1c-0.7,0.5-1.2-0.3-2.2-0.2
		c-1,0.1,1.7,0.6,1.7,0.8c0,0.2-1.1,0-2-0.3s-1.8-1-1.8,0s-0.8,0.7-1.7,0.7c-0.8,0.1,1,0.8,1.9,0.8s1.7,0.5,3.3,1.3
		c1.6,0.8,2.5,0.1,2.8,0.2s-0.8,0.5-1.1,0.6c-0.3,0-0.6,0.7-0.6,1.7s-1.4,2.3-2.3,2.3c-1,0-0.2,0.5-0.1,1s2.6-0.5,2.6-0.2
		s-0.4,0.3-1.2,0.3s-0.3,0.6-0.7,1.1c-0.4,0.5-0.6,0.2-1.5,0.6s-1.2,0-2.3,0.1c-1.1,0.1,0,0-1.2,0.1s-0.3-0.1-0.4-1
		c-0.1-0.4,0.2-0.8,0.4-1c-0.4,0.2-0.7,0.2-1.1,0.7c-0.5,0.6-0.4,0.2-0.4,0.8c0,0.6,0.7,0.4,0.9,0.8c0.2,0.4-0.7,0.3-1.5-0.4
		c-0.8-0.7,0.4-1.7,0-2.3c-0.3-0.7-0.7,1.6-0.7,3s1,0.4,1.1,0.5s0.2,0.4-0.7,0.7c-0.8,0.3,0-0.3-0.5-0.3s-0.3,1.9,0,2.6
		s1,0.6,1.2,1.1s-0.3,0.5-0.7,0.5c-0.5,0,0,1.1-0.6,0.9c-0.5-0.2-0.4-0.8-0.8-0.5s0,1.7-0.2,1.9c-0.2,0.3,0,1.2,0.1,2.1
		c0,0.2,0,0.3,0,0.3c0.3-0.4,0.6-0.8,0.8-1.4c0.3-1,2-1.7,2.4-2.2c0.4-0.6,1.1-0.2,2.1-0.2s0.7-2.4,1.2-2.6s0.1-2.4,0.9-2.2
		c0.8,0.1,0.8-0.7,1.3-0.5c0.5,0.1,0.4,0.5,0.4-0.1c0-0.7,0.3-1.4,0.8-2.1s1-0.3,1.8-0.1c0.8,0.1-0.3,0.6-0.7,0.9s-0.6,1-0.6,1.6
		c0.1,0.6-0.2,1.5-0.1,2.8c0.2,1.3,0-0.9,0.6-1.6s1.5,0.6,1.7,0.7s0.8,0.3,2.6,0.2c1.9-0.1,1.2-0.8,1-1.2s-0.5,0.1-0.9,0.6
		s-0.6-0.4-1.4-0.5c-0.8-0.1-0.4,0.3-1.4,0.2c-1-0.1-1.5-0.5-0.9-1.4s1.2-0.4,2.3-0.5s1,0.9,2.5,0.9s0.6-1.7,1.9-3.7
		c1.3-2-0.1,1-0.5,2.2s0.6,1.7,1.8,2.2c1.2,0.4,2.2-4.1,1.9-5c-0.3-0.8-2.1-0.3-3.1-1.1c-1-0.8,1.3-0.1,2.6-0.3
		c1.2-0.2-3.5-0.1-3.1-1s-1.9-0.6-3-1s-0.5-1.5-0.9-1.9C37,67.8,39,67.4,39,66.7c0-0.7-0.8,0.1-1.7,0.1c-0.8,0,1-0.6,0.4-0.6
		s-1.4,0.8-1.1,0.3c0.3-0.4,2.2-1.2,2.1-1.3c-0.2-0.1,0-0.4-0.1-0.6s0.2-0.8,0.2-0.8c0.6-1.2,0.4-2,0.1-2.5c-0.2-0.5-0.6-0.6-0.9-1
		c-0.3-0.4-0.4-0.5-0.4-0.8s0.6-0.5,1.5-0.7s0.7-0.3,1-0.3s-0.4-0.5,0.1-1.1s0.6-1.4,0.6-1.8c0-0.4-0.6-0.3-1.2-0.8
		c-0.5-0.5-0.2-1.2-0.2-2.6c0-1.4,0.4-1.6,0.4-2.1c0-0.4-0.8-1.3-0.9-1.9c-0.1-0.5,0.9-0.1,1.2-0.3c0.3-0.3-1.3,0.1-1.4-0.5
		c-0.1-0.5,1.1-0.1,1.5-0.8s-1.7-0.1-2.4-0.5s0.9-0.4,2.6-0.6c1.6-0.1,3.3-0.5,4.5-0.4c0.3,0,0.5,0.1,0.6,0.2c0-0.1-0.1-0.1-0.1-0.2
		c-0.1-0.5,1.3-0.2,1.5-0.6C47.3,44.2,43.3,44.5,42.1,44.5z M38,71.4c1.4,0,1.4,1,1.4,1s-0.6,0.1-1.6,0.1c-1.1,0,3.3,0.1,3.1,0.6
		s-0.1,1.2,0.3,1.2c0.5,0-1.5,1.7-2.9,1.5c-1.4-0.1,0.6-0.3,1.5-0.5c0.9-0.1-1.3,0-3.3-0.2s1.8-0.3,3-0.9c1.2-0.5-2.2-0.8-3.2-0.8
		c-0.9,0-0.6,0-0.6-0.5s1.1-0.1,0.5-0.9s-1.1-0.6-0.5-1.5C36.5,69.8,36.6,71.4,38,71.4z"/>
	<path class="st1" d="M21.2,88.8c-0.1-0.1-0.1-0.1-0.2-0.2C21,88.8,21,88.9,21.2,88.8z"/>
	<path class="st1" d="M46.3,46.2c0.3,0-0.1-0.2-0.3-0.4C46.1,46,46.1,46.3,46.3,46.2z"/>
	<path class="st1" d="M46,45.8c-0.1-0.1-0.1-0.2-0.3-0.3C45.8,45.6,45.9,45.7,46,45.8z"/>
	<path class="st1" d="M27.2,74.3c0.1,0,0.1-0.1,0.2-0.1C27.6,74.1,27.4,74.1,27.2,74.3z"/>
	<path class="st1" d="M22.7,87.7c-0.7,1.3-0.1,0.4-1.2,1c-0.1,0.1-0.2,0.1-0.3,0.1c0.1,0.1,0.2,0.2,0.3,0.4c0.1,0.4-0.8,0.6-1.5,0.8
		c-0.7,0.3-0.6,2.6-0.6,2.6c0.4-0.1,0.5,0,0.5,0s-0.3-0.5,0.4-1.8c0.7-1.4,2.7-2.2,2.7-2.9c0-0.3,0.1-0.6,0.3-0.9
		C23.2,87,23,87.1,22.7,87.7z"/>
	<path class="st1" d="M20.5,86.1c-0.3-0.5,0.3-0.9,0.4-1.6s-1.1,1.2-0.9,1.7s0.8,0.9,0.8,1.6c0,0.3,0.1,0.6,0.3,0.7
		c0.1-0.3,0.4-0.9,0.5-1.4C21.6,86.3,20.7,86.5,20.5,86.1z"/>
</g>
<path class="st1" d="M46,78.6c0.2,0.2,0,0.5-0.3,0.5c-0.9-0.2-2-0.4-1.8,0c0.4,0.7-0.8,0.4-0.3,1.1s1.2,0.1,1.1,1.2
	c-0.1,1.1,0.9,2.6-0.2,2.6c-1.1,0-0.7,0.7-1.4,0.9c-0.8,0.2,0.4-3.1,0-2.6s-1.8,5-2.1,5s-2.6,2.5-2.6,1.1s0.5-1-0.3-1.7
	c-0.7-0.7-0.1-2-0.7-2.6s-0.1-0.2-1.2-1c-1.1-0.8-4.4-1.2-4.1-1.8c0.4-0.6,0.5-3.9,0.3-2.4c-0.3,1.5-2.8,3.1-2.8,5s1-0.1,1,1.5
	s0.1,1.7,0.7,2.2c0.5,0.5,0.7,0.8,0.7,0.8s-0.8-0.7-0.8-2s0-2.1-0.3-2.3c-0.3-0.1-0.8-1.1,0-1.3c0.8-0.2,1.7-1.1,3.5,0.1
	s2.4,1.2,2.4,2c0.1,0.9-0.4,0.3,0.1,0.9s1,1.5,0.5,2.2s-1.3,0.4-1.1,0.9s1.3-0.4,1.6,0s2.2,3.5,2.3,2.2c0-1.3,0.4-2.6,1.1-3.3
	c0.7-0.7,0.6-1.7,1.4-2.1c0.8-0.4,1.3-0.6,2.2-0.6s0.8,0,1.6-0.4c0.8-0.5,0.5-2,1.3-1.9s2.6,3.2,2.6,3.5s-2.7,1.2-2.1,1.6
	c0.5,0.4,2-1.5,2.9-1.2s3.7,1.8,3.6,2.7c-0.1,0.9-2.3,1.3-2.1,3.1s0.2,0.4,0.6-0.6c0.4-1,1.5-1.8,2.2-1.9s2.1,0,1.3,1.4
	s-1.2,1.1-0.8,1.7c0.4,0.5,0.7-1.7,2.9-1.9c2.2-0.1,4.4,0.6,5.2,2.3c0.8,1.7,1,3.2,1.1,1.9c0-1.3-0.4-3.1-1.5-3.7s0.1-2.4,1.5-2.3
	c1.5,0.1,2.8,0.1,2.1,1.2s-0.9,1.2-0.6,1.6c0.3,0.3,0.1,1.1,0.8,1.1s1-0.4,1,0.1s-0.1,1.9,0.2,1.1c0.3-0.8,0.1-0.9,0.2-1.6
	s0.8-1.8,0-1.2s-1.1,1.3-1.3,0.7c-0.3-0.6,0.5-0.5,0.5-1.7s0.2-1.6-0.7-1.6c-0.9-0.1-1-0.7-2.4-0.2c-1.5,0.5-0.4,2-2.3,2
	c-1.9,0,1.6-1.2,0.4-2.3c-1.2-1.1-3.3-1.7-3.1-1.4c0.3,0.3,2.9,0.9,2.7,1.6s0.7,1.6-1.2,1.6s-2.4,1-2.9,0.1s-1.2-0.5-1.2-1.4
	s2.4-1.1,1.1-1.3s-1.7,1.8-2.7,1.2s-3.2-1.3-2.8-2.3s9.8-2.4,7.4-2.4s-7.6,2.1-8.3,1.2s-1.1-1.2-2.2-2.3c-1.1-1.1,0.9-0.9,0.9-2.5
	s0.4-3.4,2.3-4c1.9-0.6,4.7-2.4,5.9-2s4.1,1,3.8,1.9c-0.3,0.8-2.1,0.8-1.2,1.3c0.9,0.5,2.4-0.1,1.5,0.7c-0.9,0.7-2.9-0.4-2.5,0.8
	c0.5,1.2,2.1,0.8,1.9,1.2s-9.4,0.4-7.2,1c2.2,0.5,8.5-0.9,7.8-0.1c-0.8,0.8-2.5,2.4-1.6,2.2s1.4-0.4,1.3,0.1s-0.4,1.6,0.1,1
	s0.7-1.4,0.7-0.6c0.1,0.8-3.7,1.6-2,1.7c1.8,0.1,4.8,0.4,5-0.1s-3-1.3-2-2.2c0.9-0.9,2.3-0.9,4-0.9s-2,3.4-0.5,2.7
	c1.5-0.7,1.4-1.9,1.6-1.2c0.2,0.7-0.7,1.3,0,1.2c0.7-0.1,0.7-1.5,0.9-1s-0.2,0.6,0,0.8s0.3,2.8,0.9,2.8s1,0.4,0.9-1.6
	c0-2,1.1-2.1,0.7-2.4s-1.9,0.4-1.5-0.3c0.5-0.7,2.6-1,1.8-1.4c-0.8-0.4-2.1-1-1.3-1.2s2.1-0.8,0.9-0.8s-8-0.3-6.4-1.1
	c1.6-0.9,3.6-1.1,2.4-1.2s-3.1,0.1-2.8-0.2s2.5-0.7,1.5-0.7c-1.1,0-4,0.8-3.3,0s2.9-1.3,1.7-1.3s-4,0-2.8-0.5s2.1-1.3,0-1.3
	s-5.9,0-8.2,1.1s-3.1,1.6-3.8,1.2c-0.8-0.4-3-1.8-2.1-0.9s2.2,1.6,1,1.5s-3.9-2.2-3.2-1.3c0.7,0.9,2.8,2.2,1.9,2.1s-2.8-1.3-2.1-0.4
	c0.7,0.8,1.6,2,0.8,1.6c-0.7-0.4-1.9-1.2-1.5-0.5C45.7,78.3,45.8,78.5,46,78.6z"/>
<g>
	<path class="st4" d="M512.1-14.9c-0.1,0-0.1,0-0.2,0c-1.1-0.1-11.9-1-11.9-2s1-7,3-7s6-2,6-4s2-23,5-24c3-1,15-4,18-6s8-15,18-15
		s26,0,30,1s3,8,5,11s5,2,5,8s1.5,28.5,2.5,28.5c4,0,2.5,8.5-0.5,9.5C589.1-13.9,515-14.9,512.1-14.9z"/>
	<path class="st5" d="M515.5-25.4c0,0,1-19,3-21s14-1,19-7s9-17,12-16s-10,21-9,23s6-13,8-10s-15,25-12,29s56,5,56,8c0,4-89,5-88-1
		C505-23.5,515.5-22.4,515.5-25.4z"/>
</g>
</svg>
