<?xml version="1.0" encoding="utf-8"?>
<!-- Generator: Adobe Illustrator 21.1.0, SVG Export Plug-In . SVG Version: 6.00 Build 0)  -->
<svg version="1.1" xmlns="http://www.w3.org/2000/svg" xmlns:xlink="http://www.w3.org/1999/xlink" x="0px" y="0px"
	 viewBox="0 0 534.9 501.7" style="enable-background:new 0 0 534.9 501.7;" xml:space="preserve">
<style type="text/css">
	.st0{display:none;}
	.st1{fill:#D68072;}
	.st2{fill:#ED9E8E;}
	.st3{fill:#A55D55;}
	.st4{opacity:0.49;}
	.st5{fill:none;}
</style>
<g id="Layer_1" class="st0">
	
		<image style="display:inline;overflow:visible;" width="600" height="600" xlink:href="../SKU146470-4.jpg"  transform="matrix(1 0 0 1 -43.2326 -22.0567)">
	</image>
</g>
<g id="Layer_2">
	<path class="st1" d="M23.6,407.1c0,0-17,8.6-18.6,12.6c-1.7,4-4.6-3.3-4.6,4.3s-0.7,12.3,0,14.9c0.7,2.7,0.3,7.3,2,12.3
		c1.7,5,5.6,7.3,5.6,7.3s3.4,8.3,6.2,8.3S10.6,476.4,44,478s62,2.3,80.2,2.3s59-3.3,74.2-4c15.2-0.7,14.3-2,27.2-2
		s37.4,2.3,46.4,2.3c8.9,0,78.5,16.2,95.1,16.2c16.6,0,47.1,11.9,86.2,8c39.1-4,57.3-7,71.3-10.9c13.9-4,11.3-26,6.6-35.5
		c-4.6-9.5-8.6-37.7-16.9-42.3s-14.9-1.7-15.2-8s-4.3-7.6-6.3-10.3c-2-2.7-3.1-11.3-9.6-11.6s-8.4-7.9-8.4-7.9l-48.6,28.8
		l-113.7-28.8l-174.3-4L23.6,407.1z"/>
	<path class="st2" d="M25.5,434.4c0,0-6.3-35.4,3.7-65c0,0-9.5,2.6-14.8-13.7c0,0,2.6-7.9,2.6-13.2h12.2v-26.4
		c0,0-13.2-1.1-14.8-7.9c0,0-3.2-7.4,9.5-22.2s22.2-23.3,25.4-23.3c3.2,0,7.4,5.8,7.4,5.8s11.6-22.2,15.3-22.2s5.3,5.8,5.3,5.8
		s3.7-3.7,5.3-3.2s3.7,1.1,3.7-8.5s11.6-10.6,13.2-14.3c1.6-3.7-3.2,1.1-3.2-11.6c0-12.7-9.6-21.4-8.8-23.5s-3-0.8-2.2-5.4
		s4.9-8.4,4.9-8.4s11.6-0.8,13,0s6.2,7.3,6.2,7.3s5.4-3.8,7.8-4c2.4-0.3-1.1-7.6,0-12.1s-0.5-8.1-0.5-8.1s-14.6-5.7-14.3-14
		c0.3-8.4,3.2-4.6,3.2-10.5s5.1-4.9,5.1-8.1c0-3.2,4.6-5.7,4.9-10.3c0.3-4.6,4-9.4,5.7-11.9c1.6-2.4,6.5-4.6,7.3-8.4
		c0.8-3.8,5.7-10.5,5.7-10.5l1.6-8.4l7.6,1.6c0,0,1.1,5.1,4.6,6.2c3.5,1.1,5.4,7.6,7.3,8.1c1.9,0.5,6.5,5.4,8.1,8.1
		c1.6,2.7,6.7,6.2,6.7,10s6.7,3.2,7.6,7.6c0.8,4.3,8.1,8.1,9.2,11.1c1.1,3,1.6,7,4,8.9c2.4,1.9,0,8.4,0,9.4c0,1.1-3.5,6.2-7.8,6.2
		v12.4c0,0,6.2,0,8.9,0.5c2.7,0.5,2.2,5.1,2.2,5.1l7.3,0.5c0,0,0.5-10.8,2.4-11.6c1.9-0.8,23.7-3,25.4-0.5s1.6,14.6,1.6,14.6
		l15.9,0.8c0,0-0.3-14,2.4-14.6c2.7-0.5,22.9,0.3,22.9,0.3s-3.2,14.3,0,15.1s17.7,0.9,17.7,0.9s-0.3-13.1,1.6-14.4
		c1.8-1.3,3.5-1.7,3.5-1.7s18.2-0.1,19.5,0.8c1.3,1,1.8,1.6,1.8,4.7c0,3.1-0.6,11.1,0,11.6s15.1,3.9,16.6,2.5s-0.4-12.8,1.6-13.1
		c2-0.3,14.7,1.1,15.4-0.3c0.7-1.4,5.4-24.8,4.7-26.7c0,0-7.3-0.1-13.4-17.9s-14.1-23-12-26.7c2.1-3.7,6.5-4.1,8.2-3.8
		c1.7,0.3,4.4,8,6.5,8s7.9,1.6,8.7-4.7c0.8-6.2,5.4-8.6,5.6-9.2c0.3-0.6-0.7-8-0.7-8s-16.4-3.7-16.6-16.1c0,0,2.4-6.2,3.7-6.9
		c0,0,1.4-12.1,8.6-12.1c0,0,1.4-10,9-11.6c0,0,4.7-11.1,8.7-12.1c0,0,1.6-12.8,4.8-12.8c0,0,0.4-8,6.3-8.6c5.9-0.6,8.3,2.7,9.2,6.6
		c0.8,3.9,5.9,4.4,9.3,10.2s6.6,3,9.2,8.6c2.5,5.6,5.5,5.9,8,9.4s11.4,17.3,11.8,19.6c0.4,2.3,4.7,4.7,4.7,7.1
		c0,2.4-15.9,13.7-15.8,18c0.1,4.4,1.6,6.9,5.2,6.9s8.5-1.7,8.9,1.1c0.4,2.8,0,12,3.8,10.7c3.8-1.3,3.8-7.6,7.1-7.6
		c3.2,0,6.9,0.6,6.9,0.6s-6.9,27.4-8.7,28.5s0.6-0.7,0.6,2.8s-0.1,11.4-5.4,15.4s-8.6,4.1-8.6,4.1s0.4,10.7,1.3,14
		c0.8,3.2,3.8,7.5,3.8,12.7c0,5.2-1.6,18.8,1.4,20.4c3,1.7,16.2,2.1,16.2,2.1s5.8,4.9,5.8,8.7s2.3,5.8,2.3,5.8l6.5,1
		c0,0-1.7-3.2,1-3.2s16.2-2,16.9,0.7c0.7,2.7-6.3,34.4-6.9,40.5c-0.6,6.1-0.3,24.5-4.2,25.8s-14,3-14,5.1s1.1,4.7,2,5.9
		c0.8,1.3,1.6,3.4,1.6,5.1c0,1.7-3.1,0.8-1.8,3.2c1.3,2.4,5.4,0.3,5.4,4.8s-1,17.9,2.4,23.7s3.8,5.9,2.8,6.9s-5.4,2.3-3.7,3.4
		c1.7,1.1,5.9-2.1,5.9,4.2c0,6.3-0.3,14-1.3,15.7c-1,1.7-2.7,2.4-0.4,2.8s3.9-1.6,3.9,8.5c0,10-1.1,20.6,1.7,22.8
		c2.8,2.3,7.6,22.7,7.6,32c0,9.3,7.5,9.9-0.7,16.5c-8.2,6.6-22.4,10.6-25.5,10.6s-0.7-3.5-5.6-2.4c-4.9,1.1-23,10-28.5,8.6
		c-5.5-1.4-6.5-0.8-8.2-0.4c-1.7,0.4-11.3-0.6-11.3-0.6s-16.9-1.1-27.1-12c-10.2-10.9-12.8-17.9-12.8-17.9s-29.8-1.7-35-3.2
		s-4.2-9.6-4.2-9.6s-49.2,2.7-53.4,0.1s-8-7.5-8-7.5s1.3,7.1-6.3,7.2c-7.6,0.1-10.7-5.5-14.1-5.5S217.2,405,212,405
		c-5.3,0-31.5,6.5-31.5,6.5s-23.4,22.6-33.9,22.6c-10.5,0-44.9-10.1-44.9-10.1S67.8,455.4,25.5,434.4z"/>
	<path class="st1" d="M334,416.1c3.1,0.5,5.9-1.7,6-4.9c0.8-19.2,2.6-82.1-5.8-106.3c-10-28.7-36.9-40.2-55.7-37.2
		c-18.8,2.9-37.2,18.2-37.2,51.9c0,28.3,2.7,68.8,3.5,81.1c0.2,2.3,1.7,4.2,3.8,4.9c7.1,2.2,22.1,6.3,22.8,1.2
		c0.9-6.7,4.4-99.1,4.4-99.1l24.6,2.1l17.6,35.8c0,0,4.4,63,5.6,66.6C324.4,414,329.7,415.4,334,416.1z"/>
	<path class="st1" d="M418.3,387.7c2.2-0.2,4.4-0.9,6.2-2.2c5.7-4.5,6.4-13.4,6.5-20c0.3-24-5.5-50.8-15.5-49.5
		c-5.6,0.7-9.2,8.9-11.2,13.3c-3.9,8.6-6.1,18.1-6.7,27.5c-0.5,7.3-0.6,15.5,3.1,22.1c2.2,3.8,6.6,6.7,10.7,8
		C413.6,387.5,416,387.8,418.3,387.7z"/>
	<path class="st3" d="M417.2,316c0,0-15.1,54.1-8.9,60.4s22.6-7.7,22.6-7.7S435.4,322.8,417.2,316z"/>
	<path class="st1" d="M189.9,214.2c1.8,0,2.8,2,2,3.5c-1.5,2.9-3,7.2,0.3,8.9c5.2,2.7,28-2.2,28.2,1.4c0.2,3.6-2.5,11,0,14.4
		c2.5,3.5,25.7,7,28,3s-0.6-15.3,2.3-14.7c2.9,0.6,1.4,14.7,3.9,16.4c2.5,1.8,28.9,8.6,29.5,2c0.6-6.6,1.2-15.5,2.5-12.4
		s-1.2,13.1,4.4,15.3s29.8,5.3,29.8,1.5s0-9.4,0-9.4S281.9,238,291,238c9.1,0,68,3.1,70.3,3.1c2.3,0,5.4,14.7,2.7,13.3
		c-2.7-1.5,0.2-6.8-4.4-10.2c-4.5-3.4-33.8-4.4-34-0.6c-0.2,3.7,3.7,8.9,7.1,11.7c3.3,2.8,32.4-1.1,32.4,2.2
		c0,3.3-15.8-0.4-15.8,3.1c0,3.5-1.5,10.1-3.3,6.7s2.7-7.3-3.5-7.7s-28.2-2.1-29.4,0s2,8.3,5.3,9.5c3.3,1.2,60,0,59.8,3.1
		c-0.2,3.1-14.3-3.7-15.8,2.7s-0.6,15.6,3.9,15.6s17-0.2,14.1,1.5c-2.9,1.7-10.2-0.8-10.2,1.9s-1.9,14.1,1.2,14.1s7.9-0.4,7.1,1.5
		s-21.4-0.2-21.4,1.9s-2.1,12.9,3.9,13.3c6,0.4,19.5-2.7,18.7,1.5s-12,0-12.2,2.9c-0.2,2.9-0.8,16.8,3.9,16.8s11.4-3.5,7.5,0
		c-3.9,3.5-16.6-0.4-18.1,2.3c-1.5,2.7-2.3,9.3-3.1,5.8c-0.8-3.5,2.1-5.9-2.1-6.8c-4.2-0.9-10.2-3.2-11.4-0.9
		c-1.2,2.3-0.6,12.5,6.2,14.7c6.8,2.3,22.8,6,22.8,2.3c0-3.7,0.4-14.2,1.7-11.3s5.2,15.5-0.6,15.7c-5.8,0.2-8.7-1.9-8.9,0
		c-0.2,1.9,3.5,10-1.7,10.5s-1-11.4-3.7-11.8c-2.7-0.4-9.8-0.8-12-0.2c-2.3,0.6-7.7,14.3-0.8,14.3c6.8,0,28.4-1.7,27.2,1.2
		c-1.2,2.9-29.1-2.9-29.1,2.7c0,5.6-1.5,9.5,3.1,11c4.6,1.5,13.1,5.6,13.1,1.2c0-4.4,0.4-12.5,1.5-10.8c1,1.7-2.5,10.1,2.1,12.7
		c4.6,2.6,7.7,3.3,6.8,4.3c-0.8,1-26.2-6.4-26.4-3.5c-0.2,2.9-3.5,10.9,2.3,11.8s22.8,0.3,19.7,3.2s-30.9,0-30.9,0l1.5-46.1
		l-4.4-40.2c0,0,5,13.4,10.8,13.8s16.2,1.9,17.6,0c1.5-1.9,2.1-12,1-12.5s-27.2,0.2-27-1.3c0.2-1.6,18.1-0.9,18.1-3
		c0-2.1,6.2-14.7-0.4-14.7c-6.6,0-14.9,0.8-14.9,0.8s6.4,34.5,2.7,33.8c-3.7-0.6-11.5-41-7.4-39.9s6.7,2.5,6.5-0.6
		c-0.2-3.1,5.4-12.5,0-12.5s-10.4-1.2-10.4-1.2s9.1,18.6,6.9,17.9c-2.2-0.7-17.6-22.4-20.7-26.5c-3-4.1-24.6-11.4-23-13.9
		c1.6-2.5,13.7,3.7,13.7-1c0-4.7,12.8,7.6,14.5,9.7c1.7,2.1,17.8,14,23.9,14s11.6,4.8,11.8-1.7c0.2-6.4,3.9-14.1,0-16
		s-45.4-1.5-46.9-3.6c-1.5-2.2-3.5-2.7-3.4-6.8c0.1-4.1-27.5-10.5-33-8.9c-5.5,1.6-3,10.5,2.8,10.5s13.7-2.5,12,1.6
		c-1.7,4.1-37.1,126.3-37.1,126.3s-1.5-7.6-8.2-7.5c-6.8,0-12.6-3.2-12.6,0c0,3.2-1.3,24.1-2.7,15.3c-1.3-8.8,1.9-15.5-1.9-15.5
		s-17.4-1.1-13.1-3.2c4.3-2.1,19.3,3.7,19.3-1.2s0.8-13.2-3.2-13.5s-30-7.2-20.6-6.1s13.1,2.6,13.1-1.6c0-4.3,1.3-12.4-2.4-11.9
		s-16.1,4.5-12.9-2s8.4,4.2,8.7-1.3s-12-17.7-8-17.1c3.9,0.7,4.8,17.9,12.6,17.5c7.8-0.4,11.6-11.1,11.6-12s-21.9-1.7-20.5-3.3
		c1.4-1.5,33.5-2.9,33-0.1c-0.5,2.8-7.8,1.3-9.6,3.9c-1.7,2.6-4.8,8.5-3.8,9s17-0.3,15.3,3.1c-1.6,3.5-20.5-0.1-20.6,2.7
		s-1.2,13.1,1.5,14.2c2.7,1.1,9.3-1.4,9.3,2.2s0.2,13.8,1.6,14.5c1.4,0.7,9.3,0.7,9.3,0.7l4.1-47.7l-9.1-14.6c0,0-18.5-6.2-18.5-2.7
		s1.8,15.8,0.1,15.3c-1.7-0.4-2.8-15.1-2.8-15.1s-12.9,0-12.9-4.6c0-4.6,1.5-9.9,0.1-12.5c-1.4-2.6-13.1-8.7-7.5-8.6
		s20.8,5.9,21.5,2.8c0.8-3,2.7-12.7,2.7-12.7s-24.7,0.7-24.8-2.3c-0.1-2.9,6.9-4,10.9-4s0.8-12.4-0.1-12.6s-23.2-0.9-25.8-4.4
		c-2.5-3.6,0.3-27.5,3.4-27.5c3.1,0-0.3,8,0.3,9.9c0.6,1.8,20.8,0.3,22.3,3.2c1.5,2.9,6.8,5,2.5,4.9c-4.3-0.1-6.6-4.4-6.8-1
		s2.9,10.7,0,7.9c-2.9-2.8-2.4-8.9-4.5-9.6c-2.1-0.7-14.9-6.2-15.1-0.8c-0.1,5.4-3.6,7.9,0.3,10.6c3.9,2.6,46.3,6.7,46.3,6.7
		s-1.8-9.3-0.7-10.3s3.9-1.5,4.2,1.4c0.3,2.8-1.3,10.6,1.7,10.6s26.8-2.9,27.5-0.7s-22.2-0.6-22.7,4.2c-0.4,4.7-3.9,9.7-0.4,10.4
		c3.5,0.7,11.3-1.6,11,0.9c-0.3,2.5-23.6,4.7-22.9,2.9c0.7-1.8,8.3-2.1,8.3-3.8s0.8-11,0.8-11s-24.8-4.2-24.8-2.4
		c0,1.8,0.7,9.2,0.7,10.1c0,1,14.7,0.1,15.3,2.1s-3.3,7.1-3.3,13.6s20.3,4.9,19.9,8.6c-0.4,3.8-35.2-3.2-35.6-0.4s-3.6,7.9,0.6,10.1
		c4.2,2.2,26,6.3,26,6.3s2-31.3,17.5-39.5c15.5-8.2,13-13.3,12.1-16c-0.8-2.6-36.4-4.9-43-8.5s-10.9,1.3-10.2-17.6
		c0,0-30.4,5.6-31.6,0S188.3,214.2,189.9,214.2C189.8,214.2,189.9,214.2,189.9,214.2z"/>
	<path class="st3" d="M268.8,409.6c0,0-15-104.8,5.3-116.9c20.2-12.1,39.9,11.1,45.2,23.9c4.2,10.2,6.7,64,7.6,85.6
		c0.2,4.9-3.3,8.9-7.7,8.8L268.8,409.6z"/>
	<path class="st1" d="M359.7,144.4c0,0-5.4,15-0.8,14.5s15.1,4.1,15.1-0.1s-0.7-12.3,1-10.9c1.7,1.4,0.2,13.5,2.9,13.8
		c2.6,0.3,25.7-1.7,26.7-2.8s-3.6-17.1,0-12.4c3.6,4.8-1.2,16.6,4.5,15.2c5.7-1.4,14.8,2.3,14.8-2.9s-0.5-19.5,0-16.1
		c0.5,3.3,7.9,20,3.8,21.5c-4.1,1.4-35.5-2.1-34.7,3.1c0.8,5.2,0.1,11.7,4.9,11.9c4.8,0.2,15.3-6.4,16,0s-8.8,9.7-17.6,9.3
		s-2.4,8-6.9,8.1s-4.1-6.4-5-8.1c-1-1.6-12.9-1.9-11-2.5c1.9-0.6,16.2,1.3,16.2-3c0-4.3,3.1-11.3-0.2-13.6
		c-3.3-2.3-23.2-2.6-23.2-2.6s-12.2-2.3-12.5-8C353.2,153.2,354.5,142.7,359.7,144.4z"/>
	<path class="st3" d="M352.8,212.7c0,0-3.4-56,6.1-53.8c9.5,2.2,12,4,12.5,8.8s8.4,18.1,8.4,18.1s-6.4,4.3-6.4,13.6
		c0,9.3,0.2,13.4,0.2,13.4S355.3,197.5,352.8,212.7z"/>
	<path class="st1" d="M434.6,189.2c0,0,21-3.1,20.7,1.9s-3.9,17,3.5,14.8c7.5-2.3,4.2-7,8.5-6.8c4.3,0.2,18.5-4.9,18.8,3.4
		c0.3,8.3-1.6,29.3-7.3,34.4s-55.1,16.4-77.6,13.4c-22.6-3-39.7-9.7-40-13.4c-0.3-3.8,0.5-10.8-1.3-12.7s-7.2-11.4-7.2-11.4
		s-2.5-11.4,3.2-11.4s20.9,4.7,19.3,8.1c-1.6,3.3-3.5,18.9-0.3,18.6c3.2-0.3,1.3-11.1,7.5-11.3s34.6-3.2,33.3,2.8
		c-1.3,6-5.6,13.4-2.7,13.8s20.7,1.1,20.9-2.1s-4.8-12.9-1.9-13.2s20.4-5.1,21.5-2.4c1.1,2.7,0.3,10.9,4.3,8.6
		c4-2.4,7.3-8.4,7.3-9.9s-11.3-0.5-15-5.6c-3.8-5.1,0.5-11.9-5.9-11.5c-6.4,0.4-15.4,0-15.4,0L434.6,189.2z"/>
	<path class="st1" d="M339.8,110.9c0,0,6.9,12.5,5.2,12.5c-1.7,0-9.9-0.4-3.9,1.1c6,1.5,11.1-0.7,12.4,3.9c1.3,4.7,3.3,18.7,3.9,12
		c0.6-6.7-4.1-11.8,0-11.8c4.1,0,28.4-0.6,28.6,3.9c0.2,4.5,2.4,14.2,3.4,12.7s-1.9-14.2,0-14.2s31.2-4.1,31.2-0.2
		c0,3.9-0.7,12.9,1.3,9.2c2.1-3.7-0.9-11.4,2.2-11.9s15.3-4.8,12.2-4.8s-31.1,5.8-31.6,3.4s0.9-10.8-1.3-10.7
		c-2.2,0.2,4.1,10.7-3.6,10.8c-7.7,0.2-27.7,0.2-29.7-1.9c-2.1-2.1-0.7-13.7-3.2-10.3c-2.4,3.4,3,10.8-2.2,10.8s-16.8-1.9-17.2-4.3
		C347.1,119,340.7,106.4,339.8,110.9z"/>
	<path class="st1" d="M357.5,80.3l0.7,8c0,0-5.2-1.7-6,5.2s-7.9,6.5-7.9,6.5l4.1,8.2h6.5l3.2-3.2l17.9,0.6c0,0-0.5,7.3,3.8,8.6
		c4.3,1.3,27.9,4.1,29,0.9c1.1-3.2-1.9-6.9,1.5-7.3s23.1,4.1,26.5-3c3.4-7.1,6.5-14.2,6.5-14.2s-5.9,10.9-9.8,7.8
		s-3.3-10.6-4.7-10.8c-1.3-0.2-7.1-0.7-7.1-0.7l-5.2-6.7C416.5,80.3,376.3,87.8,357.5,80.3z"/>
	<path class="st1" d="M339,72.8"/>
	<path class="st1" d="M349.1,63.9c-0.6-1.1,0.8-2.3,1.8-1.5c1.9,1.5,4.7,2.8,7.1-0.7c3.9-5.8,4.1-7.7,4.1-7.7s-10.4-1.9-6.6-4.6
		c3.7-2.7,13.8,2.9,14.3,0c0.5-2.9,3.9-7.3,2.2-8.2c-1.7-0.9-15.4-2.4-11.3-3.7c4-1.4,13.9,2.4,14.2-1c0.3-3.4,4.6-10.2,2.2-10.6
		c-2.4-0.3-6.5-0.7-5.8-1.4c0.7-0.7,6,1.4,7.7-0.9c1.7-2.2,3.1-8.7,1.7-9.2c-1.4-0.5-5.6-0.2-3.7-1.5c1.9-1.4,5.3-2,8.2-2.6
		c2.9-0.5-1.7,0.2-2,4.1s-3.6,7.3-0.3,7.8c3.2,0.5,12.6,1.2,12.3-1.4c-0.3-2.6-6.8-6.6-4.3-6.5c2.6,0.2,11.6,9,9.9,9.5
		c-1.7,0.5-6.7-2.6-6.7,2.2c0,4.8-2.2,6,1.8,6s9.2-4.3,10.4-2.2c1.2,2-9.4,4.4-7,6.3c2.4,1.9,13.1,10.2,13.6,10.2
		c0.5,0,6.8-4.3,6.6-1.2c-0.2,3.1-14,3.2-13.3,8.7c0.7,5.4,3.1,9.7,6.8,9.9s15.8-9.2,16-6.7s-7,3.7-7,7.8s3.6,11.7,1.9,9.5
		c-1.7-2.2-0.9-6.1-4.3-6.1c-3.4,0-21.4-0.2-21.4,5.6c0,5.8-3.7,9-4.1,5.4c-0.5-3.6-1.7-8.2-5.1-8.3c-3.4-0.2-13.6-4.3-15.8-0.9
		c-2.2,3.4-2,10-4.6,8.9s0.2-6.8-2-9.5c-2.2-2.7-19.4-1.2-13.3-2.2c6.1-1,25.7,3.4,26.2-1.4s4.1-10.9-0.5-10.9c-4.6,0-16.5,0-12.4-1
		c4.1-1,22.1,0.7,22.5-2.7c0.3-3.4,0.7-7.1,0-8.7c-0.7-1.5-13.8,0.9-12.6-3.1s14,3.7,14-3.1s0.3-13.3,0.7-8.7
		c0.3,4.6,0.4,13.1,3,13.1c2.6,0,5.5-0.2,2.8,0.9c-2.7,1-6.3-0.5-4.8,2.6s5.8,8,9.2,6.6c3.4-1.4,6,4.1-0.7,4.1s-11.2-2.7-13.4,0.7
		s-5.3,7.3-2.4,9.4c2.9,2,16.2,3.1,17.9,0.5c1.7-2.6-1.7-16.5,0-17c1.7-0.5,5.1-2,5.1-2s-9-8-10.6-9.4s-4.3-2.4-5.3-12.6l-10-0.7
		l-9,25.4l-11.1,12.8c0,0-3.6,3.9-8.9,3.6C350.7,65.7,349.7,64.9,349.1,63.9z"/>
	<path class="st1" d="M382.7,439.4c0,0-4.1-13.6,1.5-17.9c0,0-12.9-7-12.6-12.9s4.9-1.2,4.9-1.2s-1.9-8,3.1-10.8
		c4.9-2.9-9.1-4.6-5.6-6.7c3.5-2.1,22,11.2,28.8,11.2s21.5,5.1,21.5,1.5c0-3.6-3.1-12.3,0-13c3.1-0.6-2.2,16.6,4.9,16.4
		c7.2-0.2,29.9,2.1,31.4-2.1c1.4-4.1-3.9-26.4,0-26c3.9,0.4,2.3,24,6.6,21.7c4.3-2.3,10.3-12.9,10.5-9.8c0.2,3.1-7.8,16.2-27.3,19.7
		c0,0-8-2.6-8,1.4s-1,7.2,0,9.4c1,2.3,12.9,7.6,25.2-0.2c12.3-7.8,17.8-14.3,15.6-9.2c-2.3,5.1-24.8,13.7-26.3,17.4
		c-1.4,3.7-2.6,13.3-4.5,10.9c-1.9-2.5,4.1-11.7-2.5-11.9c-6.6-0.2-27.2,2.7-30.8,6.6s0.1,20.9-2.4,15.6c-2.5-5.3-7.6-11.5-2.5-21.3
		c5.1-9.8,22.2-1.2,22.2-4.5s5.1-11.9,0-14.2s-32.6-7.6-34.5-4.3c-1.8,3.3-4.9,14.2-2.1,16c2.9,1.8,28.5,1.2,24.4,4.5
		c-4.1,3.3-31.4,0.4-32-2.3c-0.6-2.7,7.6-16.6,5.1-19.1c-2.5-2.5-9.8-8-13.7-7c-3.9,1-6.6,9.9-4.1,13.5c2.5,3.7,16,6.8,16,8.8
		s-6.4,0.5-8.6,2.7c-6.1,5.9,0.1,19.5,0.1,19.5L382.7,439.4z"/>
	<path class="st1" d="M390.6,242.4l-4.6,19.9c0,0-5.8-3.8-6.6-1.7c-0.9,2-1.2,11.7-1.2,11.7l2.7-7.9l25.9,6.1c0,0-0.9,12.4,0,12.4
		s4,3.5,4-1.7s-7.2-10.1,0-10.4c7.2-0.3,23.7-4.6,26-4.6c2.3,0,6.4-3,6.4,1.3s2,9.3,1.7,10.7c-0.3,1.4-16.8-0.4-17.3,4.5
		c-0.6,4.9,5.5,17.3-1.4,17.3c-6.9,0-25.7-2.6-27.5-4.9s8.4-13,3.2-13.3s-4.3,11.3-10.1,11c-5.8-0.3-8.7,0.6-8.7-3.3
		c0-3.9,6.1-11.9,2.3-11.4c-3.8,0.5-8.1,18.1-4.5,18.1c3.6,0,7.1-2.3,6-0.3s-4.3,8.4-4.3,13.9c0,5.5,1.2-11,6.6-11
		c5.5,0,21.7-1.2,22.4,3.2s-4,19.4,0,19.7s2.2-19.4,5.3-19.4s23.7,1.7,30.4,0c0,0-4.9,25.2,0,16.8c4.9-8.4,2-15,3.8-18.2
		c1.7-3.2,9.3-13.3,8.8-10.9c-0.5,2.5-27.1,8.3-27.1,8.3s-5.2-14.5,0-14.7s18.5-1.3,18.5-5.4s-6.6-11.9-2.3-12.2s15.6-0.3,15.9-4.9
		c0.3-4.6-3.2-14.7-3.2-14.7s-1.7-2.6-1.7,4.6s4.6,9.8-1.4,9.8s-14.6,2.3-27.5,4.3c-12.9,2-20.8,3.1-22.5,2.4
		c-1.7-0.7-17.9,1.3-17.9-4.4c0-5.8,6.8-18.2,6.8-18.2l24.1,2.6c0,0-0.6,14.2,2.9,14.2c3.5,0,1.2-16.8,1.2-16.8L390.6,242.4z"/>
	<path class="st1" d="M471,351.3c0,0-22,10.9-22,15.1c0,4.2,2.4,21.2-1.7,17.9c-4-3.3-5-18.6-5-18.6s-13.5,3.4-11.4-0.3
		c2.2-3.7,27.6-5.1,27.6-12.2c0-7.1,2.1-11.8-2.4-11.5s-24.8,8-23.6,5.2s6.8-0.8,6.8-7.7c0-6.8-2.4-19.5-0.2-17.8
		c2.1,1.7,0.7,18.5,6.6,16.8s15.6-6.8,15.6-4.7c0,2.1-1.7,20.7,1.7,18.2c3.3-2.6,8.7-1.9,7.9-6.4s-0.1-14.6-2.7-14.6
		c-2.6,0-5.2,0.2-5.2,0.2s1.7,0.2,1.8-5.4c0.1-5.7-1.8-9.7-1.8-9.7s-23.3,9.6-35.5,8.2c-12.3-1.4,33.2-9.4,35.5-11.6
		s4.5,9.7,4.5,11.5s-2,4.5-0.9,4.5c1.1,0,3.2-0.8,3.7,1c0.5,1.8,2.9,13.7,2.7,17.4S471,351.3,471,351.3z"/>
	<path class="st1" d="M387.1,314.8c0,0,11.1,0.4,11,3.2c-0.2,2.8-0.8,6.4-2.8,5.4c-2-1-12.8-10.3-13.4-6.4c-0.7,3.9-2.5,10.8,0,13.1
		c2.5,2.3,13.4,5.4,11.1,7.1c-2.3,1.6-12-5.1-12.1-3.6c-0.2,1.5-1.8,10.3,0,14.3c1.8,3.9,15.1,9,9.4,8.5c-5.7-0.5-10.1-3-10.2-2.1
		c-0.1,0.8-3.3,11.8,0.8,15.4c4.1,3.6,22.8,1.8,18.1,5.3s-9.3,1.6-11.2,3c-2,1.5-6.1,16.4-6.9,15.7c-0.8-0.7,3.9-15.6,2.5-17.2
		c-1.5-1.6-5.7-4.6-5.9-7.1s-1.4-18.7-0.9-24.6c0.5-5.9,4.3-27.5,4.3-30.1C380.9,312.3,387.1,314.8,387.1,314.8z"/>
</g>
<g id="Layer_3">
	<polygon class="st3" points="108.9,257.9 91.5,244.2 89.5,248 107.7,259.9 	"/>
	<polyline class="st3" points="101.8,267.8 79.8,254.1 76.8,259.9 99.2,272.1 101.8,266.1 	"/>
	<polygon class="st3" points="96.1,276.9 71.2,267.8 71.2,273.7 96.1,283.1 	"/>
	<polygon class="st3" points="91.9,285.2 74.6,286.9 78.8,290.7 93.6,291.9 	"/>
	<polygon class="st3" points="105.3,340.6 86.9,347.7 86.9,342.1 104.3,335.7 	"/>
	<polygon class="st3" points="90.6,358.7 114.5,349.7 114.5,353.3 92.1,361.8 	"/>
	<polygon class="st3" points="95,376.8 115.9,365.7 118.5,368.9 97.7,380.2 	"/>
	<polygon class="st3" points="103.5,388 127.5,380.4 127.5,383.2 106.2,392.6 	"/>
	<polygon class="st3" points="118.2,400.5 148.7,386.5 149.4,389.5 118.6,406.6 	"/>
	<polygon class="st3" points="133.4,417.3 158.8,399.6 154.5,398.8 130.6,415.4 	"/>
	<polygon class="st3" points="145.4,427.5 170.3,411 164.2,407.8 139,428.7 	"/>
	<path class="st3" d="M95.2,380.2c0,0-1.2,22.8,2.6,33.3c3.8,10.5,25.9,20.2,44.1,19.7L95.2,380.2z"/>
	<path class="st1" d="M23.8,416.7c0,0,2.9,4.5,9.9,4.4s5-13.9,5-13.9l-15-5l0.1-2.9c0,0,16.9,8,19.3,4.8c2.4-3.3,4.5-11.5,0.8-12.4
		c-3.7-0.8-18.7-6.5-18.7-6.5l1.3-2.2c0,0,16.3,8.7,17.3,4.7c0.9-4.1-0.6-13.4-1.6-16.7c-1-3.3-12-3.5-12-3.5l-10.4-14.7l3.6-3.1
		c0,0,13.5,21.4,22.6,18.3c8.4-3,13.4-3.5,22.2-5.2c6.5-1.3,5.9,5.4,9.5,4.5c3.6-0.9,7.9-13.8,7.9-13.8v4.7c0,0-1.4,11.9-6.8,12.2
		c-5.4,0.3-8.3-4.5-8.3-4.5s-1.6,1.5-1.6,5.1s-0.6,16.9,0.8,17.3c1.4,0.3,17.4,1.3,20.2-0.2c2.8-1.5,3.6-2.6,3.7-1.4
		c0.1,1.2-1.2,5-12.2,4.9c-11.1-0.1-15.1,1.4-15.1-4.5c0-5.8,1.5-19.6-0.5-21.7c-0.9-0.9-19.2,3-19.2,5.8s-0.7,16,0.9,16.9
		c1.6,0.9,14.8-1.2,14.8,0.8c0,2-5.7,2.3-8.9,2.3s-4.9,0.2-4.9,0.6c0,0.3-3.6,11.8-1.5,13.9c2.1,2.1,20.5,0.7,20.6-0.2
		c0.1-0.9-1.7-10.7,0-9.4s-0.8,8.5,2.3,9.6c3.1,1,16.1-7.6,16.4-5c0.3,2.6-11.5,6.6-12.5,8.3c-0.9,1.6-1.5,9.3,1.3,10.3
		c2.8,0.9,13.9-6.9,15.4-6.1c1.5,0.8-4.8,6-11.1,8s-19.6,0.6-21.3,4.4c-1.7,3.8,3.1,11.2-0.9,11.4s-1.9-9.3-4-9.7
		s-15.2-0.7-14.7-2.2c0.5-1.5,14.9-1.6,17.3-2.2c2.4-0.6,13.5-1.3,14.2-6.1c0.8-6.1,0.3-8.1-2.8-8.1s-25.4-4.1-26.1,1.2
		c-0.7,5.2,0,13.8-3.5,13.8c-3.5,0-11.5-4.3-11.5-1.9s1.2,13,1.2,13s-1.7,0.5-2.2-3.3S23.8,416.7,23.8,416.7z"/>
	<path class="st1" d="M29.9,345.5c0,0,10.6,10.5,15.1,6s2.7-11.5,2.7-11.5l-9.1-2.1c-1.9-0.4-2.9-2.4-2.3-4.3c0-0.1,0.1-0.3,0.1-0.5
		c0.8-3.8-1.4-14.9,1.3-13.9s-0.3,14.3,3,15.9s13.7,2.9,13.7-3.5s-0.5-15,2.3-13.8c2.8,1.2-1.5,16.5,3.5,17.5c5,1,10.5,0,12.6-5
		c2.2-5,3.8,0.9,0.9,4.8s-8.8,1.6-8.8,3.3s-0.5,11,1,11.1c1.5,0.1,3-2.6,3.8-2.6c0.8,0-1.5,6.4-4.7,6.3c-3.1-0.1-8.7-1-8.3-2.2
		c0.6-2.1,6.5,1.9,6.5-1.5s0.2-9.5-0.4-10.5s-13.1-1.6-13.2,0.7c-0.1,2.3,1.2,6.7-0.5,10.6s-6.5,6.5-10,4.6c-3.5-2-9.1-7.6-11.2-8.1
		c-2.1-0.5-4.8,0.2-3.9-1.4C24.8,343.8,28.1,345,29.9,345.5z"/>
	<path class="st1" d="M43.1,267.8c0,0,3.1,2,10,0.5s2,2.3-0.9,2.3c-3,0-5.1-0.1-5.5,0.7c-0.4,0.8-3.8,5.4-2.2,5.6s16.1-0.6,17.5-0.6
		c1.5,0,2.7,2.4,0.7,3c-2,0.5,2.8,9.2,4.6,9c1.8-0.1,3.9-2.2,4-1.2c0.1,0.9-1.2,4.7-5,4.9c-3.8,0.1-2.4,8.8,0,9.4
		c2.4,0.7,7.2-1.9,8.1-1.8c0.9,0.1-1.6,3.6-3.1,4.3c-1.5,0.7-2.6,0.3-2.6,2.2s5.8,10.3,3.6,10.5c-2.2,0.3-3.1,5.8-4.2,0
		c-1.1-5.8-1.3-8.4-2.2-9.7c-0.8-1.3-10.3-3.2-10.3-1.2s1.5,11.1,0,8.9c-1.5-2.2-0.9-9.4-1.3-9.4s-16.7-0.8-16.7,0.7
		c0,1.5-4.2,14-4.2,8.8s3.6-7.4,0-8.1c-3.6-0.7-10-0.3-11.5-1.8c-1.5-1.5-2.9-1.2-3.4,3.1c-0.4,4.3-1.2,1.5-1.2-1.5s1.9-4.5,1.9-4.5
		s-2.3-3.2-1.9-3.4s1.8,2,2.3,0s7.4-11.6,8.2-10.7c0.8,0.9-7.4,11.1-6.9,13c0.5,1.9,11.6,3.1,13.4,3c1.8-0.1,1.8-8.8,3.8-9
		c2-0.3-3.6,7.4-0.5,8.2c3.1,0.8,16.3,0.8,16.3-0.7c0-1.5-2.2-7.8-0.5-7.7c1.6,0.1,0.9,8.5,3.4,8.5c2.4,0,6.2-1.5,6.1-4.3
		s0.5-6.9-1.6-6.9c-2.2,0-27.7-0.4-29.7-1.9s4.3-12.4,4.9-11.1s-5.5,7.3-3,8.9c2.6,1.6,6.3,3.1,7.3,0.9s1.3-11.7,2.3-8.9
		c0.9,2.8-1.9,6.9,0.9,8.2c2.8,1.3,7.6,3.6,8.6,0.7c1.1-3-1.2-9.8,0.8-8.5c2,1.3,1.6,9.2,3.9,9.2c2.3,0,5.7,0.7,5-1.9
		c-0.7-2.6-2.4-8-3.9-8c-1.5,0-21.2-0.2-21.2-2.7s3.4,0.9,4.5-0.6c1.1-1.5,3.6-5.1,3.1-5.3c-0.5-0.1-4.9-1.8-4-2.4
		S43.1,267.8,43.1,267.8z"/>
	<path class="st1" d="M93.8,194.1c0.4,0.1,0.9,0.2,1.3,0.4c1.3,0.6,2.6,1,3.9,1.4c2,0.6,4.1,1.2,6.2,1.7c3.1,0.7,6.3,1.1,9.5,1.1
		c2,0,5.2-0.4,7.1-0.9c10.9-2.6,1.6,3.5-4.9,3.5c-6.5,0-8.4-2.1-8.4,0.9c0,3-0.6,11.2,6.3,11.2s29.7,3,25.6,0s-7.8-11.6-5-11.6
		c2.8,0,4.9,11,11.4,11c6.5,0,26.7-2.4,26.7-4.7c0-2.2-3-10.8,0-10.3c3,0.6,1.1,10.4,4.5,10.8c3.4,0.4,14.7-6.2,12.7-2.2
		s-23.7,8.6-26.4,8.2c-2.7-0.4-2.3,12.8,1.4,13.2c3.7,0.4,17-5.4,18.6-4.5c1.7,0.8,8,4.4-4.5,7.5s-31.5,0-31.5,3.7
		c0,3.7,4.9,10.6,1.2,9.3c-3.6-1.3-2-9.9-5.9-11c-3.9-1.1-22.8-1.9-22.8,1.5s4.7,8.4,3.9,8.8c-0.7,0.4-2.8,1.7-4.1-1.1
		c-1.3-2.8-2.6-9.7-4.1-10.4s-13.8-2.4-14.2-6.9s10.8,3.2,18.8,3.2c8,0,4.5-13.2,6.2-11.9c1.7,1.3-0.2,12.7,2.2,12.9
		c2.4,0.2,12.4,2.1,12.7,0.2c0.3-1.9-2.5-9.2-1-10s0.2,10.2,3.2,10.4c3,0.2,19.2,0.9,17.9-2.4c-1.3-3.4-2.8-9.7-2.8-11.4
		c0-1.7-42.5,3.6-53,0.4c-0.3-0.1,0.2,0.6-0.2-3.2c-0.3-2.9-0.6-8.4-0.7-10.6c0-0.6-0.5-1.2-1.1-1.4c-0.4-0.1-0.7-0.2-0.7-0.2
		c-2.2-0.8-4.3-1.6-6.4-2.5c-0.8-0.3-1.6-0.7-2.3-1.1c-0.9-0.5-2-1-2.7-1.7c-0.5-0.5-0.2-1,0.4-1.2C93.2,194.1,93.5,194,93.8,194.1z
		"/>
	<path class="st1" d="M210.4,382.4c-0.8,1.2-2.1,1.9-3.5,2c-3.6,0.2-10.9,1-10.9,3c0,2.7,9.3,15.4,3.7,15.4s-4.6-15.6-9.8-15.8
		s-38.5,1-38.5-1c0-1.3,9.8-3.2,16.5-4.4c4-0.7,6.9-4.4,6.3-8.5c-0.4-3.1-1.8-6.1-5.6-6.2c-8.1-0.2-41,3-32.9,0.9s17.3,3.3,18.1-4
		c0.8-7.3-0.2-22,1.9-20c2.1,1.9-1.7,19.5,5,19.5s26.4,3.7,27.2-2.9c0.8-6.6-0.4-15-2.3-15c-1.9,0-21.3,0.8-21.3,0.8
		s-3.1-24.7,1.4-24.3c4.5,0.4-2.8,6.6,4,7.3c6.7,0.8,28.5-11.8,29.7-7.3s-30.4,7.1-30.4,11.2c0,4-4.4,7.7,0.2,8.7
		c4.6,1.1,33.5-4.7,33.9-2.8c0.4,1.9-13.1,4.8-13.1,5.8s0.2,17.9,3.1,17.9s17.3-6.7,16-2.1s-30.3,4-30.3,6.9s-1.3,13.4,4.9,14.5
		s26.9-2,27.5-1.4C211.3,380.9,210.9,381.6,210.4,382.4z"/>
	<path class="st1" d="M139,242.5c-1.1,0.9-1.5,2.5-1,3.8c1.1,3.1,2.5,8.5-0.9,8.5c-4.8,0-15.9-7.7-16.1-3.5
		c-0.2,4.2,8.1,2.9,8.1,6.1c0,3.1-2.7,13.8-4.2,13.4c-1.5-0.4-3.8-2.9-4-0.8c-0.2,2.1,16.2,4.9,13.3,6.2c-2.9,1.3-7.8,10.9-7.8,10.9
		s-10.3-6.3-11.5-4.6c-1.3,1.7,7.5,4.9,7.7,6.9s0.4,15.2,0.4,15.2s-13.2-6.3-14.2-4.6c-1,1.7,15.3,4.7,15.2,8.4s1.5,15.8-1.2,15.4
		c-2.7-0.4-14.1-7.8-14-4.4s19.7,8.7,19.7,8.7s31.5-15.7,35.3-15.7s14.2-2.9,15.2-0.2c1,2.7,1.6,13.2,3.6,13.6s-0.2-14.2,0-14.2
		s15,1.5,15-3.1s-2.9-11.9-1.7-13.2c1.3-1.3,4.2-1.5,4.2-3.3s0-6.7,0-6.7s0.2,5.6-4.6,5.6s-13.8,4.7-15.9-1.4
		c-2.1-6.1-7.7-11.4-4.8-12.4c2.9-1,25.7-0.8,25.3-2.3c-0.4-1.5-11.1-1-11.1-1l-6.5-21.7c0,0-14.8,4.8-14.8,1.9s2.3-9,0-9.6
		c-2.3-0.6,2.2,10.9-3.6,10.9c-5.8,0-21.3,0.2-21.3,0.2s9.1,2.7,11.6,2.7c2.4,0-2.4,19.4,1.8,19s0-16.7,4.2-16.9s18.4-6.5,19.8-2.3
		c1.5,4.2,8.3,13.2,2.1,13.8c-6.3,0.6-21.3,1-21.3,3.3s8.3,1.4,9,2.1c0.6,0.7,6.5,14.8,5,14.8c-1.5,0-16.5-0.6-13.6,2.9
		c2.9,3.5,28.8-0.8,29.3,1.9c0.5,2.7,4.9,10.9-1.1,10.9s-29.4,2.5-29.4,2.5l-31.1,6.7l-2.6-8.3c0,0-4-18,0-18.2s11.4-14.1,11.4-14.1
		s13.4,4.6,13.4,0.9s-21.9-3.7-21.9-7.9c0-4.2,1.8-11.7,3.9-11.7s13.5,3.6,13.4,1.3S140.9,240.9,139,242.5L139,242.5z"/>
	<path class="st1" d="M56.4,265.7c0,0,14-21.5,16.4-20.6c2.4,0.9,2.2,3.9,2.4,5.3s-12.7,20.4-12.7,20.4L56.4,265.7z"/>
	<path class="st1" d="M86.4,238.9l15.4-10.9l-2-3.3c0,0-15.9,7.8-14.6,11C86.4,238.9,86.4,238.9,86.4,238.9z"/>
	<path class="st1" d="M117.1,254.3c0,0-9,9.3-14,21.7s-6.8,23.6,0,43.2s29.8,48.7,32.2,51.1c2.4,2.4,44.9,41.3,44.9,41.3l-6.8,4.6
		c0,0-48.9-43.5-61.4-62.4c-12.5-18.9-24.3-39.5-22.4-59c2-19.5,21-43.2,23.5-44.1C115.6,249.9,117.1,254.3,117.1,254.3z"/>
	<path class="st1" d="M149.5,431.7c0,0-46.2-47.1-50.8-53.1c-4.6-5.9-8.1-9-8.1-6.4s0.7,8.3,3,11.4c2.3,3.1,47.9,54.3,50.9,52.4
		C147.6,434,149.5,431.7,149.5,431.7z"/>
	<path class="st1" d="M157.1,348.4c-12,4.2-25.1-2.4-28.6-14.7c-1.4-5-2.2-11.4-1.9-19.7c0.5-13.5,4-45,25.2-35.4
		c1.4,0.7,2.8,1.5,4,2.5c7.4,6.1,7.3,16.9,7.8,25.7C164.9,334.2,165.1,345.6,157.1,348.4z"/>
	<path class="st3" d="M138.4,278.6c0,0-11.4,53.1,0,59.7c11.4,6.6,25.6-3.7,25.6-3.7c0.8-0.6,0.7-6.4,0.8-7.5
		c0.3-3.1,0.5-6.2,0.7-9.4c0.3-6.5,0.2-13.2-1.1-19.6c-1-5.4-3.1-11.1-6.9-15.4c-3.8-4.3-11.6-8.9-17.4-5.6
		C139.5,277.6,138.9,278.1,138.4,278.6z"/>
	<path class="st1" d="M119,159.7c0,0-2.1,10.5,0,12.6c2.1,2.1,6.3-1.7,6.3,2.6s1,8-0.9,8.3c-1.9,0.3-4.9-0.3-5,2
		c-0.1,2.3-0.1,6.6-0.1,6.6l2.5,1.6c0,0-2.5-7,0.8-7s9.2-1.3,10,2.6c0.9,3.9,0,7.6,0,7.6h6.7c0,0,1.4-8.3,0-9.2c-1.4-0.9,3-2,4-1.9
		c1,0.1,3.4,2,3.4,2l2.7-1.1c0,0-7.7-4.9-4.9-6.9c2.9-2,4.3-6.2,7-6.2c2.7,0,7.2-0.6,8.9,0.3s1.6-3.3,4.9-3.4
		c3.3-0.1,7.2,0.7,10.3-1.4c3.2-2.1,4-3.3,1.6-2.4c-2.4,0.9-10.7,4.7-13.5,1.9c-2.7-2.9,0.3-10.6-1.7-9.2c-2,1.4,2.7,11.2-2.9,10.6
		c-5.6-0.6-9,3.2-9-1c0-4.2,1.6-8.5-0.4-8.5c-2,0-0.3,12.2-4,12.2c-3.7,0-1.4,9.5-4.2,10.2s-11.1,5.9-11.8,0.4s-3.2-8.3-0.6-8.3
		s4.2,0.4,4.2-2.7c0-3.2,0.4-10.3-0.7-10.5c-1.1-0.1-3.7-1.6-3.7,0.7c0,2.3,2.7,10-0.3,10c-3,0-8,1.3-8-2.1c0-3.4,2.7-10.6,0.6-10.5
		C119,159.7,119,159.7,119,159.7z"/>
	<path class="st1" d="M123.2,135.3c-1-1.2-2.5-0.9-3-2.4c-0.2-0.6,0-1.3,0.2-1.9c0.9-2.3,2.5-4.4,4.5-5.9c0.3,0.4,0.3,1,0.2,1.5
		c-0.5,2.5-1.3,5-2.3,7.4c0-0.5,0.7-0.6,1.2-0.5c1.9,0.4,3.8,1,5.6,1.7c0.2,0.1,0.4,0.2,0.6,0.1c0.3-0.1,2-0.6,2-1
		c0.3-2.3-0.4-4.7-0.8-7c-0.2-1.2-0.3-3.1,0.5-3.1c0.7,0,1.2,2.2,1.4,2.8c0.6,1.5,0.8,3.2,1.2,4.8s1.3,3.1,2.8,3.9
		c1.3,0.7,2.9,0.5,4.4,0.3c8.8-1.2,17.3-4,25.7-6.9c0.6-0.2,1.3-0.5,1.6-1c0.4-0.7,0.3-1.5,0.1-2.3c-0.3-1.3-0.6-2.6-0.9-3.8
		c-0.1-0.3-0.1-0.5-0.3-0.7c-0.3-0.3-0.8-0.4-1.3-0.4c-1.5,0.1-3,0.4-4.3,1c-0.2,0.1-0.5,0.2-0.6,0.5c-0.1,0.2-0.1,0.5-0.1,0.8
		c0.2,2.8,0.9,5.6,0.8,8.4c0,0.3-0.1,0.8-0.5,0.8c-0.3,0.1-0.6-0.3-0.7-0.5c-1.2-2.4-1.4-5.2-2.5-7.7c-0.1-0.3-0.2-0.5-0.5-0.7
		c-0.4-0.3-0.9-0.2-1.4,0c-3.2,0.9-6.2,2.2-9.1,3.7c-0.5,0.3-1,0.6-1.3,1c-0.3,0.4-0.3,0.9-0.3,1.4c-0.1,1.7,0.1,3.5-0.4,5.2
		c-0.1,0.4-0.5,2-0.9,2.1c-0.6,0.1-0.8-1.9-0.8-2.5c-0.2-2.8-0.2-5.6,0-8.4c0.1-0.7,0.1-1.4-0.4-1.9c-0.3-0.3-0.7-0.4-1.1-0.5
		c-3.9-0.9-8.1-0.2-12-1.1c-1.6-0.4-3.4-0.9-4.6-2c-0.3-0.3-0.6-0.7-0.8-1.1c-0.1-0.3-0.1-0.6,0.1-0.8c0.2-0.4,0.7-0.5,1.1-0.5
		c0.4,0,0.9,0.1,1.3,0c0.9-0.2,1.4-1.2,1.7-2c0.9-2.4,1.5-5,2.4-7.4c0.1-0.2,0.2-0.4,0.4-0.4c0.3,0,0.4,0.4,0.3,0.7
		c-0.3,3.4-1.7,6.6-1.9,10c0,0.4,0,0.7,0.1,1.1c0.2,0.4,0.6,0.7,1,1c1,0.6,2.2,0.9,3.4,1.1c1.6,0.3,3.3,0.4,4.9,0.5
		c0.8,0,1.7,0.1,2.6,0.1c0.6,0,1.7,0.2,2.2-0.1c0.9-0.4,0.6-2,0.5-2.8c-0.1-1.1-2.5-10-0.8-10c2.4,0,2.7,9.4,3.2,12.4
		c0.5,3.1,7.6,0.5,10-1c2.4-1.5-3.1-11.1-4.2-12.4s-14.1,1.1-14.6-0.5c-0.6-2.2,10.8-0.8,13.1-2.4c2.3-1.5-4.5-7.9-5.2-8.5
		c-0.8-0.6-10,0.2-10.6,0.2s3-2.4,7.9-2.2c4.9,0.1,9.1-0.5,10.8,0.5c1.7,1-3.7,0.6-5.5,0.9c-1.8,0.3,5,5.6,5.1,8.1
		c0.1,2.4,6.3,0,9.7,0.5s-5.8,1.8-6.9,4.2c-1.2,2.4,3.2,10.1,5.4,10.1c2.2,0,10.5-4.3,11-2.7c0.5,1.6-2.3,2.6-2.8,4.2
		c-0.5,1.6-0.6,4.6,1.4,5.6c2,1,4.8-1.4,6.6-0.3c1.7,1-10.5,4.6-11.7,6.3c-1.2,1.7,3,7.4,1.1,8s-0.4-9.1-7.1-6.1
		c-3.6,1.6-4.5,6,0.4,6.8c4.9,0.8,21.1-4.7,24-5.5c2.8-0.8,2.7,2.9,2.3,4.9c-0.4,1.9-23.1,4.6-27,5c-4,0.4-2.4,8.8-5.6,12.9
		s1.5-7.6,1.7-11.6s-18.8-1-21.1-1s-1.9,12.7-4.9,12.6s-0.3-9.1-0.3-10.8c0-1.8-15.6-0.5-18.2-0.5s-2.3,9.2-4.2,7.8
		c-1.9-1.4,1.4-7.2,2-9.5c0.6-2.3-0.9-0.8-1.9-3.6c-1-2.8,6.8,4.2,11.1,4.2s2.3-8.5,1.7-10.2c-0.6-1.8-10,0.1-11.5-1.5
		c-1.5-1.7,2.3-1.4,4.5-1.4c2.2,0,10.1-9.2,9.6-11c-0.5-1.8-7.7-0.1-8.7-1.7c-0.7-1.1,3.7-1,4.2-1c0.9-0.1,2-0.2,2.7-1
		c1.7-1.8-3.1-1.2-3.9-1.2c1.7-3.2,3.8-6.2,6.3-8.7c0.4-0.4,0.9-0.9,1.4-1.1c0.5-0.2,1.1-0.2,1.7-0.2c2.8,0,5.6,0.1,8.4,0.2
		c0.9,0,1.9,0,2.4-0.7c0.3-0.5,0.3-1.1,0.2-1.7c-0.3-1.9-0.9-3.8-1.9-5.5c-0.3-0.6-0.7-1.1-0.9-1.7c-0.4-1.2-0.3-2.5-0.1-3.8
		c0.5-3.1,1.4-6.2,2.3-9.2c0.2-0.7,0.5-1.5,0.9-2.1c0.3-0.4,0.6-0.7,1-0.9c0.3-0.2,0.6-0.2,0.9-0.2c0.1,0,0.3,0,0.4,0.1
		c0.2,0.2,0.1,0.5,0,0.8c-0.5,1.5-1.2,2.9-1.6,4.4c-1.8,7.1,3,14.5,1.3,21.6c-0.1,0.4-0.2,0.8-0.5,1.1c-0.5,0.5-1.2,0.5-1.8,0.4
		c-2.4-0.2-4.7-0.5-7-0.9c-1.6-0.3-3.2-0.7-4.7-0.1c-2.3,0.8-3.6,3.5-4.5,5.6c-1.4,3.5,3.8-2.4,5.2-0.3c0.1,0.2,0.2,0.5,0.2,0.7
		c0.2,1.4-0.6,2.9-1,4.2c-0.7,2-1.3,3.9-1.8,6c-1,4.2-1.5,8.6-1,12.9c0.2,1.9,0.7,3.9,2.1,5.2c1.4,1.3,4,1.5,5.1,0
		c0.3-0.5,0.5-1,0.7-1.5c0.6-1.8,1.1-3.6,1.7-5.5c0.1-0.4,0.4-1,0.9-0.9c0.4,0.1,0.5,0.6,0.6,1c0.2,2.3,0.1,4.7-0.1,7
		c0,0.3,0,0.6,0.1,0.8c0.2,0.3,0.6,0.3,0.9,0.3c2.5,0.1,5.1-0.1,7.6-0.5c0.2,0,0.5-0.1,0.6-0.2c0.2-0.2,0.2-0.4,0.2-0.7
		c0.1-1.6,0-3.1-0.3-4.7c-0.1-0.4-0.1-0.9,0.2-1.1c0.2-0.2,0.5-0.2,0.8-0.1c0.8,0.1,1.5,0.1,2.3,0.2c0.1,0,0.3,0,0.4,0.1
		c0.2,0.2,0.1,0.5,0,0.7c-0.6,1.7-1.6,3.2-1.6,5c0,0.3,0,0.7,0.2,1c0.3,0.5,1.1,0.6,1.7,0.6c2.9-0.1,5.7-1.1,8.5-2.1
		c0.7-0.3,0.8-1.2,0.8-1.9c-0.1-1-0.5-1.9-1.3-2.6c-0.5-0.5-1.1-0.6-1.7-0.6c-1.5-0.1-3.1,0.2-4.6,0.4c-7.6,1.1-13.4-0.1-21.1-1
		L123.2,135.3z"/>
	<path class="st1" d="M103.2,177.3c0,0,2,17.9,36.1,19.3c34.1,1.4,42.2-26,46.7-24s3,9-7.3,18.2c-10.3,9.2-30.3,17.3-56.2,12.3
		c-19.4-3.8-26.5-17.8-25.7-23.1C97.7,174.7,103.2,177.3,103.2,177.3z"/>
	<path class="st1" d="M185.8,154.8c0,0-37.8,8.1-70.9,4.7C114.8,159.4,143.7,174.3,185.8,154.8z"/>
	<polygon class="st1" points="190.9,212.4 213.6,212.4 208.4,217.4 	"/>
	<polygon class="st1" points="225.4,219.1 241.3,221.6 242.7,230.7 250.7,230.7 250.7,217.4 	"/>
	<polygon class="st1" points="264.4,224 279.6,225.7 279.6,236.8 287.2,230.7 287.2,222.1 	"/>
	<polygon class="st1" points="326.9,236.8 326.9,224 299.3,225.2 318.7,229.4 317.6,242.4 	"/>
	<polygon class="st1" points="208.4,217.4 208.4,229.4 215.8,225.8 213.6,212.4 	"/>
	<g class="st4">
		<path class="st5" d="M247.9,206c-2.6-1.6-11.6-1.5-14.4-1.5c-2.8,0.1-6.7,6.1-6.7,4c0-2.1,5.3-6,4.2-7c-1.2-0.9-7.7-2.8-8.8-2.1
			c-1.2,0.7-6.5,8.4-6.4,6.3c0.1-2.1,4.5-5.6,3.1-7.2c-1.4-1.6-7.2-2.4-8.6-2c-1.4,0.4-2.6,9.9-3.5,5c-0.9-4.9-2.3-7.4-2.8-4
			c-0.5,3.5-4,7.2-1.8,9.1c1.1,0.9,21.8,2.5,43,4.3C246.6,209.3,249.9,207.2,247.9,206z"/>
		<path class="st5" d="M266.9,209.8c-2.2-0.6-9.2-1.5-13.8-1.5c-2.4,0-4.4,1.6-5.8,2.8c6.2,0.5,12.4,1,18.1,1.5
			C266.8,211.3,267.9,210.1,266.9,209.8z"/>
		<path class="st5" d="M271.3,210.4c-1.4,0-2.9,1.1-4.4,2.4c6.9,0.6,12.9,1.2,17.2,1.8c2.2-1.8,5.2-3.7,4.5-4.4
			C287.4,209,275.3,210.4,271.3,210.4z"/>
		<path class="st3" d="M206.6,161.7l16.3,0.9c1.3,0.1,2.3,1.2,2.3,2.5c-0.1,3.3,0.4,9,4.7,11.2c1.3,0.7,2.8,1.1,4.4,1.4
			c-1.1-1.1-2-2.5-2.4-4.3c-1.2-5.6-0.6-13-2.9-13.8c-2.4-0.8-18.1-1-20.6-0.8s-3.9,3.6-3.9,3.6l0.1,0.2
			C205.1,162,205.8,161.7,206.6,161.7z"/>
		<path class="st3" d="M292.4,168.5c-0.4,1.9-0.7,4.1-0.9,6c0.1-0.3,0.2-0.7,0.2-1L292.4,168.5z"/>
		<path class="st3" d="M252,162l13.7,1.6c1.6,0.2,2.8,1.5,2.8,3.2c0,3.8,0.4,10.1,3.7,11.3c2.9,1,9.1,1,13.6,0.8
			c0.5,0,0.9-0.1,1.3-0.2c-3.6-0.7-8.6-1.7-11.2-2.5c-3-0.9-3.7-8.4-3.8-12.9c-0.1-1.9-1.6-3.4-3.5-3.5l-14.8-0.7
			c-1.2-0.1-2.4,0.5-3.1,1.5l-1.9,2.6l0.2,0.5C249.6,162.5,250.8,161.9,252,162z"/>
		<path class="st3" d="M295,165l14.9,1.3c1.3,0.1,2.2,1.2,2,2.5c-0.6,3.8-1.3,11.2,1.3,12.5c1.7,0.9,7.3,0.8,12.4,0.6
			c-2.2-0.8-4.4-1.7-6.1-2.5c-5-2.6-0.9-11.2-3.8-14.5c-2.9-3.4-17.7-1.9-20.6-1.9c-0.8,0-1.4,1.2-2,3
			C293.5,165.3,294.2,165,295,165z"/>
		<path class="st3" d="M335.5,169.4l14.3,5.1l0.7-2.8c0,0-10.7-4.8-13.8-4.8c-2.2,0-2.5,9.2-2.5,14.4c0.8-0.1,1.3-0.1,1.3-0.1V169.4
			z"/>
		<path class="st1" d="M318.4,203.6c9,0,25.5,2,25.5,2l6.6-30.9l-0.7-0.2l-14.3-5.1v11.7c0,0-0.5,0.1-1.3,0.1
			c-1.8,0.2-5.2,0.5-8.7,0.6c-5.1,0.3-10.6,0.3-12.4-0.6c-2.6-1.3-1.8-8.7-1.3-12.5c0.2-1.2-0.7-2.4-2-2.5L295,165
			c-0.8-0.1-1.5,0.3-1.9,0.9c-0.2,0.3-0.4,0.6-0.4,1l-0.2,1.6l-0.7,4.9c0,0.4-0.1,0.7-0.2,1c-0.6,2.1-2.3,3.6-4.4,4.2
			c-0.4,0.1-0.9,0.2-1.3,0.2c-4.5,0.2-10.7,0.2-13.6-0.8c-3.3-1.2-3.8-7.5-3.7-11.3c0-1.6-1.2-3-2.8-3.2L252,162
			c-1.2-0.1-2.4,0.4-3,1.4c-0.3,0.5-0.5,1.1-0.5,1.8v12.7c0,0-7.8,1.1-14.1-0.1c-1.6-0.3-3.2-0.7-4.4-1.4c-4.3-2.2-4.8-8-4.7-11.2
			c0-1.3-1-2.4-2.3-2.5l-16.3-0.9c-0.8,0-1.5,0.3-1.9,0.8c-0.4,0.4-0.6,1-0.6,1.6v29.9c0,0-5.8,10.3-5.8,14c0,2.4,36.7,6,64,7.7
			c-0.5,0.6-0.8,1.2-0.6,1.5c0.3,0.6,1.2-0.2,2.4-1.4c7.1,0.4,13.5,0.7,18.3,0.8c-0.1,0.2-0.1,0.4,0,0.6c0.3,0.6,1.2,0.2,2.4-0.6
			c3.8,0,6.1-0.2,6.3-0.5c0.2-0.4-1.3-0.7-4-1.2c2.3-1.7,4.8-3.7,6.4-3.7c3.2,0,16.4,3.1,18.1,3.5c1.7,0.4-1.3,2-1.7,2.5
			c-0.4,0.6-9-1.4-12.8-1.4c-3.8,0-6,4.6-5.4,7c0.6,2.4,2.8-2,5.8-3.9c1.1-0.7,6.7-0.1,13.2,1c0.8-1,2.4-2.4,4.1-2.7
			c2.6-0.4,22.3,1.6,29.9,1.8c7.6,0.1-8-3.5-11.6-4.2c-3.6-0.7-3-4-2.8-4.8c0.2-0.8,7,0.4,9.6-0.6c2.6-1-19.3-3.8-25.5-3.8
			c-6.2,0,10.8,4.2,12.5,4.8c1.7,0.6,0.5,2,0,4.4c-0.5,2.5-22-3.3-25.8-2.5C297.3,213.1,309.4,203.6,318.4,203.6z M245.2,211
			c-21.2-1.7-41.9-3.4-43-4.3c-2.2-1.9,1.3-5.6,1.8-9.1c0.5-3.5,1.8-0.9,2.8,4c0.9,4.9,2.1-4.7,3.5-5c1.4-0.4,7.2,0.4,8.6,2
			c1.4,1.6-3,5.1-3.1,7.2c-0.1,2.1,5.2-5.6,6.4-6.3c1.2-0.7,7.7,1.2,8.8,2.1c1.2,0.9-4.2,4.9-4.2,7c0,2.1,4-4,6.7-4
			c2.8-0.1,11.9-0.2,14.4,1.5C249.9,207.2,246.6,209.3,245.2,211z M265.3,212.7c-5.7-0.5-11.9-1-18.1-1.5c1.4-1.3,3.4-2.8,5.8-2.8
			c4.7,0,11.6,0.9,13.8,1.5C267.9,210.1,266.8,211.3,265.3,212.7z M284.2,214.6c-4.3-0.6-10.3-1.2-17.2-1.8c1.4-1.3,2.9-2.4,4.4-2.4
			c3.9,0,16.1-1.4,17.3-0.2C289.5,211,286.4,212.9,284.2,214.6z"/>
		<path class="st1" d="M325.6,222.7c-4.4-0.8-9.9-1.8-14.9-2.6c-0.4,0.5-0.7,0.8-0.7,0.8S318.7,221.8,325.6,222.7z"/>
		<path class="st1" d="M333.8,224c-0.4-0.3-3.9-0.8-8.1-1.3C330.6,223.6,334.1,224.3,333.8,224z"/>
	</g>
	<path class="st3" d="M229.6,175.1c0,0-25.6-1.6-25.6,0c0,1.6,26.9,1.4,26.9,1.4L229.6,175.1z"/>
	<path class="st3" d="M346.2,194.1c0,0-142.2-9.5-142.3-7.9c-0.1,1.6,142.3,9.9,142.3,9.9V194.1z"/>
	<path class="st3" d="M344.6,202.5c0,0-77.7-5.5-118.2-7.6c-0.9,0-1.8-0.1-2.7-0.1c-11.7-0.6-19.2-0.8-19.2-0.5
		c-0.1,1.6,139.8,9.7,139.8,9.7L344.6,202.5z"/>
	<path class="st3" d="M224.1,184.7v11.6l1-1.1c0,0,0.1-11.8-0.5-11.4S224.1,184.7,224.1,184.7z"/>
	<path class="st3" d="M253.1,174.4V186l1-1.1c0,0,0.1-11.8-0.5-11.4C253,173.9,253.1,174.4,253.1,174.4z"/>
	<path class="st3" d="M271.6,179.9v23.8l1-2.2c0,0,0.1-24.3-0.5-23.4C271.5,178.9,271.6,179.9,271.6,179.9z"/>
	<path class="st3" d="M299.2,189.7v16l1-1.5c0,0,0.1-16.4-0.5-15.8C299.1,189,299.2,189.7,299.2,189.7z"/>
</g>
</svg>
