<?xml version="1.0" encoding="utf-8"?>
<!-- Generator: Adobe Illustrator 21.1.0, SVG Export Plug-In . SVG Version: 6.00 Build 0)  -->
<svg version="1.1" id="Layer_1" xmlns="http://www.w3.org/2000/svg" xmlns:xlink="http://www.w3.org/1999/xlink" x="0px" y="0px"
	 viewBox="0 0 109.6 91.3" style="enable-background:new 0 0 109.6 91.3;" xml:space="preserve">
<style type="text/css">
	.st0{fill:#7ACEC6;}
	.st1{fill:#8CEAE3;}
	.st2{fill:#559991;}
</style>
<g id="Layer_1_1_">
</g>
<g id="Layer_2">
	<path class="st0" d="M98,71.7L65.8,91.3L9.9,65.7L0.6,33.5l6.6-3.1l-7.5-2.7l2.7-5.6c0,0,2.2,1.3,5.5-3S27,0.2,30.1,0
		s8.5,4.6,11.6,4.8C44.9,5,54.4,8.6,54.4,8.6s17.4,6.5,19.9,7.3s14.4,3.3,15.9,3.5s13.3,10.8,14.1,10.8s4.5,0.3,4.5,0.3l0.8,8.1
		L98,71.7z"/>
	<polygon class="st1" points="21.3,67.5 11.6,63.8 6.2,43.8 19.6,49.1 	"/>
	<polygon class="st1" points="46.1,76 44.3,57.6 24.9,49.4 27.2,68.2 	"/>
	<polygon class="st1" points="61.4,83 63,64.9 49.1,59.1 51,78.7 	"/>
	<polygon class="st1" points="72.7,81.8 95.7,68.1 103.3,48.3 74.3,63.6 	"/>
	<polygon class="st2" points="105,40.9 68.7,59.9 3.9,33.5 8.8,31.4 71.7,54.6 	"/>
	<path class="st1" d="M77.9,46.4c0,0,5.9-9.5,6.8-12.9s3.9-7.5,5.7-7.5s13.2,9.3,11.8,10.2C100.7,37.2,77.9,46.4,77.9,46.4z"/>
	<path class="st1" d="M65.8,44.4l-13-4.7c0,0,5.1-4.4,9.4-11.6s9-12.1,10.6-12.2c1.6-0.1,11.4,2.2,11.4,2.2s-6.4,1.5-9.3,7.8
		S65.8,44.4,65.8,44.4z"/>
	<path class="st1" d="M48,38.9c0,0,8.3-10.5,12.7-17.2s9.8-7.2,9.8-7.2L49.5,7c0,0-3.6,0.3-6.5,3.6c-2.8,3.3-15,20.5-15.8,20.7
		L48,38.9z"/>
	<path class="st1" d="M21.3,29.5c0,0,11.6-11.9,13.4-16.2s9.3-8,9.3-8s-5.3-1.4-7.5-2.6c0,0-5.2,1.1-12.2,7S9.6,24.9,9.6,24.9
		L21.3,29.5z"/>
</g>
</svg>
