<?xml version="1.0" encoding="utf-8"?>
<!-- Generator: Adobe Illustrator 21.1.0, SVG Export Plug-In . SVG Version: 6.00 Build 0)  -->
<svg version="1.1" id="Layer_1" xmlns="http://www.w3.org/2000/svg" xmlns:xlink="http://www.w3.org/1999/xlink" x="0px" y="0px"
	 viewBox="0 0 88.3 80.2" style="enable-background:new 0 0 88.3 80.2;" xml:space="preserve">
<style type="text/css">
	.st0{fill:#597FD3;}
	.st1{fill:#425E9B;}
</style>
<g id="Layer_1_1_">
</g>
<g id="Layer_2">
	<path class="st0" d="M26,77.6c0,0,6.9-5.2-1.7-12.1s-32.1-6.4-18.8-9.1s23.7,10.1,20,2.5s-27.7-11.4-20-12.4s16.6,6.1,15.2,1.4
		s-14-17.2-9.8-15.5c4.2,1.7,12.1,17.9,11.6,7.8c-0.3-5.8-3-6-5.9-9.6c-1.7-2.1-3.3-4.2-5.9-4c-3.7,0.3-8.1,0.5-6.5-0.4
		c2.7-1.5,11.5-0.2,9-1.4s-11-4-8.1-4.2s15.6,6.2,14.8,1S-0.7,5.7,9,7.2s17.8,17.3,17.3,11.4S17.9,4,20.8,6s7.2,16.3,9.4,13.4
		s-6.4-18.8-2-18s2,31.2,8.7,28.7S48.5,17.5,51.5,19S35.4,33.8,35.2,38c-0.3,4,13.1-12,11.8-6.6c-1.2,5.4-18.5,19-16.8,21.3
		c1.7,2.2,9.4-10.1,9.9-7.2s-11.9,12.4-9.6,17.1s8.2-11.1,8.4-7.4c0.2,3.7-10.4,21.3-8.4,22.5C32.4,78.9,26,77.6,26,77.6z"/>
	<path class="st0" d="M30.5,70.4c0,0,19.8-1.6,18.6-7.3S40.5,42.7,44.7,48s8.7,18.1,8.1,9.9c-0.6-8.3-8.7-18-4.9-17.5
		c3.9,0.5,8.3,16.5,8.1,8.3c0-8.2-10-23.1-6-20.7s7.9,12.6,9.2,9.1c1.3-3.6,4.7-10.9,0-18.6S38.3,8.9,45.1,7.3s18.6,8.4,19.4,13.6
		s0.2,11.7,2.1,6.2s1.9-12.1-4.7-16.4s-13.4-6.5-10.2-7s15,3.1,17.2,8.3s-2.3,12.1,2.6,11s5.3-5.5,10.5-5.3s5.8,3.4,1.9,3.6
		s-15.1,5-15.1,10.2s4.2-4.4,7.9-4.5c3.7-0.2-9.9,9.2-9.9,13.6s11.7-10.2,10-4.7s-16,10-16.4,16.8S72.2,46,72,49.2
		s-13.3,7.1-14.3,13c-1,5.8,9.1-4.2,10.7-3.1C70,60.2,53,67.2,55.6,69.3s8.7-2.8,8.7-1s-2.4,5.3-8.6,5.3s-17-5-17-1.6
		s2.8,4.7,2.8,4.7H36c0,0-1.3-3.1-3.9-3.1S30.5,70.4,30.5,70.4z"/>
	<path class="st1" d="M26.9,56.9c-0.1-1.9-0.8-3.6-1.9-5.1c-1.7-2.2-3.8-5-2.4-3.9c2.1,1.8,4.3,4.8,4.1,1.2s1.9-8.5-1.6-12.5
		s-10.4-11.3-7.3-9.1s8.5,6.6,7,3.8s-8.6-7.2-4.8-5s7.9,4.3,7,1.4s-4-7.2-6.9-10S12,12,14,11.9s12.9,13.2,14.4,13
		c1.5-0.2,1.5-5.4,1.8-3.6s-4,14.4-1.2,13.2c2.7-1.2,0.5-6.6,2.1-6.7c1.1-0.1-0.9,7.2,1.1,6.7s2.8-5.1,4.9-3.1c2.1,2-6,5-5.7,8.3
		c0.4,3.3,9.3-3.8,6.1,0s-9.2,8.9-9.2,11.5c0,2.6-0.1,8.1,0.8,6.2c1-1.9,2.8-5.3,3.1-4.1s-3.7,7.6-3.7,10.9c0,3.2-16.5-5.2-16-6
		c0.7-1.1,14.7,6.6,14.6,4.2C27.4,61.2,27,58.3,26.9,56.9z"/>
	<path class="st0" d="M27.7,47.5c0.1-0.7,0.5-1.3,0.8-1.8s0.7-1.5,0.6-3c-0.2-2.6-4.1-7.6-2.9-7.2c1.2,0.4,1.8,3.3,3,1.8
		c1.2-1.6,2.4-2.6,2.3-1.8s-2.3,2.8-1.9,4.7s5.4-0.3,4.1,1.1c-1.3,1.4-5.9,8.1-5.9,9.8s0.6,8.4-0.1,6.2s-3.3-7-2.2-6.1
		c1.1,0.9,1.1,3,1.5,1.1C27.6,50.8,27.2,49.4,27.7,47.5z"/>
	<path class="st1" d="M49.8,70.9c-1.1-0.4-1.2-1.8-0.2-2.4s1.8-1.5,1.9-2.9c0.1-3.4-5.2-12.1-3.9-10.9c1.3,1.2,5.8,11.3,6.8,10.1
		c1-1.2,1.5-5.4,1-8.3c-0.6-2.9-8.3-14.8-6.5-13.5c1.7,1.3,8.1,13,8.7,11.9s0.5-8.6,0.5-9.8c0-1.1-6.3-13.4-4.8-11.1
		c1.5,2.3,5.1,9.4,6.7,7.3s3.4-7.2,3.4-10.6s-0.5-8.8,0-7.3s-0.8,11.4,1.4,9.7c2.2-1.7,2.9-8.1,4.1-8.2s-2.7,5.4-0.8,3.9
		C70,27.3,76,20.7,80,19.5s4.9,0.4,3.3,0.6c-1.7,0.2-8.3,2.5-11.9,7.1s-9,12.5-6.9,11.1c2.1-1.3,4.3-4.8,4.4-4.4
		c0.2,0.5-10.2,12.9-7.2,11.1c2.9-1.8,8.8-5.1,5.1-2.4c-3.7,2.7-7.2,4.8-7.5,7.6s3.6,4.3,1.5,5.6s-3.3,2.3-3.7,3.7s0.1,5.7-3,8.3
		s2.4,3.6,4.4,2.9c2-0.6,4.1-1.7,2.5-0.2c-1.7,1.4-3.6,1.5-6.2,1.4C53.5,72.1,51.5,71.5,49.8,70.9z"/>
</g>
</svg>
