<?xml version="1.0" encoding="utf-8"?>
<!-- Generator: Adobe Illustrator 21.1.0, SVG Export Plug-In . SVG Version: 6.00 Build 0)  -->
<svg version="1.1" id="Layer_1" xmlns="http://www.w3.org/2000/svg" xmlns:xlink="http://www.w3.org/1999/xlink" x="0px" y="0px"
	 viewBox="0 0 288 300" style="enable-background:new 0 0 288 300;" xml:space="preserve">
<style type="text/css">
	.st0{fill:#425E9B;}
	.st1{fill:#597FD3;}
</style>
<path class="st0" d="M67.8,275.3c17.6,0.1,31.5-15.6,28.5-32.9c-0.1-0.4-0.2-0.9-0.3-1.3c-4-18-51-31-61-32s-31,7-26,0s26-3,21-8
	s-28,8-22,0s28-3,28-15s-5-28,1-22s4,35,8,30s2-35,7-20s-11,24,0,29s7-28,12-22s-3.8,27.8,6,30c9,2,31.9,15.7,29,1
	c-2-10-21-40-29-43s-20.7-0.9-19-6c1-3,19,4,19,0c0-11.4-33-7-26-13s22,5,20-4c-0.9-4-6.9-4.1-10.1-4.2c-5-0.1-10.3,0.6-15.2-0.3
	c-2.2-0.4-4.6-1.3-4.7-4c0-0.6,0.2-1.2,0.6-1.5c0.3-0.2,0.8-0.3,1.2-0.3c7.6-0.7,24.8,5.9,27.3-5.7c0.9-4.2,1-10,1.5-12.6
	c0.2-1.3,2-2.4,3.3-2.6c0.3-0.1,0.6-0.1,0.9,0.1c0.6,0.3,0.8,1,0.9,1.6c0.8,5.1,0.2,10.6,0.2,15.8c0,2.7,0,5.4,0.2,8.1
	c0.1,1.1-0.1,3.9,0.8,4.8c0.5,0.5,0.8,0.5,1.2-0.1c4-5,4-35,9-29s-10,38,2,34s10-25,15-20s-12,28-10,38s29,54,34,48s4-13-2-19
	s-23-14-17-15s12,6,13,1s-25-15-18-16s22,10,21,5c-0.5-2.4-4.1-4.5-5.9-5.8c-5-3.5-10.9-6.4-15.1-10.8c-1.6-1.7,0.7-2.8,2.2-2.7
	c4.9,0.3,7.9,5.1,12.6,6c4.6,0.9,5-6.9,5.3-9.7c0.5-5.1,0-22,6-22s-5,40,0,36s8-19,13-15s-10,24-7,31s9-19,15-16s-10,30-10,36
	s4,32,11,29s38-44,29-59s-41-33-31-37s31,35,33,27s-25-28-18-29s26,25,26,18s-11.9-19-11-21c5-11,10,15,20,13s18-29,27-25
	s-31,42-26,42s20-21,27-20s-31,33-29,37s31-26,36-18s-36,27-40,34s-27,56-23,58s33-11,28-25s-5-27-1-26s8,23,11,20s-6-27-2-28
	s7,27,12,22s-3-26,2-28s5,30,12,28s24-10,24-2s-34,5-31,10s25-1,26,3s-29,1-30,5s21,1,18,5s-27,7-31,6s-53,40-53,46s-71,9-95,3
	c-13.6-3.4,29-8,18-8s-69,6-47,0C38.8,275.8,55.1,275.2,67.8,275.3z"/>
<path class="st1" d="M147,279c-2.6,2-5.7,3.1-9,3.4c-17.9,1.4-77.5,6-69,2.6c10-4,42-6,33-8s-24-2-18-3s69-5,64-2s-34,6-29,7
	S151,276,147,279L147,279z"/>
<path class="st1" d="M97.7,268.7c2.9-1.1,6-1.8,9.1-1.9c12.7-0.4,46.7-1.8,53.2-5.9c8-5-17,5-14-4s17-22,16-26s-24,20-24,14
	s-12-85-9-37c1,15.6,1,24-9,18s-16-20-16-12s0,14-8,11s6,4,8,15s-17,29-14,30C92.1,270.7,94.6,269.9,97.7,268.7z"/>
<path class="st0" d="M108,258c0,0,5-7,4-14s-9-13-6-13s6,4,6,0s-5-13-2-10s8,16,15,15s7-11,8-7s-2,23,3,22s18-16,14-9s-10,13-9,17
	s13,3,6,3s-43,0-48,2S98,260,108,258z"/>
</svg>
