<?xml version="1.0" encoding="utf-8"?>
<!-- Generator: Adobe Illustrator 21.1.0, SVG Export Plug-In . SVG Version: 6.00 Build 0)  -->
<svg version="1.1" id="Layer_1" xmlns="http://www.w3.org/2000/svg" xmlns:xlink="http://www.w3.org/1999/xlink" x="0px" y="0px"
	 viewBox="0 0 217 300" style="enable-background:new 0 0 217 300;" xml:space="preserve">
<style type="text/css">
	.st0{fill:#597FD3;}
</style>
<path class="st0" d="M65.9,281.5c9.8-0.2,17.8-8,18-17.9c0.1-5.2-0.8-10.6-4.1-15.2c-9.1-12.8-75-49.4-56.7-43.9s40.2,23.8,29.3,5.5
	S-2.4,169.8,14,169.8s32.9,38.4,32.9,12.8s-64-58.5-42.1-54.9s40.2,29.3,32.9,9.1S8.5,98.5,19.5,98.5s23.8,36.6,21.9,16.5
	C39.6,94.8,3.1,52.8,8.5,52.8c2.9,0,6.1,4,7.9,5.9c5.2,5.3,9.4,11.7,15.8,15.7c3.4,2.1,6.7,1.5,7.4-2.8C42.2,55,45,39.1,50.2,23.1
	c2.4-7.2,4.7-14.6,9.2-20.8c1.1-1.6,3.1-3.8,4-0.7c3.7,12.8-23.8,87.8-12.8,87.8s11-23.8,20.1-23.8S54.3,93,57.9,104
	s25.6-23.8,25.6-14.6s-27.4,34.7-25.6,43.9s23.8-23.8,18.3-11s-31.1,16.5-18.3,31.1s31.1-20.1,32.9-12.8S56.1,168,63.4,173.4
	s23.8-14.6,23.8-5.5s-21.9,9.1-20.1,21.9s18.3-5.5,20.1,0s-21.9,11-18.3,21.9s47.5,23.8,49.4,14.6s-29.3-53-20.1-51.2
	s29.3,47.5,29.3,27.4s-40.2-69.5-29.3-62.2s38.4,53,38.4,40.2s-43.9-69.5-34.7-65.8s27.4,40.2,27.4,29.3S110.9,78.4,116.4,82
	s12.8,32.9,14.6,29.3s3.7-43.9,5.5-38.4s0.4,47.7,3.7,49.4c7.3,3.7,14.6-18.3,14.6-31.1s-29.3-45.7-20.1-45.7s21.9,20.1,25.6,16.5
	c3.7-3.7,7.3-43.9,14.6-32.9s-25.6,54.9-9.1,54.9s25.6-32.9,31.1-16.5s-32.9,18.3-36.6,45.7s25.6-18.3,29.3-12.8
	s-34.7,32.9-32.9,40.2s23.8-9.1,27.4-9.1s-38.4,23.8-34.7,34.7s29.3-11,31.1-1.8s-47.5,34.7-40.2,42.1s25.6-16.5,29.3-7.3
	s-38.4,27.4-38.4,36.6s18.3-11,25.6-5.5s-34.7,23.8-27.4,31.1c7.3,7.3,76.8-5.5,64,5.5c-12.8,11-69.5,7.3-49.4,11s73.1,1,73.1,9.1
	c0,5.5-192,18.6-192-1.8C25,282.5,49.6,281.7,65.9,281.5z"/>
</svg>
