<?xml version="1.0" encoding="utf-8"?>
<!-- Generator: Adobe Illustrator 21.1.0, SVG Export Plug-In . SVG Version: 6.00 Build 0)  -->
<svg version="1.1" id="Layer_1" xmlns="http://www.w3.org/2000/svg" xmlns:xlink="http://www.w3.org/1999/xlink" x="0px" y="0px"
	 viewBox="0 0 153 267" style="enable-background:new 0 0 153 267;" xml:space="preserve">
<style type="text/css">
	.st0{fill:#2E4172;}
	.st1{fill:#425E9B;}
</style>
<path class="st0" d="M47.4,266.8c-5.3,0.1-9.8-3.8-10.4-9.1c-3.1-28.9-12-115.4-7-113.7c6,2,9,14,8,11s13-75,6-88S-8,45,1,38
	s47,23,45,12S24,36,32,31s19,13,20,7s0-40,8-38s-10,52,0,50s17-36,22-30s-17,40-9,42s27-11,27-19s-5-24,0-21s-1,21,6,21s25-5,21,1
	s-17,2-26,10S76,69,79,78s12-4,15-1S69,93,75,97s11-7,15-5s-22,19-22,27s38-7,42-19s0-40,5-35s-3,38,5,38s37-6,32,2s-35,8-49,14
	s-47,16-47,33s24,3,24-6s4-16,5-10s-5,21-1,21s11-8,14-4s-38,14-42,27s-6,75,10,75s72-13,71-1C136.2,263.7,71.9,266.2,47.4,266.8z"
	/>
<path class="st1" d="M51.6,110.4c2.6,2.7,2.1-2.5,2.1-3.8c0-2.9,0-5.8,0-8.7c0-6.6-0.3-13.3,0.3-19.8c1-10-13-17-7-17
	c1.8,0,3.9,0.6,5.5,1.4c1.1,0.5,2.1,1.1,3.3,1.2c3.7,0.2,5-7.5,6.4-10.1c1-1.9,3.8-6.2,3.8-1.5c0,7-6,17,0,17s-6,15-2,16s13-8,12-2
	s-22,23-15,20s22-20,15-6s-29,38-23,36s26-19,20-8c-3.1,5.7-8.1,10.1-13,14.4c-4.6,4-9.8,7.3-11.5,13.5c-2.1,7.5-1.3,15.4-1.7,23.1
	c-0.5,7.6-0.6,15.2-0.8,22.8c-0.3,12.9-0.5,25.8,0.5,38.7c0.4,5.2,0.6,12,3.4,16.6c8,13-8,13-8,0s-13-98-10-95s7,11,8,6
	c3.1-15.3,3.7-31.3,5.9-46.8c0.4-2.5,0.5-11.9,3-13.2c1,1.4,1.6,3.2,2.3,4.8C51.3,110,51.5,110.2,51.6,110.4z"/>
</svg>
