<?xml version="1.0" encoding="utf-8"?>
<!-- Generator: Adobe Illustrator 21.1.0, SVG Export Plug-In . SVG Version: 6.00 Build 0)  -->
<svg version="1.1" id="Layer_1" xmlns="http://www.w3.org/2000/svg" xmlns:xlink="http://www.w3.org/1999/xlink" x="0px" y="0px"
	 viewBox="0 0 412.4 300" style="enable-background:new 0 0 412.4 300;" xml:space="preserve">
<style type="text/css">
	.st0{fill:#FE6766;}
	.st1{fill:#425E9B;}
	.st2{fill:#F8F7F7;}
	.st3{fill:#FEFEFE;}
	.st4{fill:#FEFDFD;}
	.st5{fill:#F3EDED;}
	.st6{fill:#FDFEFD;}
	.st7{fill:#FDFDFD;}
	.st8{fill:#F6F1F1;}
	.st9{fill:#597FD3;}
	.st10{fill:#2E4172;}
	.st11{fill:#FDFCFC;}
</style>
<path class="st0" d="M368.7,217.8"/>
<path class="st1" d="M377.3,228.5c2.2-0.2,4.7-0.6,5.9,1.1c1.3,1.8-0.9,3.2-2.3,4.4c-7.5,6.1-17.1,9.6-26.8,12.9
	c-19.1,6.6-39.2,10.4-60,12.2c-3,0.4-5.8,1.1-7.3,3.5c-8.9,13.9-24.4,21.5-41.9,27.2c-13.9,4.5-28.3,7.1-43.1,8.9
	c-4.3,1.5-8.9,0.5-13.3,1.3c-4-0.1-8.1,0-12-0.4c-4.7-0.5-5.5-1.9-3.7-5.3c2.2-4.2,5.6-7.8,8.6-11.7c5.1-6.7,10-13.9,12.9-22
	c0.7-1.8,1.1-3.7,1.4-5.7c0.1-0.7,0.2-1.4-0.1-2c-0.6-1.5-2.6-1.6-3.9-2.3c-25.9-6.8-50.9-15.1-73.9-26.8c-2-1-2.9-0.7-3.8,1
	c-10.3,18.5-26.8,33.2-45.6,46.6c-4.2,3-8.8,7.2-14.3,6.6c-0.3,0-0.6-0.1-0.9-0.3c-0.3-0.3-0.3-0.8-0.3-1.2c0-8.7,0-17.3,0-26
	c0,7.5,0,14.9,0,22.4c0,1.1-0.1,2.4-1,3c-0.4,0.3-1.8-7.7-1.8-8.5c-0.1-3,0.2-5.9,0.3-8.9c0.1-6.5,0.1-13-1.1-19.4
	c-2.6-13.2-6.5-26-11.3-38.5c-7.7-20.4-19-39.5-33.5-57.4c-1.5-1.8-2.8-3.8-3.8-5.8c-1.7-3.3-0.2-4.8,4.3-5
	c7.3-0.2,14.1,1.7,20.8,3.6c24.3,6.8,47.5,15.5,69.7,25.7c3.5,1.6,4.8,1.6,5.8-1.9c2.2-7.7,4.1-15.5,7.5-23c8.4,3.5,10,2.5,12-4.3
	c0.6-2.1,0.3-4.1,0.1-6.2c-0.1-1.3-0.4-2.9,1.5-3.6c2.1-0.7,3.6,0.5,4.4,1.9c1.8,3.2,4.7,4.3,9,3.4c2.6-0.5,5.3-0.2,7.9,0
	c3.9,0.3,7.5,0.4,11.1-1.5c3-1.6,6.6,0.1,10.2,0.5c-0.6-2.2-2.2-3.6-3.2-5.1c-1.1-1.7-1-2.9,1.5-3.3c4.2-0.7,2.9-2.3,0.8-3.7
	c-2.2-1.5-4.1-3.4-6.9-4.4c-1.4-0.5-2.8-1.5-1.9-2.9c0.9-1.3,2.7-1.3,4.1-0.7c2.6,1,4.5,0.6,6.7-0.8c2.6-1.7,6.2-1.3,9.3-2.1
	c-2.2-3-2-3.6,2.1-3.5c2.5,0,3.5-0.9,3.6-2.5c0.1-3.1,1.9-4.7,5.8-5.1c1.8-0.2,3-1.3,4-2.3c1.9-1.9,3.4-2.7,6.2-0.3
	c2.4,2.1,6,3.5,10.2,2.3c0.2-0.7-0.7-0.7-1.1-0.8c-1.8-0.7-4-1.2-3.9-3.2c0-2,2.2-2.5,4-3.1c0.7-0.2,1.7-0.3,2.1-0.8
	c5-6.2,12.2-3.2,18.8-3c1.4,0.5,2.1,1.4,2.2,2.6c0,0.4-0.3,0.7-0.3,1.1c-0.1,2.4-1.2,5.6,1,6.9c2.5,1.4,5.5-1.3,8.3-2
	c1.8-0.5,2.6-1.5,2.2-3.1c-0.2-0.9-0.1-1.8,1.2-2.1c1.4-0.4,2.3,0.2,3.1,1c3.6,3.3,3.6,3.3,8.4,0.5c0.7-0.2,1.3-0.2,1.9,0.2
	c0.6,0.7,0.3,1.4,0.1,2.1c-0.4,1-1.7,2.1-0.4,3.1c1.5,1.1,3.2,0.3,4.7-0.4c0.7-0.3,1.3-0.6,2.1-0.7c5.3-0.9,8.1-3.3,8.7-7.5
	c0.7-4.6,5.5-8.9,10.3-6.3c1.7,1,2.9,3.6,3.7,1.9c0.8-1.5,1.8-2.6,4.1-2.4c1.6,0.2,3.1,1,2.1,2.2c-3.6,4.3-2.1,9.2-2.8,13.9
	c-0.1,0.5-0.2,1-0.5,1.4c-0.3,0.3-0.6,0.6-1,0.8c-2.6,0.9-5.4,1-8.2,1.2c-3.5,0.3-4.4,1.6-4,4.6c0.3,2.8,2.7,2.7,5.1,2.3
	c2.9-0.5,5.1-0.4,7.7,1.1c4.4,2.4,11.7-0.3,12.8-4.5c1.7-6.5,6.4-8.7,14.6-7.1c4.1,0.8,7.9,0.8,12.2-0.5c6.3-1.8,13-1,18.8,1.3
	c3.4,1.3,4.2,5.2,3.7,8.2c-0.7,3.8,0.7,7.5-0.3,11.3c-0.5,1.9,1.2,2.9,3.6,3.1c1.5,0.2,3.1,0.1,4.6,0.4c3.3,0.7,5.2,2.1,5.7,5
	c0.9,5-0.3,10,1.6,14.9c1,2.7,2.1,4.1,5.9,3.7c1.7-0.2,3.4,0,5.1-0.1c6.3,9.8,11.4,20,17.8,29.7"/>
<path class="st1" d="M51.9,275.9c0-9.9,0-19.8,0-29.9c2.2,0.5,1.9,1.4,1.9,2c0,8.9,0,17.8,0,26.8c0,1,0.2,2-1.1,2.6
	C51.9,277,51.9,276.5,51.9,275.9z"/>
<path class="st2" d="M368.7,217.8c-0.2,0.6-0.6,1.3-1.4,1.2"/>
<path class="st0" d="M122.9,100.1c1.3,0.1,1.9,0.6,1.5,1.7c-0.2,0.5-0.7,1-1.2,0.6c-0.4-0.3-0.3-1.1-0.5-1.6
	C122.6,100.4,122.7,100.2,122.9,100.1z"/>
<path class="st0" d="M331.6,69.8c-0.5,0.7-1.3,1-2,0.3c-0.9-0.9,0.8-1,0.9-1.5C331.2,68.7,331.5,69.2,331.6,69.8z"/>
<path class="st1" d="M353.3,101.6c-6.6-10.9-13.5-21.7-21.7-31.9c-1.1,0-0.8-0.8-1.1-1.2c-4.3-4.7-8.4-9.6-14.4-13.1
	c-2.5-1.5-4.1-3.1-5.1-5.4c-2.6-6-5.4-12.1-8.2-18c-3.1-6.5-7.5-13.2-16.1-16c-11.6-3.9-24.1-5.3-36.6-6.7
	c-13.4-1.4-26.8-3-40.3-4.2c-4.5-0.4-9-0.8-13.6-1.1c-10.3-0.8-20.6-1.3-31-1.9c-10.6-0.6-21.3-0.7-31.8-1.6
	C123.3,0,113-0.6,103,1.4c-1.7,0-3.7-0.1-4.3,1.4c-0.7,1.7,1.3,2.4,2.6,3c6.7,3.1,13.5,5.9,20.2,9c17.8,8.3,31.8,18.9,35.3,36
	c0.5,2.3-0.1,3.5-2,5.1c-15.4,12.5-24.8,27.8-31.8,44c0.3,0.3,0.6,0.5,0.5,0.8c0,0.1-0.4-0.1-0.7-0.2c-2,1.4-2,3.5-2.7,5.4
	c-4.2,10.1-8.7,20.2-11.3,30.7c0.5,2.1,3.1,2.3,4.9,2.9c3.2,1.2,6.7-0.8,6.9-2.6c0.5-3.5,3.7-6.9,1.5-10.7c-0.5-0.8-1-2.8,0.9-3.2
	c1.7-0.4,2.4,1,3,2.3c1.3,2.6,3.4,4.6,7.4,3.9c4.9-0.9,9.7-0.6,14.6,0c1.4,0.2,3.2,0.5,4.4-0.6c3.3-3.1,7.1-2,10.9-0.9
	c1,0.3,1.9,1.1,2.9,0.2c0.8-0.8,0.9-2.2,0-2.7c-2.3-1.5-2.4-4-4.6-5.4c0.8-0.7,1.6-0.9,2.4-0.7c1.2,0.3,2.5,0.7,3.2-0.5
	c0.6-1,0.9-2.4-0.1-3.1c-2.6-2-5.3-3.9-8.3-5.5c-1.3-0.7-3.4-1-2.6-2.3c0.7-1.1,2.7-0.7,4,0.2c1.5,1,3.9,1.2,4.6,0.4
	c2.6-3.3,6.9-2.6,10.7-3.3c1.1-0.2,2.8,0.3,3-1c0.2-1.2-1.4-1-2.3-1.2c-0.7-0.2-1.6-0.4-1.4-1.2c0.2-0.7,0.9-0.8,1.8-0.6
	c5.3,0.8,5.6,0.6,5.9-3.5c0.1-1.5,0-3.4,2.5-3.3c3.9,0.1,5.9-1.7,7.8-3.9c1.2-1.4,2.3-1.9,2.8,0.3c0.1,0.6,0.4,1.2,1.2,1.5
	c4.5,1.1,9,3.3,14.2,0.3c-1.8-0.7-3.4-1.4-5.1-1.9c-1.4-0.4-2.8-0.7-2.7-2.1c0.1-1.4,1.7-1.6,3-1.9c2.5-0.6,4.9-1.1,6-3.5
	c0.7-1.5,3.6-2.4,5.1-1.7c3.3,1.7,6.7,0.6,9.9,1c0.6-1,0.1-1.9-0.4-2.8c-4.9-7.9-5.5-16.4-4.7-25c0.5-5.1,1.8-10.3,9-12.6
	c3.3-0.8,6.7-0.7,10-0.1c4.8,0.7,9.6,1.5,14.5,2.1c0.5,0.1,1.4,0,1.5,0.4c0.1,0.4-0.6,0-0.9,0.2c-6.1,2.6-10.1,6.9-13.8,11.3
	c-0.7,0.8-1.4,2-0.2,3c3.7-0.2,7.6,1.1,11-1c2.7-1.7,3.2-0.2,3.2,1.4c0,1.9-0.1,3.9-0.2,5.8c-0.1,1.5-0.2,3.1,2.8,2.7
	c1.6-0.8,1.8-2.2,2.4-3.5c1.6-3.7,3.3-7.4,6-10.7c2.9-3.6,6.9-5,12.3-4.4c7.3,0.7,13.6,3.3,19.9,5.9c2.3,0.9,6,1.6,5.8,3.7
	c-0.2,1.8-4.1,1.7-6.4,2.2c-10.5,2.6-19.5,6.7-25.9,14.1c-2.7,3.1-5.7,6.1-8.7,9.1c-1.4,1.4-2.7,3.7-5.2,3.1
	c-2.7-0.6-1.7-3.1-1.9-4.8c-0.2-2.3-0.1-4.7,0.7-6.9c0.1-1.6,1-3.2,0.9-4.8c-0.3-1-0.6-2.1-2.3-1.5c-2.8,1-6.5,1.2-6.7,4.7
	c-0.1,1.3-1.4,2.3-3.1,2.2c-2.2-0.1-1.9-1.7-1.9-2.8c0-1.2,0.1-2.5-0.9-3.5c-1.5-1.5-1.2-3-1.2-4.8c0-2.1,1.9-4.6-1.4-6.3
	c-4.5,4-4.6,9-5.2,13.9c0,1.5,0.2,2.9-0.4,4.4c-0.4,1.5-0.9,3.1-1,4.6c-0.3,3.1-2.3,3.8-5.7,3c-3.1,2.3-0.2,4.9-0.8,7.4
	c-0.5,2.1,1.3,2.5,3.5,1.8c2.9-1,5.7-2.3,8.7-3.2c2-0.6,2.1-1.3,1.7-2.7c-0.2-0.7-1.7-1.9,0.3-2.4c1.4-0.3,1.8,0.8,2.1,1.6
	c0.6,1.5,1.3,2.8,3.7,2.6c2.4-0.2,4.7-0.6,5.1-2.9c0-0.2-0.1-0.3-0.1-0.5c-0.6-2.2-1.3-4.3,0.2-6.5c1.5,2.1-0.5,4.9,1.8,7
	c-0.7,1.3-1.3,2.7-2.1,4c-0.7,1.3-0.4,2.3,1.4,2.5c4.5,0.6,9.1-0.9,12.4-2.4c3-1.3,6-5,4.8-8.9c-0.3-0.9,0.2-2.3,1-1.9
	c3.2,1.8,3.6-1,5.7-2.4c-0.5,3.4,2.1,3.6,4.4,3.8c2.5,0.2,2.8-1.5,3.2-3c0.3-1.1,1.2-1.4,2.4-1.3c0.6,0,1.5,0.1,1.7,0.4
	c0.7,1-0.6,1.5-1.2,2.1c-0.8,0.7-1.8,1.4-1.8,2.5c0,4,0.1,8,0.1,12c2.3-0.4,2.4-2.1,3.1-3.3c4.4-7.1,10-13.5,17.5-18.8
	c6.1-4.2,12.6-3.9,17.9,0.9c2,1.9,3.8,3.8,5.2,6.1c2.5,4.2,2.1,4.7-3.5,5.4c-12.2,1.5-23.4,4.8-31.9,12.3c-1.6,1.4-3.4,2.5-5.2,3.7
	c-2,1.3-2.9,1-3.1-1.1c-0.1-1.7,1-3.4,0-5c-2.4-0.5-4.5,0.8-6.9,0.6c-8.5-0.5-7.3,1.6-7.2,7.5c0,1.3,1,1.9,2.8,1.9
	c4,0,8.5-2.5,11.8,1.4c0.2,0.2,0.9,0.2,1.3,0.2c8.4,0.4,10.6-0.9,12.4-7.4c0.2-0.8,0.3-1.7,0.5-2.5c0.1-0.8,0.2-1.6,1.4-1.7
	c4.1-0.4,7.8-2.6,12.4-0.7c3,1.2,7.1,1.4,9.8,0c2.1-1,3.7-0.8,5.6-1.1c3.9-0.6,7.2,0.8,10.7,0.9c3.2,0.1,4.4,0.8,5,3.5
	c0.6,2.5,2.4,4.6,0,7c-0.2,0.2,0.1,1,0.4,1.3c1.4,1.3,0.9,2.6,0.7,4.1c-0.9,6.9-1.2,7.4,7.3,7.7c3.5,0.1,6,1,6.5,4.8
	c0.7,5.2-1.2,10.6,2.1,15.7c0.7,1.1-0.5,3.8,2.1,3.4c3.2-0.5,6.9,2,9.6-1C367.8,127.2,360.9,114.3,353.3,101.6z M179,5.2
	c-1.6,0-3.3,0-4.9,0c1.4,0,2.8,0,4.2,0c0.3,0,0.5,0,0.8,0C179.1,5.2,179.1,5.2,179,5.2z"/>
<path class="st3" d="M113.3,183c-5.5-0.2-10-2.1-14.7-3.6c-16.5-5-33.6-8.5-50.9-11.3c-10.5-1.7-17.9-6.4-22.4-14
	c-0.9-1.5-2.2-3-3-4.5c-0.6-1.3-2.7-2.5-1.1-4c1.4-1.3,3.5-0.7,5.3-0.5c13.8,2,26.7,6.2,39.4,10.8c15.8,5.7,30,13.2,42.9,22.3
	C110.4,179.5,112.7,180.6,113.3,183z"/>
<path class="st3" d="M62.8,247.1c0.4-1,0.9-2,1.6-2.9c2.2-2.8,5.5-4.5,8.4-6.4c10.9-7.1,18.8-16.1,26.6-25.2
	c5.3-6.2,9.6-12.8,13.9-19.5c0.6-0.9,0.8-1.9,2.8-1.7c-1.6,10.1-6.9,19.1-11.8,28.2c-7.6,14-17.2,27-29.9,38.5
	c-2.8,2.5-5.6,4.9-9.3,6.6c-5.9,2.7-3.7-8.5-3.5-11C61.8,251.5,62,249.2,62.8,247.1z"/>
<path class="st3" d="M236.6,77.2c-0.3,2-0.6,4-1.1,6c-0.4,1.2-0.5,2.8-2.4,3.2c-1.8,0.4-3-0.8-4-1.9c-0.6-0.7-1.2-1.5-1.9-2.2
	c-6.5-9.3-7.7-19.4-6.2-29.6c0.7-4.8,2.6-10,10-11.7c3.4-0.3,6.8-0.4,10.1,0c5.3,0.8,10.6,1.6,15.8,2.4c0.6,0.4,0.6,0.8-0.1,1.2
	c-2.6,1.3-4.8,3.2-6.9,4.9c-2.1,1.7-3.9,3.5-5.6,5.5c-3.2,3.9-5.5,8.4-6.5,13c-0.5,2.4-0.8,4.9-1.1,7.3
	C236.7,76,236.6,76.6,236.6,77.2z"/>
<path class="st3" d="M108.7,191c-2.3,6.3-6.4,11-10.7,15.5c-8.9,9.4-20.4,16.6-32.7,23.1c-4,2.1-5,1.6-6.1-2.2
	c-0.9-2.8-1.8-5.7-2.9-8.5c-1.9-5.2-0.7-7.4,5.8-9.4c3.3-1,6.7-1.8,10.1-2.6c11-2.6,20.4-7.6,29.6-12.7
	C103.7,193,105.4,191.7,108.7,191z"/>
<path class="st3" d="M108.2,185.3c1.3,0.2,2.5,0.4,2.7,1.6c-3.8,0.5-7.6,0.5-11.3,1.3c-14.4,1.1-28.3,3.5-41.7,8
	c-4.5,1.5-7.9,0.9-10.5-3.3c-2-3.3-3.1-7-3.3-10.8c-0.1-0.8-0.1-1.7,0.3-2.5c1.4-2.5,11.2-0.6,13.8-0.5c5.5,0.3,11,0.8,16.5,1.3
	c4.6,0.5,9.2,1,13.8,1.6c4.2,0.5,9.8,0.4,13.8,1.9C104.2,184.7,106.2,185,108.2,185.3z"/>
<path class="st4" d="M212.2,276.4c-0.8,2.3-1.8,4.6-2.9,6.9c-0.8,1.6-1.4,3.4-2.8,4.7c-2.6,2.5-6,4.1-9.5,4.8
	c-3.3,0.7-6.7,0.7-9.9-0.3c-2.1-0.6-3.4-1.8-2.1-3.7c1-1.5,1.9-3.1,3.2-4.5c5.6-6,10.4-12.7,13.5-20.4c1.1-2.7,2-5.5,2.6-8.4
	c0.1-0.6,0.2-1.2,0.7-1.6c0.5-0.4,1.2-0.3,1.8-0.2c1.3,0.2,2.7,0.3,4,0.5c1,0.1,1.9,0.5,2.4,1.4c0.5,0.9,0.4,2.2,0.4,3.2
	c0.2,2.5,0.3,4.9,0.3,7.4C213.9,269.8,213.3,273.2,212.2,276.4z"/>
<path class="st1" d="M224.2,189.8c-8.7-1.3-17.3-2.8-26-3.9c-6.2-0.8-12.6-1.3-18.8-2c6-0.3,12.2,0.6,18-1.5
	c0.9-0.3-3.5-1.5-3.3-2.3c9.8,1.8,24.4,5.4,33.8,8.1c0.8,0.2,19.1,4.8,19.1,5.4c-0.2,0.3-2,0.9-18.7-3.5
	C226.9,190.2,225.5,190.3,224.2,189.8z"/>
<path class="st1" d="M238.4,260.9c1.6,3.7,1.9,7.6,1.4,11.4c-0.4,2.9-0.2,5.8,0.4,8.6c-2.3-0.2-1.9-1.6-1.9-2.8
	C238.3,272.4,238.4,266.7,238.4,260.9z"/>
<path class="st1" d="M191.5,194.1c8.9-1.1,17.8-1,26.6,0C209.3,194.1,200.4,194.1,191.5,194.1z"/>
<path class="st1" d="M253.2,78c2.8,0.4,1.7,2.2,1.8,3.5c0.1,1.8,0,3.6,0,5.4c-0.6,0-1.2,0-1.9,0c0,0,0,0,0,0
	C251.8,83.9,251.8,80.9,253.2,78z"/>
<path class="st1" d="M212.4,276.5c0.5-3.5,1.1-7,1.6-10.5c0.8,3.1-0.8,6.3,1.2,9.4C216.2,277,213.4,276.2,212.4,276.5z"/>
<path class="st1" d="M234.7,279.5c0-2.5-0.1-4.9-0.1-7.4C237.2,274.1,237.2,277.4,234.7,279.5z"/>
<path class="st5" d="M99.5,188.2c3.5-1.9,7.5-1.3,11.3-1.3C107.2,188.1,103.4,188.3,99.5,188.2z"/>
<path class="st1" d="M234.5,266.4c0.3-1.4-0.4-2.8,1.1-4C236.3,263.8,237.6,265.2,234.5,266.4z"/>
<path class="st1" d="M234.5,271.5c-1-1.7-1.6-3.4-1.7-5.3c0.6,0,1.2,0,1.8,0C234.6,268,234.6,269.8,234.5,271.5z"/>
<path class="st5" d="M108.2,185.3c-2.2,0.3-4.2,0.1-5.8-1.3C104.4,183.9,106.4,184.3,108.2,185.3z"/>
<path class="st3" d="M259.1,67.7c1.6-4.7,3.5-9.4,6.6-13.7c1.3-1.8,2.8-3.5,4.9-4.5c3-1.5,6.7-1.6,10.2-1.1c4.6,0.7,9.1,2,13.4,3.6
	c4.1,1.5,7.9,3.6,12,5.1c0.8,0.3,1.5,0.8,1.6,1.4c0.3,1.8-2.7,2.1-4.2,2.4c-6.5,1.5-13,3-18.8,6c-7.2,3.7-11.5,9.4-16.7,14.5
	c-1.4,1.4-2.7,2.8-4,4.2c-1,1.1-2.1,2.4-3.6,3.1c-0.8,0.3-1.8,0.5-2.6,0.2c-1.2-0.5-1.5-1.7-1.6-2.8c-0.5-5.6,0.4-11.3,2.1-16.8
	C258.7,68.8,258.9,68.3,259.1,67.7z"/>
<path class="st3" d="M180.4,41.1c-1,1.1-2.7,1.9-4,2.6c-1.6,0.9-3.8,2.2-6,1.8c-1.2-0.2-2-1.1-2.6-1.9c-0.5-0.7-1-1.4-1.4-2.1
	c-0.4-0.7-1.6-1.9-1.6-2.7c-6.6-11.7-17.8-21-31.4-27.7c-0.9-0.5-1.9-0.9-2.8-1.3c-0.9-0.4-1.8-0.8-2.3-1.5
	c-1.1-1.4,0.4-3.3,2.4-3.2c1,0,1.9,0.4,2.8,0.6c3.3,0.7,7,0,10.4,0.3c13.1,1.1,25.5,9.8,31.4,18.7c2.7,4,4.7,8.6,5.7,13
	c0.2,0.8,0.3,1.7,0,2.5C180.9,40.6,180.7,40.9,180.4,41.1z"/>
<path class="st3" d="M286.9,94.2c4.6-8.1,10.2-15.5,18.5-21.8c8-6,14.9-5.8,21.8,0.9c2.4,2.3,4.2,4.8,5.8,7.4
	c1.3,2.3,1.2,4.3-3.1,4.5c-15.5,0.7-27.7,6.6-38.2,15.2c-0.5,0.4-0.6,1-1.5,1.2c-1.2,0.3-2,1.8-3.6,1c-1.2-0.6-0.9-1.7-0.9-2.7
	C285.8,98,286,96.1,286.9,94.2C286.9,94.3,286.9,94.2,286.9,94.2z"/>
<path class="st3" d="M201.7,70.7c0.4,2.8,1,5.5,1.1,8.3c0.1,1.9,0.7,4.2-2.1,5.2c-2.8,1-4.5-0.8-6.2-2.2
	c-7.5-6.5-13.2-13.8-16.1-22.4c-0.4-1.9-0.5-3.9,0.1-5.8c6.1-7.9,16.7-9.5,26.7-11.6c2.2-0.5,2.2,1,1.5,2.4
	c-1.8,4.1-4.8,8.1-5.4,12.5c-0.5,3.7-0.5,7.5-0.1,11.2C201.5,69.1,201.6,69.9,201.7,70.7z"/>
<path class="st3" d="M165.8,76.5c0.3,0.9,0.6,1.7,1,2.5c1.6,3.6,3.5,7.2,5,10.9c0.4,1,0.9,2,1.3,3c2.2,5.5,0.5,7.1-6.7,6.1
	c-6.3-0.9-12.2-2.9-16.6-6.9c-4.5-4.1-5.1-8.6-2.8-13.7c4-8.6,10.9-15.9,17.8-23.1c-0.1,4.2-0.4,8.4-0.2,12.6
	C164.5,70.8,164.9,73.7,165.8,76.5z"/>
<path class="st3" d="M207.3,33.2c0,0.2-0.1,0.5-0.2,0.7c-0.6,1.5-3.2,1.7-4.8,2.1c-3.5,0.8-7.7,2.6-10.6,1.8
	c-2.7-0.8-2.4-4.9-3.8-7.5c-2.2-4-4.7-7.8-7.8-11.4c-1.5-1.8-3.2-3.6-4.9-5.3c-1.4-1.4-3.9-2.9-4.1-4.8c-0.2-1.9,15.9-0.3,17.7-0.1
	c3,0.3,6.3,0.5,9,1.8c3,1.4,4.7,4.1,5.6,6.7c1.6,4.9,3.6,10,3.9,15.1C207.3,32.6,207.4,32.9,207.3,33.2z"/>
<path class="st6" d="M130.8,101.7c0.1-0.2,0.3-0.5,0.4-0.7c1-1.7,2.2-3.5,3.4-5.1c0.6-0.8,1.6-3,3.1-2.9c1.4,0.1,1.6,1,1.8,1.9
	c2,8.2,6.7,15.2,14.1,21.3c4.5,3.7,3.5,5.2-2.8,6.2c-5.3,0.8-10.6,0.3-15.6-1.2c-4.9-1.4-10.3-4.7-8.8-9.4
	C127.4,108.3,128.9,104.9,130.8,101.7z"/>
<path class="st6" d="M216.2,24.3c-0.5-1.8-1-3.6-1.7-5.4c-1-2.5-1.9-5.1-3.5-7.4c-1.1-1.6,1.4-1.8,2.8-1.7c4.3,0.3,8.5,1,12.8,1.5
	c3.5,0.4,6.7,2,7.5,4.9c0.7,2.3,1.2,4.7,1.5,7.1c0.3,2.3,0.8,4.6,0.5,6.9c-0.1,0.6-0.1,1.5-0.6,2c-0.5,0.5-1.9,0.4-2.7,0.4
	c-2.2,0.1-4.4,0.2-6.6,0.3c-1.4,0.1-2.8,0.1-4.2,0.2c-0.6,0-1.3,0-1.9,0.1c-0.6,0.1-1.1,0.4-1.7,0.1c-0.7-0.3-0.9-1-0.9-1.6
	c-0.2-1.6-0.3-3.2-0.7-4.8C216.6,26.1,216.4,25.2,216.2,24.3z"/>
<path class="st7" d="M294,43.6c0.1-0.2-8.6-2.8-9.4-3c-3-1-6.1-2-9.1-3c-0.2-0.1-0.5-0.2-0.7-0.3c-0.3-0.3-0.3-0.6-0.3-1
	c-0.1-1.8-1.2-3.4-1.3-5.2c0-1,0.2-2.1,0.2-3.1c0.1-1.6-0.6-3-1.4-4.5c-0.8-1.5-1.8-2.9-1.3-4.5c0.6-2,4-1.5,5.9-1.2
	c7,1,12.4,3.6,14.2,9.5c1,3.4,2.1,6.8,3.1,10.3C294.5,39.6,294.5,41.6,294,43.6z"/>
<path class="st7" d="M245,25.7c-0.3-1.6-0.8-3.2-1.5-4.7c-0.5-1.2-1.4-2.4-2.1-3.6c-1.3-2.1,0.9-4.6,3.8-4.4c0,0,0,0,0.1,0
	c3.6,0.2,7.2,0.6,10.8,1.3c2.1,0.4,4.9,1,5.9,2.7c0.4,0.6,0.5,1.4,0.7,2.1c0.7,3.7,1.2,7.5,1.3,11.3c0,1,0.1,2.2-0.7,3.1
	c-0.7,0.8-2.3,0.8-3.5,0.9c-1.1,0.1-2.2,0.1-3.3,0c-2.8-0.3-5.6-0.6-8.4-0.8c-3-0.3-2.7-3.5-2.8-5.3C245.3,27.3,245.2,26.5,245,25.7
	z"/>
<path class="st1" d="M259.1,67.7c-0.2,0.9-0.2,0.6-0.5,1.6c-0.1,0.3-0.2,1.6-0.6,1.5c-2.1-0.9-7,0.8-6.8,2.5
	c0.2,1.7-0.3,2.8-2.3,3.5c-1.2,0.4-2.4,1.5-3.8,0.8c-1.5-0.8-1.7-2.3-1.8-3.6c-0.1-0.8,0.8-2,0.4-2.4c-4.8-4-1.2-8.5-1.7-12.8
	c0,0,0,0,0,0c2.4-0.5,4.6-1.6,7.3-0.5c1.6,0.6,3.2-0.7,4.2-1.7c2.7-2.6,3-1,3.8,1c1,2.5,0,4.9,0,7.4
	C257.2,66.2,256.8,67.4,259.1,67.7z"/>
<path class="st1" d="M264.3,34.4c1.1,1.3,2.7,0.9,4.2,0.8c3.5-0.3,4.5,1.3,3.9,3.6c-0.3,1.2-0.5,2.4-0.5,3.6
	c-0.1,3.9-2.5,5.9-7.3,6.2c-1.1,0.1-2.8,0.1-2.8-0.8c0.2-3.7-4.8-5.5-4.9-9.1c0-1-0.8-1.9-1.2-3c2.1-0.2,4-0.5,6-0.7
	C262.1,33.6,263.4,34.7,264.3,34.4z"/>
<path class="st1" d="M183.9,73c-0.5,6.6-2,8.7-5.8,8.5c-3.5-0.2-10.7-5.6-9.8-7.8c0.8-1.8,1.2-4.6,5-4.5C178,69.3,184,71.4,183.9,73
	z"/>
<path class="st1" d="M214.3,41.1c-2.9-0.3-4.5-2-4.5-4.4c0-1.3,2-1.8,3.5-1.9c1.6,0,6.4,3.7,6,4.5C218.4,40.9,216.8,41.4,214.3,41.1
	z"/>
<path class="st1" d="M295.1,71.9c0,1.3-0.7,2.5-2.3,2.2c-1.7-0.3-4.5-0.1-4.7-2.1c-0.1-1.3,0.5-2.9,3.1-2.9
	C293.9,69.1,294.8,70.2,295.1,71.9z"/>
<path class="st1" d="M203.6,64.3c2.9-0.3,1.6-4.9,5.7-3.4c1.6,0.6,2.7,3.3,1.7,4.1C208.9,66.6,206.2,65.2,203.6,64.3z"/>
<path class="st1" d="M222.6,34.8c1.1,0.8,3.8-0.1,4,1.5c0.1,1.2-2,1.7-3.5,1.8c-1.5,0.1-2.2-0.7-2.4-1.8
	C220.6,35.4,221,34.7,222.6,34.8z"/>
<path class="st1" d="M103,3.7c2.7-0.9,5.4-1,9.3,0C108.3,4.7,105.7,4.6,103,3.7z"/>
<path class="st1" d="M243.8,30.6c0,0.7-0.1,1.6-1.3,1.6c-2-0.2-1.6-1.8-2.2-2.8c-0.3-0.6,0.2-1.3,1-1.1
	C242.8,28.6,243.6,29.5,243.8,30.6z"/>
<path class="st1" d="M214,73.4c-0.1,1.1-0.4,2-1.7,2.1c-1.3,0.1-1.9-0.7-1.9-1.6c0-0.9,0.7-1.6,2-1.6
	C213.7,72.2,213.9,72.9,214,73.4z"/>
<path class="st1" d="M156.3,104.4c-0.2,0.8-0.4,1.5-1.4,1.2c-1.2-0.4-2.5-1.1-2.6-2.3c-0.1-0.5,0.7-0.8,1.3-0.8
	C155.1,102.7,156.2,103.2,156.3,104.4z"/>
<path class="st1" d="M212.9,76.6c-0.4,1.8-1.2,2.5-3.1,2.6C209.8,77.6,210.9,77,212.9,76.6z"/>
<path class="st1" d="M239.9,76.6c1,0,2,0.1,1.9,1.1c0,0.3-0.5,0.7-0.8,0.7c-1,0.1-1.9-0.3-2.3-1C238.5,76.9,239.3,76.6,239.9,76.6z"
	/>
<path class="st0" d="M294.3,43.6c0-2,0-4,0-6"/>
<path class="st8" d="M180.5,41.2c0-1.5,0-3,0-4.4"/>
<path class="st1" d="M217,50c0.3,0.2,1,0.3,1.2,0.6c0.3,0.7-0.6,0.7-1.1,0.8c-0.6,0.1-1.3,0-1.5-0.5C215.3,50.2,216.2,50.2,217,50z"
	/>
<path class="st0" d="M244.9,25.7"/>
<path class="st1" d="M389.4,197c0,0-45.9,13.2-49.4,13.2c-3.4,0.1,8.1,26,8.1,26l10.8,9"/>
<path class="st1" d="M387.7,161c0,0,15.4,19.3,17.5,32.6c2.1,13.2-18.3,40.4-34.7,46.8c-16.3,6.5-34.3-28.4-34.3-29.3
	S387.7,161,387.7,161z"/>
<path class="st1" d="M241.2,59.7c0,0,0.6-1.1,0.9-1.4c0.2-0.4,0.3,1.4,0.3,1.4H241.2z"/>
<rect x="468.3" y="20.7" class="st9" width="43.8" height="43.8"/>
<rect x="468.3" y="70.2" class="st1" width="43.8" height="43.8"/>
<rect x="468.3" y="121.5" class="st10" width="43.8" height="43.8"/>
<path class="st7" d="M219.8,256.1c1.1-0.5,3-0.1,4.1,0.1c1.8,0.3,3.5,1.1,4.7,2.5c1.5,1.6,2.2,3.3,3,5.3c1.5,3.3,3.5,6.9,3.9,10.5
	c0.5,5.2-2.8,9.4-7.1,11.7c-3.1,1.7-6.8,2.6-10.3,2.4c-0.9,0-1.9-0.1-2.8-0.5c-0.3-0.1-0.6-0.3-0.7-0.5c-0.4-0.6-0.2-1.4,0-2
	c0.8-2,2.1-3.8,2.9-5.9c0.8-2.2,1.1-4.8,1.1-7.1c0-2.5-0.2-4.9-0.2-7.4c0-2.3,0-4.6,0.3-6.9c0.1-0.5,0.2-1.1,0.4-1.5
	C219.2,256.4,219.5,256.2,219.8,256.1z"/>
<path class="st7" d="M238.4,260.9c0-1.5-0.4-2.5,2.8-2.5c2.6,0,5.4,0.3,7.6,1.9c0.9,0.7,1.6,1.5,2.1,2.5c0.8,1.7,1.8,3.3,2.4,5.1
	c0.9,2.7,1,5.7-0.6,8.2c-1.8,2.7-4.9,4.1-8,4.9c-1.3,0.3-2.7,0.5-4,0.1c-0.2,0-0.3-0.1-0.5-0.2c-0.1-0.1-0.2-0.2-0.3-0.3
	c-1.3-1.9-1.4-4.1-1-6.3C239.7,269.8,238.9,265.4,238.4,260.9z"/>
<path class="st11" d="M275.4,260.1c1.1,0.1,1.6,1.3,1,2.2c-2.6,3.6-6.5,6.1-10.9,8.3c-1,0.5-2.3,1.2-3.5,0.8c-1.2-0.4-1.3-1.9-1.3-3
	c0-1.9-0.3-3.7-0.7-5.5c-0.1-0.6-0.8-1.9-0.5-2.4c0.3-0.6,1.3-0.5,1.9-0.5C266.1,260.2,270.7,259.7,275.4,260.1z"/>
<path class="st3" d="M191.6,179.8c-3.5-0.6-7-1.2-10.5-1.7c-4.4-0.7-8.9-1.6-12-5.1c-3.6-4.2-6.6-8.9-8.7-14
	c-0.2-0.4-0.3-0.8-0.2-1.2c0.2-1.1,1.7-1.2,2.8-1.1c5.9,0.9,11.6,2.9,17.2,5c21.9,8.2,43.1,18,64.1,28.3c0.6,0.3,1.1,0.8,1.7,1.2
	c0.3,0.2-1.9,1.7-2.2,1.8c-1.5,0.6-3.2,0.1-4.7-0.4C223.4,188,207.8,182.8,191.6,179.8z"/>
<path class="st4" d="M201.4,209c4.1-1.1,8.3-2.2,12.5-3.1c6.5-1.5,13.4-3.7,20-3.9c1.4-0.1,2.9,0,4,0.7c1.9,1.1,1.1,2.7-0.5,3.5
	c-13.2,6.5-26.4,13-39.8,19c-1.4,0.6-2.9,1.3-4.5,1.2c-3.3,0-5-4.5-5.6-7.2c-0.4-1.6-0.2-3.4,0.7-4.7c1.1-1.6,3.1-2.3,4.9-2.9
	C195.8,210.5,198.6,209.7,201.4,209z"/>
<path class="st7" d="M213.8,203c-4.3,0.7-8.5,1.6-12.6,2.6c-4.5,1.1-16.9,7.3-20.5,1.3c-2.8-4.6-1.6-6.8,4.7-7.8
	c5.5-0.8,11-1.5,16.5-2.1c11.9-1.2,23.8-0.8,35.8-0.8c2.4,0,7.4,0.1,9,2.4c0.6,0.9,0.2,1.4-1,1.4C235.2,200.4,224.4,201.2,213.8,203
	z"/>
<path class="st7" d="M186.2,194c-1.2,0.1-2.4,0.2-3.7,0.3c-6,0.2-9.9-3.7-8.5-8.2c0.8-2.4,6-2,8.3-1.9c8.3,0.4,16.5,1,24.7,2
	c4.2,0.5,8.5,1.2,12.7,1.9c3.6,0.7,7.8,1.1,11.2,2.6c2.2,1,4.8,1,6.9,2.2c0.4,0.2,0.6,0.6,0.7,0.9c0,0.3-0.9,0.8-1.2,1
	c-0.5,0.2-1.2,0.3-1.8,0.4c-3.1,0.4-6.2-0.4-9.2-0.8C213.1,192.8,199.5,192.7,186.2,194z"/>
</svg>
