<?xml version="1.0" encoding="utf-8"?>
<!-- Generator: Adobe Illustrator 21.1.0, SVG Export Plug-In . SVG Version: 6.00 Build 0)  -->
<svg version="1.1" id="Capa_1" xmlns="http://www.w3.org/2000/svg" xmlns:xlink="http://www.w3.org/1999/xlink" x="0px" y="0px"
	 viewBox="0 0 381.5 381.5" style="enable-background:new 0 0 381.5 381.5;" xml:space="preserve">
<style type="text/css">
	.st0{fill:#2E4172;}
</style>
<g>
	<g>
		<g id="Layer_5_13_">
			<g>
				<path class="st0" d="M62.4,246.7c0,0,20.2,10.9,52.3,14.2c2.6,0.3,36.3,21.9,70.4,16.1c18-3.1,26.6-4.1,30.5-5.2
					c3.4-0.9,1.8-2,1.8-2l-17.1-13.6c-1.2-1.3-0.2-2.3,0.7-2.5c37.9-10.8,67.8-27.8,85.7-42.3c2.4-2,8.6,2.7,13.1,5
					c14.8,7.5,76.2,32.8,81.3,27.4c0.4-0.5,0.5-1.1,0-2.1c-8.6-18.2-39.9-33.6-27.9-59.3c1.2-2.6,9.5-13.6,17.1-25.1c0,0,0,0,0,0
					c1.7-2.6,3.4-5.2,4.9-7.7c0-0.1,0.1-0.1,0.1-0.2c0.2-0.4,17.9-28.6-7.2-17.2c0,0,0,0,0,0c-4.7,2.4-10.7,6-18.2,11.1
					c-16.4,11-49.9,27.2-49.9,27.2s-5.8,3.1-9.7,0.7c-19.4-12.1-47.7-33.6-84.9-45.6c-0.6-0.2-1.4-0.7-0.3-1.7l16-11.2
					c0,0,1.2-1.1-0.4-1.6c-7.9-2.6-40.8-13.6-69.2-3.5c-5.8,2.1-10.6,3.8-14.5,5.2c-1.7,0.6-3.4,1.3-6.8,1.7
					C52.5,117.2,0,174.2,0,196.7c0,15.1,8.2,25.3,37.9,39.4 M62.8,180.6c-5.5,0-9.9-4.5-9.9-10.1s4.4-10.1,9.9-10.1
					s9.9,4.5,9.9,10.1S68.3,180.6,62.8,180.6z M107.1,238c-0.6,0.5-1.2,1.4-0.8,0.2c0,0,15.4-23.2,17.4-53.2
					c1.5-22.5-13.5-50-13.5-50s0-0.8,0.6-0.2C116.1,141.2,168.6,182.7,107.1,238z"/>
			</g>
		</g>
	</g>
</g>
<polygon class="st0" points="66.8,184.2 82,166.5 72.3,151.9 54.8,149.7 44.6,169.4 63.3,190 "/>
</svg>
