<?xml version="1.0" encoding="utf-8"?>
<!-- Generator: Adobe Illustrator 21.1.0, SVG Export Plug-In . SVG Version: 6.00 Build 0)  -->
<svg version="1.1" id="Capa_1" xmlns="http://www.w3.org/2000/svg" xmlns:xlink="http://www.w3.org/1999/xlink" x="0px" y="0px"
	 viewBox="0 0 583.9 316.2" style="enable-background:new 0 0 583.9 316.2;" xml:space="preserve">
<style type="text/css">
	.st0{fill:#2E4172;}
</style>
<g>
	<g>
		<path class="st0" d="M582.9,182.4c-0.7-0.4-1.3-0.8-2-1.3c-1.8-1.2-3.6-2.4-5.8-2.6c-2.8-0.2-5.7-0.3-9.6-0.3c-2,0-4.1,0-6.3,0
			c-1.2,0-2.4,0-3.7,0c1.7-1.9,3.4-3.7,5-5.5c5.6-6.2,10.5-11.6,15.6-16.8c2.9-2.9,4.2-5.8,3.9-8.6c-0.3-2.8-2.1-5.3-5.5-7.5
			c-9-6-18-11.8-27-17.7c-7.6-4.9-15.1-9.8-22.6-14.8c-34.6-22.9-74.5-38-125.6-47.5c-7.7-1.4-11.2-4.6-14-12.4
			c-3.6-10.1-7.6-19.8-11.9-30.1c-1.8-4.3-3.6-8.6-5.4-13.1c-0.3-0.8-1-1.3-1.8-1.3c-0.9,0-1.6,0.5-1.9,1.2l-6.6,14.5L347,1
			c-0.4-0.7-1.2-1.1-1.9-1c-0.8,0.1-1.4,0.6-1.7,1.3L335.7,21l-13-17.6c-0.5-0.7-1.4-1-2.2-0.8c-0.8,0.2-1.4,0.9-1.5,1.7l-2.6,22.5
			l-9.6-7.3c-0.5-0.4-1.2-0.5-1.9-0.3s-1.1,0.7-1.3,1.4l-4.1,13.9l-13.6-11.2c-0.8-0.7-2.1-0.6-2.8,0.2c-1.9,2.1-1.9,5.3-1.9,8.1
			c0,4.9-0.5,5.4-2.2,5.4c-1.2,0-2.8-0.4-4.8-1.1c-0.6-0.2-1.2-0.2-1.7,0.2c-0.5,0.3-0.9,0.9-1,1.5l-1.2,8.2l-8.2-5.6
			c-0.7-0.5-1.6-0.5-2.3,0c-0.7,0.5-1,1.3-0.8,2.2l0.2,1c-1.9,0.6-3.7,1.3-5.6,2c-5.3,1.9-10.7,3.8-16.1,5.4
			c-2.9,0.9-5.9,1.3-9.1,1.3c-5.9,0-11.8-1.5-17.6-2.9c-5.1-1.3-10.4-2.6-15.8-2.9c-1.1-0.1-2.2-0.1-3.3-0.1
			c-11.8,0-24,3.4-32.6,9.2c-16.9,11.3-32.4,24.9-45,39.5c-6.3,7.3-8.7,16.4-6.6,25.6c2,8.8,7.9,16.5,16.1,21.1
			c-3.7,2.1-8.8,3.3-14.3,3.3c-5.7,0-11.3-1.2-16.1-3.6c-10.9-5.3-21.8-10.9-32.4-16.4c-9.2-4.7-18.7-9.6-28.2-14.3
			c-5.2-2.6-10.7-4.5-16.5-6.6c-2.7-1-5.5-2-8.3-3.1c-0.6-0.2-1.2-0.2-1.7,0.1c-0.5,0.3-0.9,0.8-1,1.4
			c-10.1,49.7-2.3,97.8,4.7,140.3c0.1,0.5,0.4,1,0.8,1.3c0.4,0.3,1,0.4,1.5,0.3c1.6-0.3,3.2-0.5,4.7-0.6c3.3-0.4,6.4-0.7,9.2-2
			c4.6-2.1,9.2-4.2,13.9-6.3c14.8-6.7,30-13.6,44.1-22.1c11.5-6.9,23.7-10.1,38.3-10.1c11.7,0,23.6,2.1,34.8,4.3
			c0.5,0.1,1.3,0.7,2.6,1.6c0.1,0.1,0.2,0.2,0.3,0.2l-2,0.6c-3.6,1.1-6.4,2-9.2,2.8c-1.1,0.3-2.4,0.6-3.6,0.8
			c-2.6,0.5-5.3,1-7.6,2.5c-14.9,9.5-15.9,13.2-8.1,30.2c0.6,1.4,1.2,2.8,1.8,4.3c0.7,1.7,1.4,3.4,2.2,5.1
			c4.6,9.7,13.1,15.6,22.5,15.6c3.3,0,6.7-0.7,10-2.1c8.4-3.5,16.6-7.7,24.6-11.7c5.7-2.9,11.6-5.9,17.5-8.6
			c2.1-0.9,4.6-1.1,7.3-1.3c0.7,0,1.4-0.1,2.1-0.2l0.3,1.5c0.1,0.6,0.5,1.1,1,1.3c0.5,0.3,1.1,0.3,1.7,0.1c0.1-0.1,0.3-0.1,0.5-0.1
			c0.7-0.2,1.9-0.4,2.5-1.4c5.5-8.3,11.4-12.2,18.6-12.2c5.1,0,11,1.9,18.6,5.9c13.4,7.2,28.5,10.5,47.5,10.5
			c11.6,0,23.5-1.2,35-2.5l6.4-0.7c1.3-0.1,2.6-0.3,3.9-0.5c0.7-0.1,1.4-0.2,2.1-0.3c-0.4,0.2-0.7,0.4-1.1,0.6
			c-4.6,2.6-9,5.1-13.1,7.8c-8.2,5.3-10.5,13-6.5,22.1c3.2,7.5,6.4,15.2,9.6,23.4c1.5,3.8,3.1,7.8,4.8,12c0.3,0.6,0.8,1.1,1.5,1.2
			c0.1,0,0.2,0,0.4,0c0.6,0,1.1-0.2,1.5-0.7c1.8-2,3.6-3.7,5.3-5.3c3.5-3.5,6.6-6.4,8.8-10.2c4.8-8.2,9.4-16.8,13.9-25.1
			c4-7.4,8.1-15.1,12.3-22.4c1.8-3.1,5.4-6.1,7.4-6.1c53.8-0.3,105.4-15,153.5-43.8c4.2-2.5,8.9-4.5,13.4-6.4
			c3.3-1.4,6.7-2.8,9.9-4.4c2-1,3.3-2.7,4.7-4.4c0.5-0.6,1-1.3,1.6-1.9c0.4-0.5,0.6-1.1,0.5-1.7
			C583.8,183.2,583.4,182.7,582.9,182.4z"/>
	</g>
</g>
</svg>
