<?xml version="1.0" encoding="utf-8"?>
<!-- Generator: Adobe Illustrator 21.1.0, SVG Export Plug-In . SVG Version: 6.00 Build 0)  -->
<svg version="1.1" id="Layer_1" xmlns="http://www.w3.org/2000/svg" xmlns:xlink="http://www.w3.org/1999/xlink" x="0px" y="0px"
	 viewBox="0 0 600 300" style="enable-background:new 0 0 600 300;" xml:space="preserve">
<style type="text/css">
	.st0{fill:#FFFFFF;}
	.st1{fill:#425E9B;}
</style>
<path class="st0" d="M-24.7,412.5c0-156.8,0-313.6,0-470.4c214.3,0,428.7,0,643,0c0,156.8,0,313.6,0,470.4
	C403.9,412.5,189.6,412.5-24.7,412.5z M364.5,73c-1.1,0.3-1.8,0.5-2.6,0.6c-4.1,0.9-8.2,1.1-12.1-0.9c-4.7-2.4-5-6.8-0.7-9.9
	c1.2-0.8,2.4-1.4,4.1-2.3c-1,0-1.6,0-2.1,0c-8.4-0.2-16.7,1.1-25,2.5c-6.2,1-12.4,2.2-18.7,3c-8.4,1-16.7,2.3-25,4.3
	c-12,3-23.5,7.3-34.7,12.3c-0.9,0.4-1.9,0.8-2.9,0.8c-9-0.2-18-0.6-27-0.9c-0.5,0-1-0.1-1.4-0.3c-5.3-1.6-10.8-2.5-16.3-2.3
	c-10.3,0.4-20.6,1-30.9,1.7c-11.7,0.8-23.4,1.9-35.1,2.7c-8.8,0.6-17.5,1.7-26,4.7c-20.6,7.2-40.7,15.6-60,25.8
	c-1.2,0.6-2.1,0.6-3.2,0c-1.7-1-3.5-1.8-5.3-2.6c-9.9-4.4-18.8-2.2-27,4.2c-4.3,3.4-5.7,8-4.4,13.4c1.2,5.2,4.3,9.3,7.7,13.1
	c7.4,8.3,16.1,15,25.1,21.5c2.8,2,5.6,3.9,8.6,6c-4.2,0.8-8,1.8-11.9,2.2c-2.8,0.3-4.4,1.9-5.8,4c-1.3,2-1.2,4.5,0.3,6.3
	c3,3.5,6.4,6.5,10.7,8.2c3.9,1.5,7.5,1.1,10.8-1.7c0.4-0.4,1.1-0.6,1.7-0.6c7.5,1.1,15,0.7,22.4,0c0.8-0.1,1.8,0.1,2.6,0.5
	c5.4,2.9,10.7,5.8,16.8,7c0.2,0.1,0.6,0.2,0.7,0.4c1,1.8,2.3,3.4,2.9,5.3c2.9,9.7,6.7,19.1,12.1,27.7c6.6,10.6,15,19.6,23.7,28.5
	c1,1,1.8,2.1,2.5,3.3c5.9,10.2,13.6,18.7,23.8,24.7c5.9,3.5,12.3,5.9,19.1,7.7c-0.2-0.6-0.3-1-0.5-1.3c-1.8-3.1-3.7-6.2-5.6-9.3
	c-2.1-3.5-2.9-9.3,3.1-11.6c0.5-0.2,1.4-0.2,1.9,0.1c8.1,4.5,16.8,6.8,25.9,8.1c1.3,0.2,2.7,0.3,4.3,0.5c-0.3-0.5-0.4-0.8-0.6-1
	c-2.4-2.9-4.8-5.9-7.4-8.6c-2.8-3.1-3-7.8-0.1-10.7c1.3-1.3,2.8-2.2,4.4-3.2c1.3-0.9,2.7-1.5,3.7-2.1c-2-2.6-4.1-4.9-5.6-7.6
	c-2-3.5-0.8-7,2.6-9.1c1.5-0.9,3.2-1.5,4.9-2c1.4-0.4,2.8-0.6,4.4-0.9c-1.2-1.7-2.2-3.3-3.5-5.2c0.8,0.2,1.1,0.2,1.4,0.3
	c12.2,3.2,24.5,6.1,37,7.8c8.8,1.2,17.7,1.9,26.5,2.9c0.7,0.1,1.5,0.2,1.9,0.7c1.7,2.1,3.2,4.3,4.9,6.3c7.1,8.4,15.2,15.8,25.2,20.6
	c5.5,2.7,10.5,6.1,15.7,9.4c3.7,2.3,7.5,4.4,11.5,6.1c3.6,1.5,7.5,2.3,11.3,3.4c-0.8-1.8-1.7-3.3-1.9-4.8c-1.1-7,1.6-12.4,7.2-16.5
	c1.1-0.8,1.5-1.4,1.3-2.8c-1-6.6,2.4-11.7,8.6-12.7c1.2-0.2,2.5-0.2,3.7-0.1c0.9,0.1,1.2-0.2,1.6-1.1c0.9-2.2,1.7-4.5,3.1-6.4
	c2.8-3.9,7.2-5,11.7-5.4c0.6,0,1.4-0.4,1.6-0.8c2-3.7,5.2-5.9,9.2-6.5c3.6-0.5,7.3-0.5,11-0.7c0.6,0,1.1,0,1.9,0
	c-1.7-4.9-3.2-9.7-6.8-13.5c0.6-0.2,0.9-0.3,1.2-0.4c19.8-5.7,39.6-11.5,59.4-17.2c2.7-0.8,5.5-1.6,8.3-1.5
	c8.6,0.2,16.8,2.3,24.2,6.7c10.9,6.5,21.7,13.3,32.4,20.2c7.3,4.7,14.2,9.9,22.1,13.6c4.1,1.9,8.4,3.5,13.1,3.4
	c0.8,0,1.4-0.1,1.4-1.2c0.2-5.4-0.1-10.7-2.8-15.4c-1.3-2.4-2-4.6-1.7-7.4c0.5-4.8-1.5-9.1-4.4-12.9c-0.5-0.6-0.8-1.1-0.3-1.9
	c4.8-8.7,6.1-17.6,1.6-26.7c0.8-1.9,1.7-3.6,2.3-5.5c1.6-4.9,1.1-9.9,0.2-14.9c-0.2-0.9,0-1.9,0.3-2.7c1.9-4,2.9-8.2,2.1-12.6
	c-0.5-2.6-1.3-5.2-2-7.9c5.8-4.9,7.3-7.6,8.6-15.4c0.1-0.4,0.3-0.9,0.7-1.2c3.2-2.6,5.3-6,6.9-9.7c2.9-6.8,5.4-13.8,11.3-19.3
	c-3-2-5.7-4.1-8.6-5.7c-4.5-2.5-9.3-2.6-13.8,0c-4.5,2.5-8.9,5.2-13.1,8.1c-9.9,6.8-18.9,14.7-29.3,20.7
	c-16.8,9.7-33.2,19.9-49.9,29.8c-1.3,0.8-2.9,1.3-4.5,1.6c-6.9,1-13.8,0-20.6-1.1c-11.1-1.9-21.8-5.3-32.3-9.4
	c-13-5.1-25.9-10.4-38.8-15.7c-1.9-0.8-3.7-2.1-5.3-3.5c-2.8-2.5-3.5-5.7-2.5-9.2c0.7-2.8,2.3-5,4.2-7.1c0.3-0.4,0.7-0.8,1.1-1.3
	c-5.4-0.2-9.9-1.7-12-6.9C358.5,81.2,360.7,77,364.5,73z"/>
<path class="st1" d="M364.5,73c-3.8,4.1-6.1,8.2-4,13.3c2.1,5.2,6.6,6.7,12,6.9c-0.4,0.5-0.8,0.9-1.1,1.3c-1.9,2.1-3.5,4.4-4.2,7.1
	c-0.9,3.6-0.2,6.8,2.5,9.2c1.6,1.4,3.4,2.7,5.3,3.5c12.9,5.3,25.8,10.7,38.8,15.7c10.5,4.1,21.2,7.5,32.3,9.4
	c6.8,1.2,13.7,2.1,20.6,1.1c1.5-0.2,3.1-0.8,4.5-1.6c16.6-9.9,33.1-20.1,49.9-29.8c10.4-6,19.5-14,29.3-20.7
	c4.2-2.9,8.6-5.6,13.1-8.1c4.5-2.6,9.3-2.4,13.8,0c2.9,1.6,5.6,3.7,8.6,5.7c-5.9,5.5-8.4,12.5-11.3,19.3c-1.6,3.7-3.7,7.1-6.9,9.7
	c-0.3,0.3-0.6,0.7-0.7,1.2c-1.2,7.8-2.7,10.4-8.6,15.4c0.7,2.7,1.5,5.2,2,7.9c0.8,4.4-0.1,8.6-2.1,12.6c-0.4,0.8-0.5,1.8-0.3,2.7
	c0.9,5,1.4,10-0.2,14.9c-0.6,1.9-1.5,3.6-2.3,5.5c4.5,9.1,3.2,18-1.6,26.7c-0.5,0.9-0.2,1.3,0.3,1.9c2.9,3.8,4.9,8.1,4.4,12.9
	c-0.3,2.9,0.4,5,1.7,7.4c2.7,4.8,3,10.1,2.8,15.4c0,1.1-0.6,1.2-1.4,1.2c-4.7,0.1-8.9-1.4-13.1-3.4c-7.9-3.7-14.8-8.9-22.1-13.6
	c-10.7-6.9-21.4-13.7-32.4-20.2c-7.4-4.4-15.6-6.5-24.2-6.7c-2.7-0.1-5.6,0.8-8.3,1.5c-19.8,5.7-39.6,11.4-59.4,17.2
	c-0.3,0.1-0.6,0.2-1.2,0.4c3.6,3.8,5.1,8.5,6.8,13.5c-0.7,0-1.3,0-1.9,0c-3.7,0.2-7.4,0.2-11,0.7c-4.1,0.6-7.2,2.8-9.2,6.5
	c-0.2,0.4-1.1,0.8-1.6,0.8c-4.6,0.4-8.9,1.5-11.7,5.4c-1.4,1.9-2.2,4.2-3.1,6.4c-0.3,0.9-0.6,1.2-1.6,1.1c-1.2-0.1-2.5-0.1-3.7,0.1
	c-6.1,1.1-9.5,6.1-8.6,12.7c0.2,1.4-0.2,2-1.3,2.8c-5.6,4.1-8.3,9.5-7.2,16.5c0.2,1.5,1.1,2.9,1.9,4.8c-3.8-1.1-7.7-1.9-11.3-3.4
	c-4-1.7-7.8-3.8-11.5-6.1c-5.2-3.2-10.1-6.7-15.7-9.4c-10-4.8-18.1-12.1-25.2-20.6c-1.7-2-3.2-4.3-4.9-6.3c-0.4-0.5-1.3-0.6-1.9-0.7
	c-8.8-1-17.7-1.7-26.5-2.9c-12.5-1.7-24.8-4.7-37-7.8c-0.3-0.1-0.6-0.1-1.4-0.3c1.3,1.9,2.3,3.5,3.5,5.2c-1.5,0.3-3,0.5-4.4,0.9
	c-1.7,0.5-3.4,1.1-4.9,2c-3.5,2.1-4.6,5.6-2.6,9.1c1.5,2.7,3.7,5,5.6,7.6c-1,0.5-2.4,1.2-3.7,2.1c-1.5,1-3.1,2-4.4,3.2
	c-2.9,2.9-2.7,7.7,0.1,10.7c2.6,2.8,4.9,5.8,7.4,8.6c0.2,0.2,0.3,0.4,0.6,1c-1.6-0.2-2.9-0.3-4.3-0.5c-9.1-1.3-17.8-3.6-25.9-8.1
	c-0.5-0.3-1.3-0.3-1.9-0.1c-5.9,2.3-5.2,8.1-3.1,11.6c1.9,3.1,3.7,6.2,5.6,9.3c0.2,0.3,0.3,0.8,0.5,1.3c-6.8-1.9-13.2-4.2-19.1-7.7
	c-10.2-6-17.9-14.5-23.8-24.7c-0.7-1.2-1.6-2.3-2.5-3.3c-8.7-8.9-17.1-17.9-23.7-28.5c-5.4-8.6-9.1-18-12.1-27.7
	c-0.6-1.9-1.9-3.6-2.9-5.3c-0.1-0.2-0.4-0.3-0.7-0.4c-6.1-1.3-11.4-4.2-16.8-7c-0.7-0.4-1.7-0.6-2.6-0.5c-7.5,0.6-15,1-22.4,0
	c-0.5-0.1-1.3,0.2-1.7,0.6c-3.3,2.8-6.9,3.2-10.8,1.7c-4.3-1.7-7.7-4.8-10.7-8.2c-1.5-1.8-1.6-4.3-0.3-6.3c1.4-2.1,3-3.7,5.8-4
	c3.9-0.5,7.8-1.4,11.9-2.2c-3-2.1-5.8-4-8.6-6C32.1,158,23.4,151.3,16,143c-3.4-3.9-6.5-8-7.7-13.1c-1.3-5.4,0.1-10,4.4-13.4
	c8.1-6.4,17.1-8.6,27-4.2c1.8,0.8,3.6,1.6,5.3,2.6c1.1,0.7,2,0.7,3.2,0c19.3-10.3,39.4-18.6,60-25.8c8.4-3,17.1-4.1,26-4.7
	c11.7-0.8,23.4-1.9,35.1-2.7c10.3-0.7,20.6-1.3,30.9-1.7c5.5-0.2,11,0.7,16.3,2.3c0.5,0.1,0.9,0.2,1.4,0.3c9,0.3,18,0.7,27,0.9
	c1,0,2-0.4,2.9-0.8c11.2-5,22.7-9.3,34.7-12.3c8.2-2.1,16.5-3.3,25-4.3c6.3-0.7,12.5-1.9,18.7-3c8.3-1.4,16.6-2.7,25-2.5
	c0.6,0,1.1,0,2.1,0c-1.7,0.9-3,1.5-4.1,2.3c-4.3,3-4,7.5,0.7,9.9c3.9,2,8,1.8,12.1,0.9C362.7,73.5,363.4,73.3,364.5,73z M286.8,72.8
	c0-0.1-0.1-0.2-0.1-0.3c-0.4,0-0.7,0-1.1,0.1c-13.1,2.7-25.3,7.6-36.6,14.8c-0.7,0.5-1.7,0.8-2.5,0.7c-7.2-0.2-14.4-0.4-21.7-0.6
	c-3-0.1-6.1,0-8.9-0.7c-7-1.8-14.1-2.5-21.3-2.2c-6.6,0.3-13.2,0.9-19.8,1.4c-6,0.4-11.9,0.9-17.9,1.4c-8,0.6-16,1.2-24,1.9
	c-5.7,0.4-11.4,0.7-16.9,2.5c-7.5,2.5-15,5.1-22.4,7.8c-11.3,4.1-22.8,8.1-33.5,13.8c-3.1,1.7-6.2,3.5-9.4,5.4
	c0.4,0.4,0.5,0.6,0.6,0.7c6.8,5.8,12.7,12.6,18.5,19.4c5.3,6.2,10.7,12.2,17.4,16.8c0.8,0.6,1.6,1.1,2.8,1.9
	c-0.5-0.1-0.7-0.1-0.8-0.1c-0.4-0.2-0.8-0.3-1.2-0.5c-6.9-3.3-12.9-8-18.4-13.3c-6-5.8-11.9-11.9-17.8-17.9c-4-4.1-8.6-7.3-14-9.4
	c-7.9-3.2-15-1.6-21.5,3.3c-3.4,2.6-4.3,5.8-2.9,9.8c1.2,3.5,3.3,6.5,5.9,9.6c-1.1-2.4-2.2-4.4-3.1-6.6c-0.8-1.9-0.3-3.6,1.1-5
	c3-2.9,6.5-4.2,10.7-3.5c4.4,0.7,8.1,3.1,11.5,5.8c7.5,6,14.4,12.8,20.9,19.9c7,7.6,13.7,15.3,21.7,21.9c3.8,3.2,7.8,5.8,12.9,6.3
	c0.7,0.1,1.4,0.2,2.2,0.3c-0.2,0.3-0.3,0.3-0.4,0.4c-5.4,3.9-11.2,3.7-17.2,1.9c-0.4-0.1-0.8-0.5-0.9-0.8c-0.5-1.8-1.7-2.3-3.4-2.3
	c-1.2,0-2.5-0.1-3.7-0.2c-3.6-0.2-7.4,0.1-10.9-0.7c-6.4-1.4-12.7-1-18.9,0.6c-1.5,0.4-2.9,1.1-4.3,1.7c-0.8,0.4-1.3,1.2-0.6,2
	c2.2,2.3,4,5.1,7.2,6.2c3.4,1.2,7.1-0.3,8.2-3.4c0.7,0.1,1.4,0.3,2.1,0.5c1.4,0.4,2.8,1,4.2,1.2c1.7,0.3,3.5,0.4,5.3,0.5
	c4.3,0.2,8.5,0,12.4-1.7c1.2-0.5,2-1.6,3.1-2.4c2.2,2.8,3.6,3.8,7.6,5.1c4.9,1.6,10,2.2,15.2,2.1c1.8,0,3.1,0.5,4.2,1.8
	c0.5,0.6,1.2,1.3,1.9,1.6c2.2,0.9,7.8-0.5,9.2-2.5c-0.6-0.5-1.2-1.1-1.8-1.6c-0.6-0.5-1.3-1-1.9-1.5c0.2-0.2,0.3-0.3,0.5-0.5
	c1.4,0.9,2.7,1.8,4.1,2.6c10.8,6.2,22.1,9.9,34.7,8.6c12.8-1.4,23.9-11,27.1-23.5c0.9-3.5,1.1-7.2,1.8-10.7c1.1-5.6,2.6-11,3.4-16.6
	c1.4-9.7-1.7-17.7-10.2-23.2c-0.4-0.2-0.7-0.5-1.1-0.8c2.6,0.3,4.8,1.3,6.6,3c5.3,4.9,8,11,8.4,18.2c0.3,5.8-0.9,11.4-2.2,17
	c-1.4,6-2.5,12-4.6,17.8c-3.2,9.3-9.4,16.2-18.5,20.3c-1,0.4-2,0.8-3.1,1.2c0.5,0.5,0.7,1,1.1,1.3c2.6,1.8,5.1,4,8,5.2
	c12.3,4.9,24.4,3.4,36.2-2.1c3.1-1.4,5-3.4,5-7c0-0.6,0.6-1.4,1.1-1.7c5.2-3,8.9-7.3,10.8-12.9c4.4-13.1,2.2-25.4-5.3-36.8
	c-0.4-0.6-0.9-1.2-1.1-1.9c-2.6-10-8.4-17.9-16.4-24.3c-1.4-1.2-3.1-2.1-4.6-3.1c1.6,0.2,3.1,0.7,4.5,1.4
	c9.7,5.2,16.1,13.4,20.2,23.5c0.3,0.6,0.5,1.3,0.9,1.9c6.9,9.1,9.5,19.5,8.5,30.8c-1,10.3-5,19.1-14,25c-1.6,1-1.5,2.2,0,3.2
	c6.8,4.3,14.2,6.7,22.1,7.9c1,0.2,1.4-0.2,1.6-1.1c0.9-3.3,1.4-6.6-0.2-9.8c3.8,2.9,4.6,6.9,3.6,11.4c1,0.2,1.7,0.4,2.5,0.4
	c6.8,0.4,13.7,0.8,20.5,1c4.7,0.2,5.2-0.5,5.4-5.3c0-0.1,0-0.1,0-0.2c0.2-2.5,0-4.9-1.5-7.1c4.5,3,5.5,7.4,4.3,12.5
	c0.9,0,1.5,0,2.1,0c4.4-0.1,8.8-0.2,13.2-0.3c6-0.2,12.1-0.5,18.1-0.7c1.4,0,1.7-0.7,1.2-1.8c-0.7-1.5-1.6-2.8-2.4-4.4
	c2.3,0.9,4.2,2.2,5.2,4.4c0.7,1.4,1.6,1.6,2.9,1.5c4.4-0.4,8.8-0.6,13.1-1c2.2-0.2,4.4-0.5,7.1-0.8c-0.8-1.7-1.5-3.2-2.3-4.7
	c1.8,0.8,3.1,1.9,4,3.5c0.4,0.8,0.9,1,1.8,0.9c2.2-0.3,4.4-0.5,6.5-0.8c7.5-1,14.9-2.1,22.4-3.1c1.2-0.2,1.4-0.6,1-1.7
	c-0.9-2.4-2.1-4.4-4.6-5.7c0.3-0.1,0.5-0.2,0.6-0.2c0.3,0,0.6,0.1,0.9,0.2c2.9,0.7,4.9,2.5,6.1,5.3c0.4,1,0.9,1.3,2,1.1
	c9.6-1.7,19.3-3.3,29-4.9c0.9-0.2,1.1-0.5,1-1.4c-0.5-3.1-1.7-5.8-4.7-7.5c0.3-0.1,0.5-0.2,0.6-0.2c0.3,0,0.6,0.1,0.9,0.2
	c3.3,0.9,5.4,3.1,6,6.4c0.3,1.7,1,1.7,2.4,1.5c6.5-1.1,13-2.2,19.5-3.3c1.1-0.2,2.3-0.4,3.4-0.7c0.2-5.1-2.8-9.4-7.6-11.4
	c5.6-1.3,9.5,2.5,11,10.7c0.4,0,0.9,0.1,1.4,0c8.1-1.2,16.3-2.4,24.4-3.7c2.3-0.4,3.4-1.2,3.7-3.5c0.2-1.6,0.1-3.2-0.2-4.8
	c-0.8-3.3-2.7-5.8-6.1-6.9c2.9-0.4,5.4,0.4,7.2,2.6c2.9,3.8,2.5,7.7,0,11.7c0.5,0,0.7,0,1,0c7.4-1.3,14.9-2.5,22.3-3.9
	c6.8-1.3,13.5-2.8,19.9-5.4c3.4-1.4,5.3-3.8,5.8-7.3c1.1-7-0.2-13.6-3.3-19.9c-1.6-3.1-4-4.6-7.5-4.8c-13-0.7-26.1-1.4-39.1-2.2
	c-4-0.2-8-0.2-11.8-0.8c-5.4-0.8-10.7-2-16-3.3c-13.3-3.3-26.1-8.2-38.8-13.2c-18.1-7.1-36.3-14.3-54.6-21
	c-25.9-9.4-52.5-15.5-80-17.9c-1.5-0.1-3,0.2-4.5,0.6c-1.7,0.4-3.5,0.4-4.3-0.1c2-1,4.3-1.9,6.2-3.4c5.1-3.8,10.6-6.8,16.5-9.2
	C279.7,75.8,283.3,74.3,286.8,72.8z M152.4,242.2c0.1-0.1,0.2-0.2,0.4-0.3c-0.6-1-1.1-1.9-1.8-2.9c-4.5-6.9-9.1-13.9-13.6-20.8
	c-1.1-1.7-2.8-2.5-4.8-2.4c-0.7,0-1.4,0.6-1.9,1.2c-0.2,0.2,0.3,1.1,0.7,1.6c2.2,2.6,4.4,5.1,6.7,7.6
	C142.8,231.6,147.6,236.9,152.4,242.2z M130,246c0.1-0.1,0.1-0.1,0.2-0.2c-0.2-0.3-0.3-0.6-0.5-0.9c-5.5-9.1-11-18.2-16.5-27.3
	c-0.2-0.4-0.4-1-0.8-1.2c-0.7-0.4-1.6-0.6-2.4-0.8c0.1,0.7,0,1.5,0.3,2.1c4.2,8,9.3,15.5,15,22.5C126.8,242.2,128.4,244.1,130,246z
	 M309.6,265c0.1-0.1,0.1-0.2,0.2-0.3c-3.7-4.6-7.4-9.1-11.1-13.7c-1.3-1.6-2.7-1.7-4.5,0.3C299.4,255.9,304.5,260.5,309.6,265z"/>
<path class="st0" d="M152.4,242.2c-4.8-5.3-9.6-10.7-14.3-16c-2.2-2.5-4.5-5-6.7-7.6c-0.4-0.4-0.8-1.3-0.7-1.6
	c0.4-0.6,1.2-1.2,1.9-1.2c2-0.1,3.7,0.7,4.8,2.4c4.5,6.9,9.1,13.9,13.6,20.8c0.6,0.9,1.2,1.9,1.8,2.9
	C152.6,242,152.5,242.1,152.4,242.2z"/>
<path class="st0" d="M130,246c-1.6-1.9-3.2-3.8-4.8-5.7c-5.7-7.1-10.7-14.5-15-22.5c-0.3-0.6-0.2-1.4-0.3-2.1
	c0.8,0.3,1.6,0.4,2.4,0.8c0.4,0.2,0.6,0.8,0.8,1.2c5.5,9.1,11,18.2,16.5,27.3c0.2,0.3,0.3,0.6,0.5,0.9
	C130.1,245.9,130.1,246,130,246z"/>
<path class="st0" d="M309.6,265c-5.1-4.6-10.3-9.1-15.4-13.7c1.8-2,3.2-1.9,4.5-0.3c3.7,4.6,7.4,9.1,11.1,13.7
	C309.7,264.8,309.7,264.9,309.6,265z"/>
<path class="st1" d="M295.7,181.2c3.1,0.7,5.4,2.6,6.7,5.5c3,6.6,0,16.3-6.2,20.1c-2,1.2-4.2,1.7-6.7,1.2c6.2-1.5,8.9-6,9.8-11.7
	C300.3,190.8,300.3,185.4,295.7,181.2z"/>
<path class="st1" d="M253.7,138c4.3,0.5,7.1,2.5,8.9,6c2.9,5.7,1.6,14-2.8,18.6c-1.9,2-4.2,3.2-7.1,3.1c5.8-2.6,7.7-7.5,7.7-13.3
	C260.3,146.7,259.3,141.5,253.7,138z"/>
<path class="st1" d="M273.6,147.6c5.8-1.9,8.1-6.4,8.6-11.9c0.6-5.7,0.2-11.4-5.1-15.5c0.8,0.2,1.6,0.4,2.4,0.7
	c3.5,1.5,5.6,4.3,6.3,8c1.2,6-0.2,11.4-4.4,15.9C279.3,146.9,276.7,148,273.6,147.6z"/>
<path class="st1" d="M278.9,160.9c5,1.3,8.1,5,8.4,10.3c0.3,5.3-1.3,9.9-5,13.7c-2.6,2.7-6.1,3.8-9.4,3c6.7-1.4,9.3-6,10.3-11.8
	C284.1,170.6,284,165.1,278.9,160.9z"/>
<path class="st1" d="M338.6,147.6c2.6-0.6,5-0.2,7.2,1.2c4.1,2.7,5.9,6.8,6.4,11.5c0.4,3.6-0.1,7-2.1,10.1c-1.4,2-3.1,3.6-5.7,4.1
	c5.1-4,5.6-9.3,4-14.9C347,154.3,344.6,149.4,338.6,147.6z"/>
<path class="st1" d="M315.4,189.3c6.3-2.5,8.1-7.6,8.1-13.3c0-5.5-1.1-10.8-6.7-14.2c0.8,0.1,1.3,0,1.8,0.2c4.1,1,6.6,3.8,7.8,7.7
	c1.6,5.1,0.8,10-1.9,14.5c-1.7,2.8-4.2,4.7-7.5,5.3c-0.3,0-0.5,0.1-0.8,0.1C316,189.5,315.9,189.4,315.4,189.3z"/>
<path class="st1" d="M300.1,165.7c5.3-3.5,6.3-8.7,5.4-14.4c-0.9-5.5-2.8-10.4-8.4-13.2c1.1,0.1,2.2,0.1,3.2,0.4
	c3.7,0.9,6.1,3.5,7.5,6.9c2,5,2,10-0.5,14.9c-1.3,2.6-3.4,4.5-6.3,5.4C300.7,165.7,300.4,165.7,300.1,165.7z"/>
<path class="st1" d="M242.3,196.6c11.4-1.4,17.4-16.3,10.5-25.7c2.5,1.1,4.2,2.6,5.3,4.8c1.7,3.5,1.6,7,0.3,10.6
	c-1.8,5.1-4.9,9.1-10.4,10.7C246.3,197.5,244.5,197.5,242.3,196.6z"/>
<path class="st1" d="M251,127.5c5.5-3.4,6.4-8.6,5.6-14.3c-0.8-5.5-2.7-10.5-8.3-13.3c1.3,0.2,2.7,0.3,4,0.7
	c3.3,1.1,5.4,3.6,6.7,6.7c2,5,1.9,9.9-0.5,14.7C256.9,125,254.5,127,251,127.5z"/>
<path class="st1" d="M344.4,178.8c5.2,0.3,8.6,5.5,8.2,12c-0.5,7-5.5,12.5-11.3,12c5.6-1.9,7.6-6,7.9-11.1
	C349.5,186.8,348.9,182.2,344.4,178.8z"/>
<path class="st1" d="M404.9,158.3c5.1-1.1,9.7,2.8,10.6,8.8c0.9,6.1-3,11.8-8.1,12.2c4.6-2.6,5.7-6.5,5-11.1
	C411.6,163.9,409.8,160.1,404.9,158.3z"/>
<path class="st1" d="M373.6,162.3c5.4,0.3,8.7,4.3,8.9,10.2c0.1,6.3-3.4,11.2-8.9,11.8c4.9-2.5,6.1-6.4,5.9-11
	C379.2,168.8,378,164.8,373.6,162.3z"/>
<path class="st1" d="M287.7,108.4c4.8-1.1,9,2.2,10.4,7.9c1.5,6.2-1.5,11.6-5.6,12.4c3.9-3.2,4.2-7.1,3-11.3
	C294.3,113.4,292.4,109.9,287.7,108.4z"/>
<path class="st1" d="M317,129.5c3.9-1.4,8.2,1.5,9.9,6.5c2,6.1-0.1,12.1-5.3,13.7c4-3.3,4.2-7.3,3-11.4
	C323.4,134.4,321.5,130.8,317,129.5z"/>
<path class="st1" d="M476,172.2c6.4-5.2,1.8-15.6-5.1-16.6c4.1-1.6,8.7,0.8,10.3,5.4C482.7,165.7,480.5,170.9,476,172.2z"/>
<path class="st1" d="M437.5,158c2.9-0.4,5.4,0.4,7.3,2.7c2.4,2.9,2.6,6.3,1.2,9.7c-1,2.5-3,4-5.7,4.6c3.5-2.2,4.4-5.5,3.6-9.2
	C443.1,162.2,441.3,159.3,437.5,158z"/>
</svg>
