<?xml version="1.0" encoding="utf-8"?>
<!-- Generator: Adobe Illustrator 21.1.0, SVG Export Plug-In . SVG Version: 6.00 Build 0)  -->
<svg version="1.1" id="Layer_1" xmlns="http://www.w3.org/2000/svg" xmlns:xlink="http://www.w3.org/1999/xlink" x="0px" y="0px"
	 viewBox="0 0 600 300" style="enable-background:new 0 0 600 300;" xml:space="preserve">
<style type="text/css">
	.st0{fill:#FFFFFF;}
	.st1{fill:#2E4172;}
	.st2{fill:#597FD3;}
	.st3{fill:#425E9B;}
</style>
<g>
	<path class="st0" d="M-11.4,473.9c0-208.8,0-417.6,0-626.4c208.7,0,417.4,0,626,0c0,208.8,0,417.6,0,626.4
		C406,473.9,197.3,473.9-11.4,473.9z M302.2,230.1c-0.4,0.8-0.6,1.1-0.7,1.4c-3.1,5.2-5.5,10.8-6.3,16.8c-1.1,7.8-2.2,15.7-3,23.5
		c-0.4,3.7,0.3,7.2,2.6,10.2c1.8,2.3,5.4,2.6,7.4,0.5c14.1-14.9,30.6-26.7,48.3-36.9c4.3-2.5,8.3-5.4,12.5-8.1
		c0.4-0.2,1-0.3,1.5-0.2c3.1,0.2,6.1,0.6,9.2,0.6c11.8,0,23.6-0.3,35.3-0.3c13.4,0,26.7-0.7,39.9-2.5c13-1.8,25.9-4.4,38.5-7.9
		c29.4-8.2,57.1-20.5,82.9-36.8c5.6-3.5,11.2-7,16.9-10.4c3.3-2,6.3-4.4,8.6-7.6c1.5-2.1,1.9-4,0.7-6.2c-1.3-2.4-3.3-1.8-5.4-1.5
		c-3.2,0.4-6.4,0.7-9.6,1c-0.5,0-1-0.4-1.5-0.7c0.4-0.4,0.7-1,1.1-1.2c1.6-0.7,3.2-1.3,4.8-1.9c3.5-1.4,6.9-3,9.2-6.1
		c1-1.3,1.5-2.6,1.1-4.2c-0.7-2.8-1.7-5.5-3.8-7.4c-2.9-2.6-5.8-5.3-9-7.4c-10.3-6.9-21.6-12-32.7-17.3
		c-13.4-6.4-27.8-10.4-42.2-13.8c-19.1-4.5-38.4-8.7-57.7-12.6c-12.8-2.6-25.7-4.6-38.6-6.6c-11.4-1.7-22.8-3.1-34.2-4.6
		c-3.2-0.4-6.4-1.2-9.6-1.3c-6.6-0.3-13-1.5-19.2-3.8c-10.5-3.8-20-9.5-29-16.1c-7.7-5.7-15.2-11.6-22.9-17.3
		c-2.4-1.8-5-3.2-7.6-4.6c-0.4-0.2-1.5-0.1-1.8,0.3c-1.2,1.5-2.4,2.9-2.5,5c-1,13.4-1.8,26.8-0.9,40.3c0.3,4.2,0.3,8.4,2.7,12.2
		c-0.4,0.1-0.8,0.3-1.1,0.3c-4.7,0.7-9.4,1.1-14.1,2.1c-7.1,1.5-14.2,3.2-21.2,5.1c-20.5,5.5-40.9,11.3-61.4,16.9
		c-5.9,1.6-11.8,3.2-17.8,4.1c-11.1,1.7-22.3,1.5-33.4,0.7c-9.1-0.7-18-2.5-26.5-5.8c-22.6-8.6-45-17.6-67.5-26.3
		c-9.2-3.5-18.5-6.7-27.7-10c-1.2-0.4-2.6-0.6-4.1-0.9c0,1.1,0,1.9,0,2.7c0.4,9.9,2.8,19.4,6.9,28.4c4,8.7,8.4,17.2,12.5,25.9
		c1.9,4,4,8,4.7,12.5c0.6,3.5,0.5,6.7-1,10c-3.1,6.7-7.5,12.5-11.9,18.3c-4.3,5.8-8.4,11.8-12.7,17.6c-4.4,6-4.5,13.6-7.2,20.1
		c0,0.1,0.1,0.2,0.1,0.3c8.1,0.9,13.1,0.6,21.5-1.3c10.9-2.5,21.7-5.1,32.5-7.6c18.7-4.3,37.3-9.1,55.5-15.2c4.2-1.4,8.4-3,12.9-3.7
		c13.7-2.1,27.3-1.5,40.9,0.9c25,4.5,49.6,10.6,73.9,17.8C261.5,215.3,281.6,223.1,302.2,230.1z"/>
	<path class="st1" d="M302.2,230.1c-20.5-7.1-40.6-14.8-61.2-20.9c-24.3-7.2-48.9-13.3-73.9-17.8c-13.6-2.4-27.2-3.1-40.9-0.9
		c-4.5,0.7-8.6,2.3-12.9,3.7c-18.2,6.1-36.8,10.9-55.5,15.2c-10.9,2.5-21.7,5.1-32.5,7.6c-8.4,2-13.4,2.2-21.5,1.3
		c0-0.1-0.1-0.2-0.1-0.3c2.8-6.6,2.9-14.1,7.2-20.1c4.2-5.9,8.4-11.8,12.7-17.6c4.4-5.9,8.8-11.6,11.9-18.3c1.5-3.3,1.6-6.5,1-10
		c-0.8-4.5-2.8-8.5-4.7-12.5c-4.1-8.6-8.5-17.2-12.5-25.9c-4.1-9-6.5-18.4-6.9-28.4c0-0.8,0-1.6,0-2.7c1.5,0.3,2.8,0.5,4.1,0.9
		c9.3,3.3,18.6,6.5,27.7,10c22.5,8.7,45,17.6,67.5,26.3c8.5,3.2,17.4,5.1,26.5,5.8c11.1,0.8,22.3,1,33.4-0.7
		c6-0.9,11.9-2.5,17.8-4.1c20.5-5.6,40.9-11.3,61.4-16.9c7-1.9,14.1-3.6,21.2-5.1c4.6-1,9.4-1.4,14.1-2.1c0.4-0.1,0.7-0.2,1.1-0.3
		c-2.4-3.8-2.5-8-2.7-12.2c-0.8-13.5-0.1-26.9,0.9-40.3c0.2-2.1,1.3-3.6,2.5-5c0.3-0.4,1.3-0.5,1.8-0.3c2.6,1.4,5.2,2.9,7.6,4.6
		c7.7,5.7,15.2,11.7,22.9,17.3c9,6.6,18.5,12.2,29,16.1c6.2,2.3,12.6,3.5,19.2,3.8c3.2,0.1,6.4,0.9,9.6,1.3
		c11.4,1.5,22.8,2.9,34.2,4.6c12.9,2,25.8,4,38.6,6.6c19.3,3.9,38.5,8.1,57.7,12.6c14.4,3.4,28.8,7.3,42.2,13.8
		c11.1,5.3,22.4,10.4,32.7,17.3c3.2,2.2,6.2,4.8,9,7.4c2.1,1.9,3.2,4.6,3.8,7.4c0.4,1.6-0.1,2.9-1.1,4.2c-2.4,3.1-5.7,4.7-9.2,6.1
		c-1.6,0.6-3.2,1.2-4.8,1.9c-0.5,0.2-0.7,0.8-1.1,1.2c0.5,0.2,1,0.7,1.5,0.7c3.2-0.3,6.4-0.6,9.6-1c2-0.3,4.1-0.8,5.4,1.5
		c1.2,2.2,0.8,4.2-0.7,6.2c-2.3,3.2-5.2,5.6-8.6,7.6c-5.6,3.4-11.3,6.9-16.9,10.4c-25.9,16.3-53.5,28.5-82.9,36.8
		c-12.6,3.5-25.5,6.2-38.5,7.9c-13.2,1.8-26.6,2.5-39.9,2.5c-11.8,0-23.6,0.3-35.3,0.3c-3.1,0-6.1-0.4-9.2-0.6c-0.5,0-1.1,0-1.5,0.2
		c-4.2,2.7-8.2,5.6-12.5,8.1c-17.7,10.2-34.1,22-48.3,36.9c-2,2.1-5.7,1.9-7.4-0.5c-2.3-3-3-6.5-2.6-10.2c0.9-7.9,1.9-15.7,3-23.5
		c0.9-6.1,3.2-11.6,6.3-16.8C301.6,231.2,301.8,230.9,302.2,230.1z M526.6,151.2c0,5.6,4.5,10.1,10.2,10.1c5.6,0,10.1-4.6,10.1-10.2
		c0-5.6-4.6-10.1-10.2-10.1C531.1,141,526.6,145.6,526.6,151.2z"/>
</g>
<rect x="-438.5" y="-308.8" class="st2" width="43.8" height="43.8"/>
<rect x="-438.5" y="-259.3" class="st3" width="43.8" height="43.8"/>
<rect x="-438.5" y="-208.1" class="st1" width="43.8" height="43.8"/>
<polygon class="st1" points="520.8,139.4 523.4,170.8 548.6,170.8 560.5,144.4 543.9,132.9 "/>
</svg>
