<?xml version="1.0" encoding="utf-8"?>
<!-- Generator: Adobe Illustrator 21.1.0, SVG Export Plug-In . SVG Version: 6.00 Build 0)  -->
<svg version="1.1" id="Layer_1" xmlns="http://www.w3.org/2000/svg" xmlns:xlink="http://www.w3.org/1999/xlink" x="0px" y="0px"
	 viewBox="0 0 63 100" style="enable-background:new 0 0 63 100;" xml:space="preserve">
<style type="text/css">
	.st0{fill:#559991;}
	.st1{fill:#8CEAE3;}
</style>
<path class="st0" d="M36.1,85.9c0,0-4.5,0.6-7.2,1.1c-2.6,0.4-5.8,2.7-5.1,2.8c0.7,0.1,2.7-0.6,2.1,0.3s-7.5,2.7-6.4,3.5
	S31,92.9,30,94.7c-1,1.8-7.8,1.9-5.6,2.9c2.3,1,20.5,1.8,20.6,0s-9.2-1.6-6.8-2.3c2.4-0.6,20.8,0.1,18.6-2.4s-15.7-2.9-12-3.4
	s14-1.8,9.6-2.4S36.1,85.9,36.1,85.9z"/>
<path class="st0" d="M7.2,25.8c0,0-5.3-0.2-6.5,3.3s9.6,0.1,9.5,3.1c-0.1,3-6-0.2-6.1,2.7s6.7,2,7.9,3.5s2.7,6.6,2.7,6.6l3.6,7.5
	l6-4c0,0-3.2-6.5-1.8-9.4s6.2-7.7,2.4-5.8c-3.9,1.9-5.2,10.5-6.6,9.9c-1.4-0.6,7.4-12.6,4.1-12.7s-8.7,6.1-9,3.4
	c-0.2-2.7,12.3-11.1,7.3-9.4s-9.1,6.7-8.7,3.6c0.4-3.1,6.4-6.8,2.5-6.6C10.7,21.8,7.2,25.8,7.2,25.8z"/>
<path class="st0" d="M46.3,20.2c0,0,1.7,13.8-0.9,16.1c-2.7,2.3-7.4,4.7-7.2,6.9s2.7,6-1.9,6s-6.6,0.8-6.6,2.2s-2.1,8.9-2.1,8.9
	s4.8-3.8,8.6-3.1s8.4,6.7,8.4,6.7s-4.5,10-7.3,10c-2.4,0,0.1,7.8,0.8,9.9c0.1,0.3,0.1,0.7,0.1,1L37,90.7c-0.1,0.7-0.7,1.2-1.4,1.2
	l0,0c-0.9,0-1.6-0.8-1.4-1.7c0.4-3,1.3-9.3,1.2-13.4c-0.1-3.1-4.7-3.2-4.9-0.1v0.1c-0.1,3.4-0.2,11.5-0.2,11.5l-4.7-11.6l1.2-15.3
	l-5.7-3.5l-2.5-5.4c0,0-3.1-6.7,2.5-9.3s7.4,1.1,7.4,1.1s-1.5-6.7-0.3-5.9s1.8,4.4,3.6,2.8c1.8-1.5-0.4-3.1,0.7-7.4
	c1.1-4.4-0.7-6-0.7-6l5.5-1.9l2,2.7C39,28.6,35.8,21.5,46.3,20.2z"/>
<path class="st1" d="M36.2,94c-1-0.3-1.3-1.6-0.6-2.3c2.2-2.2,5.8-6.2,5.8-9.9c0-5.4,0.7-10.9,1.6-16.2c1-5.3,2-11.7,1.8-13.9
	c-0.2-2.1-9.2-1-9.2-6.4s4.3-6.4,7.1-6.8c1.8-0.2,3.5,0.3,4.5,0.8c0.5,0.2,1,0.1,1.4-0.2c0.6-0.5,1.5-1,2.4-0.6
	c1.5,0.7,3.1,3,1.3,6.5s-4.3,2.3-4.9,7.4c-0.5,3.8-2,11.3-2.7,15c-0.2,1,0.8,1.9,1.8,1.6c1.3-0.4,2.6-1.1,2.6-2.1
	c0-1.8-3.6-8.2,1-10.2s7.1,2.1,9.7,0.5s0,1.3,0,3.5c0,2.1,5.6,2.8-0.7,6.8s-9.6,3.8-12.2,3s-3.3,1.5-3.3,4s3,8.6-1.2,12.5
	c-2.7,2.6-4,5-4.6,6.3C37.6,93.9,36.9,94.2,36.2,94L36.2,94z"/>
<path class="st1" d="M32.5,90.5c0,0-7.3-16.4-5.8-22.1c1.5-5.8,14.1-15.7,11.1-15.2c-3.1,0.5-4.6,4.2-5.4,2.8s-2.1-1.2-5.9,0.6
	S22,57.9,22,55.3s2.5-5.5,0-6.7s-4.5,2.2-5.2,1.2c-0.7-1.1-0.2-8.2-5.3-9.5S4,40.9,4.9,41.4s6.2,1.9,4.5,2.9
	c-1.8,1.1-8.9,3.6-4.7,4.4c4.2,0.7,9.6,0.4,10.8,2.8c1.2,2.5-10.2,0.9-5.1,4.2S20.9,57,19.2,59s-6.4-2.5-8.7,0.9
	c-2.4,3.4-5.2,4.2-5.2,4.2s0.2,0.5,4.6,1.5c4.4,1.1,11-2.2,11-2.2s3.6,0.4,3.2,3.8c-0.3,2.1-3.8,1.9-6.5,1.4
	c-0.3-0.1-0.5,0.4-0.2,0.5c1.7,0.8,3.5,1.7,3.5,2.3c0,2.6-11,7.8-8.3,8.5s12.5-1.2,14.2,2.9s-0.5,6.7,2.5,8.5
	C32.2,93.1,32.5,90.5,32.5,90.5z"/>
<path class="st1" d="M35.8,24.3c0,0,1.2-17.3,1.2-16.9s-5.8,4.7-5.8,7.2s-2.7-0.9-2.7-0.9s4.2-11.9,0-12.2s-5.6,4.8-5.6,4.8
	s-6.2-0.5-5.4,2.4s8.9,5.5,8.9,5.5s9.9,9.4,7.5,9.4s-5.5-0.5-5.5-0.5s0.1-6.8-4.4-6.9c-4.5-0.1-5.3,0.8-5.3,0.8s-5.3,3.4-1.4,5.9
	S32.8,25,32.8,25s-7.9,1.5-7.9,3.4s0,1.9,0,1.9s0.1-4.2-3.1-4s3.1,4.4,3.1,7.1c0,2.7-3.4,2.9-0.9,2.9s1.2,6.1,1.2,6.1l3,1.9
	c0,0-1.6-7.5,0.5-7.6s6.2,1.1,6.5-1.8c0.2-2.8-1.2-4.7-1.9-5.4c-0.7-0.7,3.8-1.8,3.6,0.7c-0.1,2.5-0.7,6.7-0.7,6.7s5.8,0.5,6.1-3.3
	S41.7,22.9,35.8,24.3z"/>
</svg>
