<?xml version="1.0" encoding="utf-8"?>
<!-- Generator: Adobe Illustrator 21.1.0, SVG Export Plug-In . SVG Version: 6.00 Build 0)  -->
<svg version="1.1" id="Layer_1" xmlns="http://www.w3.org/2000/svg" xmlns:xlink="http://www.w3.org/1999/xlink" x="0px" y="0px"
	 viewBox="0 0 89.6 100" style="enable-background:new 0 0 89.6 100;" xml:space="preserve">
<style type="text/css">
	.st0{display:none;}
	.st1{fill:#559991;}
	.st2{fill:#34685F;}
	.st3{fill:#8CEAE3;}
	.st4{fill:#7ACEC6;}
</style>
<g id="Layer_1_1_" class="st0">
</g>
<path class="st1" d="M30.8,83c0,0-2.6,1.9-2.3,3.2c0.3,1.2,0,2.1,0,2.1s-1-0.1-0.5,2.7c0.5,2.8-0.3,5,1.8,6s3.9,2.1,5.7,2.1
	s3.8,1.5,6.1,0c2.4-1.5,1.9-1.6,3.8-1.7s3.5-2.1,5.3-2.4s4.2-1.7,4.6-2.2c0.3-0.5,1.4-1.4,2.3-2.4c0.9-1,1.2-2.4,1.2-2.9
	s0.1-3.1,0-5s-2.4-5-2.4-5s-2.7-1.7-6.2-2.2c-1.7-0.2-2.7-1.8-2.7-1.8L39.1,74l-3.6,3.6L30.8,83z"/>
<path class="st2" d="M39.1,74.1c0,0-3.7,0.3-5.8,2.1s-6.9,8-6.9,8s4.4-1.7,5.2-4.4c0.8-2.7,3.2-4.3,3-2.4s-1.3,1.3-2.3,2.7
	c-1,1.3-0.5,2.7-1.5,3c-1,0.4-3.1,0.8-2.8,1.8c0.3,1,0.1,1.1,2.1-0.4s3.2-0.1,3.5-2.3s0-1.8,1.3-2.8c1.3-0.9,2.6-3.3,2.4-1.1
	s-4.2,4.9-2.9,4.6s2.5-5.7,3.5-4.1s-1.8,5.3-3.5,5.1c-1.7-0.2-6.1,1.8-5,1.8s6.2-2.3,5-1s-5.3,1.6-3.9,1.8c1.4,0.3,4.7-2.5,5.4-1.8
	c0.6,0.7-5.1,2.1-5.3,4.2c-0.3,2.2,0.1,1.3,1,0c0.9-1.3,4-4,4.2-3.1c0.1,0.9,0.2,2-0.2,2.6c-0.5,0.6-0.4,1.4-1.3,1.4
	s-2.7,0.8-2.2,0.8s2.3-1,1.7-0.2s-3.6,3-2.9,3s4.2-3.8,4.2-3.4s-0.2,3.2,0.1,2.5s0.2-2.6,0.7-2.9c0.5-0.4,2-1.9,1.9-1
	c-0.1,0.8-0.5,3.9,0,3.3s0.4-3.2,0.6-3.7c0.3-0.5,1.6-2.9,1.6-2.2c0.1,0.7,0.6,2.7,0.2,3.7c-0.4,1-1.4,2.6-0.7,2.3
	c0.6-0.2,1.3-2.7,1.3-2.2s0.6,5.6,1.7,5.4s-0.8-3.3-1.1-5.6c-0.3-2.3-0.9-5-0.6-6.1s2.3-2.5,2.3-2.2c0.1,0.4,0.4,1.4-0.1,2.6
	s-1,5.1-0.5,5.3c0.6,0.1,0.7-3.9,1.2-4.8s1,2.3,0.9,3.8s-1.8,3.2-1.3,3.4c0.5,0.1,1.3-1.6,1.3-1c0,0.5-0.4,3.6,0,3.2s0.5-8,0.8-7.4
	c0.4,0.5,1,3.5,1.1,2.1s-3.2-7.4-2.5-6.9s2.7,6.1,2.5,4.4s-2.4-4.1-2.1-5c0.4-0.9,3.1-1.1,4,0.1s2.2,1.3,2.2,3.6s-0.4,3.8,0,3.5
	s0.5-2.7,0.6-1.8c0,0.9-0.1,5.4,0.2,4.4c0.3-0.9,0.2-5.1,0.5-4.5s1.3,3.3,1.3,2.7s-1.4-4.5-0.7-3.1c0.7,1.5,1.3,3.9,1.3,2.5
	s-1-2.5-0.4-2.2c0.6,0.2,1.6,4.3,2.2,3.8c0.6-0.5-1.1-1.7-0.8-1.9c0.3-0.2,1.7,1.9,1.7,1.3c-0.1-0.5-1.2-1.4-1-1.5s1.4,0.5,1.5,0.1
	c0-0.4-3.8-2.1-3.4-2.7s3.6,2.4,2.9,1.3c-0.6-1.1-4.8-3.6-4.5-3.8c0.3-0.1,0.8,0,0.3-0.5s-2.8-2.2-2.1-2.4s4.8,4.5,5.1,4.4
	s-1.9-2-0.7-1.6s4,2.7,3.9,1.7c-0.2-1-6.3-3.8-5.7-3.8s1.9,0.8,1.4,0.1c-0.5-0.7-3.7-1.3-3.7-1.4s0.6-0.9,1.8-0.5
	c1.2,0.5,3.8,5.3,4.3,4.5s-3.2-4.5-2.7-4.5c0.4,0,5.8,4.7,5.7,3.6c0-1.1-2.6-2.6-2-2.5s2,1.1,1.5,0.4c-0.4-0.7-4.9-4.1-5.5-4.1
	s3,2.8,1.8,2.5s-3.4-1.8-3.3-2.1c0.1-0.3,2.9,0.5,2.8-0.1c-0.1-0.5-2-1.1-3.1-1.1c-1.1,0.1-4.7,1.4-6,1.4S39.1,74.1,39.1,74.1z"/>
<path class="st3" d="M37.1,72.4c-0.3,0-4.7,4.1-3.3,3.8s2.5-0.9,2.8-0.5s1.5-0.3,1.7,0.8s1.9,4.9,0.3,6.6s-2.3,2.7-1.8,2.5
	s1.1-1.8,1.3-1s-0.9,3.6-0.4,2.9c0.5-0.8,2.2-5.6,3.1-6.7c0.9-1.2,1.5,0.1,2.7-0.7c1.3-0.8,3-1,4-0.8c1.1,0.2-1-0.3,0-0.8
	s4.9-0.1,4.7-0.7c-0.3-0.6-1.9-0.8-1.7-1c0.3-0.2,2.9-1.4,1.1-0.9C50,76,37.1,72.4,37.1,72.4z"/>
<path class="st1" d="M52.8,73c0,0,7.5-0.1,11.7-4.7s14.7-5.1,18.7-6.4s5.4-2.4,5.4-2.4l-17.3-0.6l-11.4,6.6L52.8,73z"/>
<path class="st1" d="M59.8,39.8c0,0-8.3-0.8-12.3,9.8s-5.9,18-5.9,18l0.3,8.2l3,3.3l3.7-19.7L59.8,39.8z"/>
<path class="st4" d="M41.6,74c0,0,14-29.6,16.5-32.9c2.6-3.3,5.9,0,5.9,0L56.6,60c0,0-10.1,18.2-12.1,17.3
	C42.5,76.4,41.6,74,41.6,74z"/>
<path class="st1" d="M60.3,40.6c0,0-3.8,12.6-6.6,16.7s-0.8,10.9-0.8,10.9s5.5-8.7,9.2-13.8S73.6,46,73.6,46l-5.9-1.3l-5.2-4
	l-1.2-0.4L60.3,40.6z"/>
<path class="st1" d="M44.9,79.1c0,0,4.9-5,9-6.9s5.1-4.8,5.4-8.1c0.3-3.3-1.1-5.6,3.2-7.5s4-5.9,5.2-8c1.2-2.1,1.2-2.1,1.2-2.1
	l-9.6,5.3l-7.9,10.3L44.9,79.1z"/>
<path class="st3" d="M75,15.8c0,0,2.7,3,1.4,4.4c-1.3,1.4-5.3,3.2-7.2,6.5S53.9,37,53.1,40.6s1.2-14.9,1.2-14.9l15.6-9.1L75,15.8z"
	/>
<path class="st4" d="M37.8,66.3l1.9-12.4l6.5-53.6c0,0,6,11.7,5.9,16.3s-1.8,4.7-1.8,9.5s2.9,4.7-1.1,14.6s-8.1,15.8-8.9,18.5
	c-0.7,2.7-1.7,7.6-1.7,7.6L37.8,66.3z"/>
<path class="st3" d="M37,20.5c0,0,3.5-8.1,6.5-11.9s2.6-8.5,2.6-8.5s-1.1,9.4,0,15s-1.4,12.2-1.4,17.3S40.3,59,40.3,59l-6-29
	L37,20.5z"/>
<path class="st4" d="M20.4,7.6c0,0,7.3,3.6,10,13.5s5.6,26.4,6,29.3c0.3,2.9-0.8,8.3,0,12.3s-2.1-1.1-2.1-1.1l-6.4-19.1l-5-14.2
	L22.8,15L20.4,7.6z"/>
<path class="st1" d="M40.3,59.1c0,0,1-20.3,0.8-25.5s-2.7-6.3-2.5-11.1S34.3,8.2,34.3,8.2l-1.5,18.2l3.7,22.3L40.3,59.1z"/>
<path class="st3" d="M41.4,72.7c0,0-1.4-9.3-2.2-13.6s-5.4-9.6-6.5-13.4c-1.1-3.9-0.9-7.8-1.6-9s-2.8-3.4-2.8-9.8
	c-0.1-6.4,6-18.6,6-18.6s-0.8,17.8,1.2,24.9s3.7,14.3,4.2,20.7s2.6,12.6,2.9,16.6C42.9,74.4,41.4,72.7,41.4,72.7z"/>
<path class="st3" d="M35.4,64c0,0-0.7-8.5-3.7-17.5s-5.5-12.2-5.6-20.7S20.4,7.6,20.4,7.6s2.2,5.5,1.1,18.2
	C20.4,38.4,35.8,60.2,34.3,64C32.8,67.8,35.4,64,35.4,64z"/>
<path class="st3" d="M18,42.9c0,0,8.7,2.9,11.6,10.6s4.7,12.8,4.7,12.8h-6.4l-3.3-10.7L18,42.9z"/>
<path class="st1" d="M18,42.9c0,0,4.7,7.7,7.4,10.5s1.1,7.7,5.5,12.8s7.8,9,7.8,9s-9-5.7-10.3-8.3c-1.3-2.6-3.9-5.5-3.9-8.7
	S17.8,49.7,18,42.9z"/>
<path class="st4" d="M-0.2,55.7c0,0,1.4-6.4,11.3-3.9c10,2.5,14.3,10.3,14.3,10.3l-9.8-4.9l-12.4-2L-0.2,55.7z"/>
<path class="st3" d="M37.8,77.8c0,0-6.3-6.2-6.5-9s-5.3-11-11.5-11.2c-5.9-0.2-4.1-2.6-15-3.7c-1.4-0.1-2.8,0.2-4,0.9
	c-0.4,0.3-0.8,0.6-1,0.9c0,0,10.8-0.4,18.4,3s8.6,11,11.8,13.7s7.7,6.3,7.7,6.3L37.8,77.8L37.8,77.8z"/>
<path class="st1" d="M41.9,79.1c0,0-1.2-2.6-1-3.2c0.1-0.6,2.2-1.4,1.6-3.5c-0.6-2.1-1.5-3.5-2.3-6.1c-0.8-2.7-2.2-5.1-4.2-5.1
	c-1.9,0-4.5,1.9-6.6,1.9s-5,0.2-5.4,2.2c0,0,3.3-0.2,5.6,1.1c2.3,1.2,1.1,5.3,4.6,7.6c3.5,2.3,5.4,1.5,5.8,2.7
	C40.4,77.8,41.9,79.1,41.9,79.1z"/>
<path class="st1" d="M43.6,73.1c0,0,6.9-14.5,6.9-23.5s-1.2-13.2-1.2-15.2s1.5-14.6,13.3-18.6s12.4,0,12.4,0s-14.7,7.8-17.5,14.3
	s-4.9,17.5-7.7,28.2s-6.2,17-6.2,17V73.1z"/>
<path class="st3" d="M44.9,79.1c0,0,4-7.2,4.6-13.4s0.2-6.2,5.7-11.1s7-6.9,13.8-8c0,0-11.9,6.4-12,10.5s-1.6,10.5-4.9,15.3
	C48.8,77.1,44.9,79.1,44.9,79.1z"/>
<path class="st3" d="M60.3,40.6c0,0,1.4-1,2,1.9s1.7,5.9,7.5,4.4s14.9,6.1,14.9,4.8s0.3-5.2-0.5-5.5c-0.8-0.4-4.3,1.5-5.4,0
	s-0.2-3.5-2.6-3.2C73.7,43.2,62.1,38.8,60.3,40.6z"/>
<path class="st3" d="M46.2,78.3c0,0,9.7-10.2,13.1-14.1s3.1-8.2,12.4-7.9s16.8,3.2,16.8,3.2s-13-0.1-17.9,2.3
	c-4.9,2.4-13.6,5.9-16.3,9.4S46.2,78.3,46.2,78.3z"/>
</svg>
