<?xml version="1.0" encoding="utf-8"?>
<!-- Generator: Adobe Illustrator 21.1.0, SVG Export Plug-In . SVG Version: 6.00 Build 0)  -->
<svg version="1.1" id="Layer_1" xmlns="http://www.w3.org/2000/svg" xmlns:xlink="http://www.w3.org/1999/xlink" x="0px" y="0px"
	 viewBox="0 0 96 60" style="enable-background:new 0 0 96 60;" xml:space="preserve">
<style type="text/css">
	.st0{fill:#7ACEC6;}
	.st1{fill:#8CEAE3;}
</style>
<path class="st0" d="M12.6,58.5c-0.1,0-0.1,0-0.2,0c-1.1-0.1-11.9-1-11.9-2s1-7,3-7s6-2,6-4s2-23,5-24s15-4,18-6s8-15,18-15
	s26,0,30,1s3,8,5,11s5,2,5,8S92,49,93,49c4,0,2.5,8.5-0.5,9.5C89.6,59.5,15.5,58.5,12.6,58.5z"/>
<path class="st1" d="M16,48c0,0,1-19,3-21s14-1,19-7S47,3,50,4s-10,21-9,23s6-13,8-10S34,42,37,46s56,5,56,8c0,4-89,5-88-1
	C5.5,49.9,16,51,16,48z"/>
</svg>
