<?xml version="1.0" encoding="utf-8"?>
<!-- Generator: Adobe Illustrator 21.1.0, SVG Export Plug-In . SVG Version: 6.00 Build 0)  -->
<svg version="1.1" id="Layer_1" xmlns="http://www.w3.org/2000/svg" xmlns:xlink="http://www.w3.org/1999/xlink" x="0px" y="0px"
	 viewBox="0 0 167 203" style="enable-background:new 0 0 167 203;" xml:space="preserve">
<style type="text/css">
	.st0{fill:#7ACEC6;}
	.st1{fill:#8CEAE3;}
</style>
<path class="st0" d="M152.9,200.2c5.3-0.1,9.6-4.1,9.8-9.3c1.3-28.8,4.8-116.7-0.4-125.9c-6.2-11-55.8,0-64.1-12s4.1-41-9.3-42
	S9,8,7.2,11c-2.7,4.4-10.3,186,0,189C15.9,202.5,120.6,200.8,152.9,200.2z"/>
<path class="st1" d="M150.9,191.5c2.3-0.2,4.1-2.2,4.2-4.5c0.7-20.3,3.4-110.7-0.1-116c-4-6-22-10-22-7s-3,22-3,22s-5-21-10-23
	s-16,1-25-2s-9-9-9-9s-3,21-3,19s-4-47-7-49s-12-2-12-2s-7,172,0,175s67,5,67,0s-58,0-56-9s73-10,70-4s-11,7-7,9
	C140.6,192.3,146.8,191.9,150.9,191.5z"/>
<path class="st0" d="M142.3,160.7c1-10.7,3.9-44.7,1.2-67.4c-0.4-3.4-4.8-4.4-6.7-1.6l-3.1,4.6c-1.6,2.4-5.3,2.1-6.4-0.6
	c-3.6-8.6-10-22.9-13.4-23.6c-3.7-0.7-13.6-2.1-18.4-2.7c-1.6-0.2-3.1,0.6-3.8,2l-6.5,13.7c-1.1,2.3-4.2,2.8-6,0.9l0,0
	c-2.2-2.5-6.3-0.9-6.3,2.5v81.1c0,2.3,2.1,4,4.4,3.6c12-2.4,45.5-8.9,61.4-9.2C140.6,163.9,142.2,162.5,142.3,160.7z"/>
</svg>
