<?xml version="1.0" encoding="utf-8"?>
<!-- Generator: Adobe Illustrator 21.1.0, SVG Export Plug-In . SVG Version: 6.00 Build 0)  -->
<svg version="1.1" id="Layer_1" xmlns="http://www.w3.org/2000/svg" xmlns:xlink="http://www.w3.org/1999/xlink" x="0px" y="0px"
	 viewBox="0 0 96 60" style="enable-background:new 0 0 96 60;" xml:space="preserve">
<style type="text/css">
	.st0{fill:#7ACEC6;}
	.st1{fill:#559991;}
</style>
<path class="st0" d="M5.8,50.9c0,0-3.1-37.6-1-38.7s7.2,12.2,10.3,7.1S13,4.1,20.1,4.1s67.7-8.1,71.8,0S95,59,95,59H1.7
	c0,0-2.1-6.1,1-7.1S5.8,50.9,5.8,50.9z"/>
<path class="st1" d="M92,49.2c-1.5-1.9-5.1-1.4-7.2-1.5c-2.7-0.1-5.3-0.1-8-0.2c-4.7-0.1-9.5,0-14.3,0c-5.6,0-11.2,0-16.7-0.2
	c-1.8-0.1-3.7-0.2-5.5-0.4c-0.5-0.1-2.1-0.2-2.3-0.8c-0.1-0.2,5.6-0.7,6-0.7c10-0.5,19.9,0.1,29.9,0.4c4.9,0.1,9.8,0.2,14.7-0.7
	c0.4-0.1,0.9-0.2,1.1-0.6c0.7-1.1-1.6-1.1-2.1-1.1c-1.4-0.1-2.7-0.3-4.1-0.3c-2.6-0.2-5.3-0.3-7.9-0.3c-5.3-0.1-10.6-0.2-15.9-0.3
	c-4.8-0.1-9.6-0.2-14.4-0.4c-1.6-0.1-3.3-0.2-4.9-0.4c-0.7-0.1-1.8-0.1-2.4-0.5c-2.6-1.7-3-7.9-3-9.5C34.7,20,34,8.5,32,8
	c-4-1,1,15-3,13S25,8,22,8s0,16,0,20s-8,1-10-1s0,28,0,28h18.1H35c13.5,0,50.7,0,54,0c1.6,0,3.1-0.6,3.5-2.3
	C92.7,51.6,92.7,50.2,92,49.2z"/>
</svg>
