<?xml version="1.0" encoding="utf-8"?>
<!-- Generator: Adobe Illustrator 21.1.0, SVG Export Plug-In . SVG Version: 6.00 Build 0)  -->
<svg version="1.1" id="Layer_1" xmlns="http://www.w3.org/2000/svg" xmlns:xlink="http://www.w3.org/1999/xlink" x="0px" y="0px"
	 viewBox="0 0 167 203" style="enable-background:new 0 0 167 203;" xml:space="preserve">
<style type="text/css">
	.st0{fill:#7ACEC6;}
	.st1{fill:#559991;}
</style>
<path class="st0" d="M11.7,195.1c-3.4,0-6.4-2.5-7-5.9C3.4,182.2,2,170.7,6,166c6-7,19-3,19-16S19,39,25,36s60,6,59-5S77,5,87,5
	s65-10,69,0s9,188,6,190C159.3,196.8,39.5,195.4,11.7,195.1z"/>
<path class="st1" d="M31,151V46c0,0,7-5,11,9s11-12,17-10s26,0,29,0c4.7,0,5.9-0.9,6.8-26.8c0.1-3.1,2.4-5.7,5.5-6.2
	c4.9-0.8,11.8-1.4,13.7,1.1c3,4,21,175-6,174s-97,9.8-97,0C11,160,31,171,31,151z"/>
<path class="st0" d="M40,159c0,0-4-92,0-90s11,5,13,3s4-14,9-15s14,51,14,51s-3-54,4-54s21,1,21-2s5-23,5-19s0,141,0,141
	s-81,14-79,6S40,159,40,159z"/>
</svg>
