<?xml version="1.0" encoding="utf-8"?>
<!-- Generator: Adobe Illustrator 21.1.0, SVG Export Plug-In . SVG Version: 6.00 Build 0)  -->
<svg version="1.1" id="Layer_1" xmlns="http://www.w3.org/2000/svg" xmlns:xlink="http://www.w3.org/1999/xlink" x="0px" y="0px"
	 viewBox="0 0 167 82" style="enable-background:new 0 0 167 82;" xml:space="preserve">
<style type="text/css">
	.st0{fill:#8CEAE3;}
	.st1{fill:#7ACEC6;}
</style>
<path class="st0" d="M152.9,79.9c5.3,0,9.6-1.7,9.8-3.9c1.3-12,4.8-48.9-0.4-52.7c-6.2-4.6-55.8,0-64.1-5s4.1-17.2-9.3-17.6
	S9-0.6,7.2,0.7c-2.7,1.8-10.3,77.9,0,79.1C15.9,80.8,120.6,80.1,152.9,79.9z"/>
<path class="st1" d="M147.9,76.2c3.5-0.1,6.3-0.9,6.4-1.9c1-8.5,5.2-46.3-0.2-48.6c-6.1-2.5-33.4-4.2-33.4-2.9s-4.6,9.2-4.6,9.2
	s-7.6-8.8-15.2-9.6c-7.6-0.8-24.3,0.4-38-0.8c-13.7-1.3-13.7-3.8-13.7-3.8s-4.6,8.8-4.6,8S38.5,6.1,34,5.3S15.7,4.4,15.7,4.4
	s-10.6,72,0,73.3s101.9,2.1,101.9,0s-88.2,0-85.1-3.8c3-3.8,111-4.2,106.4-1.7s-16.7,2.9-10.6,3.8C132.1,76.5,141.6,76.4,147.9,76.2
	z"/>
<path class="st0" d="M134.8,63.3c1.6-4.5,5.9-18.7,1.9-28.2c-0.6-1.4-7.3-1.9-10.1-0.7l-4.7,1.9c-2.5,1-8,0.9-9.7-0.3
	c-5.4-3.6-15.1-9.6-20.4-9.9c-5.7-0.3-20.7-0.9-27.9-1.1c-2.4-0.1-4.7,0.3-5.7,0.9l-9.9,5.7c-1.7,1-6.5,1.2-9.1,0.4l0,0
	c-3.4-1-9.6-0.4-9.6,1v34c0,1,3.2,1.7,6.6,1.5c18.2-1,69.2-3.7,93.4-3.8C132.2,64.7,134.6,64.1,134.8,63.3z"/>
</svg>
